<svg xmlns="http://www.w3.org/2000/svg" xmlns:xlink="http://www.w3.org/1999/xlink" version="1.1" id="Layer_1" x="0px" y="0px" viewBox="0 0 500 500" style="width: 144px;" xml:space="preserve" data-imageid="rocket-launch-12" imageName="Rocket Launch" class="illustrations_image">
<style type="text/css">
	.st0_rocket-launch-12{fill:#b8df10;}
	.st1_rocket-launch-12{opacity:0.63;fill:url(#Shadow_00000089534318659948435800000007410063625860416947_);enable-background:new    ;}
	.st2_rocket-launch-12{fill:#EFF0EB;}
	.st3_rocket-launch-12{fill:#FFFFFF;}
	.st4_rocket-launch-12{fill:#f4efa2;}
	.st5_rocket-launch-12{fill:#daeefe;}
	.st6_rocket-launch-12{fill:#e77e1d;}
	.st7_rocket-launch-12{fill:#6e53f2;}
	.st8_rocket-launch-12{opacity:0.61;fill:#010304;enable-background:new    ;}
	.st9_rocket-launch-12{opacity:0.29;fill:#010304;enable-background:new    ;}
</style>
<ellipse id="Base_rocket-launch-12" class="st0_rocket-launch-12" cx="251.8" cy="357.3" rx="206.6" ry="79.8" fill="#0072ff"/>
<linearGradient id="Shadow_00000094578008176377511060000009728217243183633808_-rocket-launch-12" gradientUnits="userSpaceOnUse" x1="411.0122" y1="-20.1947" x2="274.0323" y2="179.0553" gradientTransform="matrix(1 0 0 -1 0 502)" fill="#0072ff">
	<stop offset="0" style="stop-color:#FFFFFF;stop-opacity:0" fill="#0072ff"/>
	<stop offset="0.99" style="stop-color:#754c24" fill="#0072ff"/>
</linearGradient>
<path id="Shadow_rocket-launch-12" style="opacity:0.63;fill:url(#Shadow_00000094578008176377511060000009728217243183633808_);enable-background:new    ;" d="&#10;&#9;M381,420.5c25.9-9.2,54.3-19.9,69.3-41.1c-40.6-23.3-111.7-57.6-145.2-78.6L174,377.4l99.4,57.9C309.5,435,346.7,432.7,381,420.5z"/>
<g id="Smoke_rocket-launch-12">
	<path class="st2_rocket-launch-12" d="M240.3,356.2c24.1-2.6,49-12.3,61-31.7c-9.8-20.5-29.7-38.4-69.2-38.4c-48.2,0-67.9,31.1-75.9,53.5&#10;&#9;&#9;c-0.3,0.7-0.5,1.5-0.6,2.2C180.1,356.5,213.5,359.2,240.3,356.2z" fill="#0072ff"/>
	<path class="st3_rocket-launch-12" d="M234.5,236.4c-2.1,2.4-17.4,100.8-17.4,100.8s19.9,25.9,69.3,0L269,236.4" fill="#0072ff"/>
	<ellipse class="st4_rocket-launch-12" cx="314.4" cy="319.4" rx="27.9" ry="22.4" fill="#0072ff"/>
	<ellipse class="st5_rocket-launch-12" cx="158.6" cy="341.8" rx="33.7" ry="28.5" fill="#0072ff"/>
	<ellipse class="st4_rocket-launch-12" cx="176" cy="363.1" rx="21.8" ry="16.3" fill="#0072ff"/>
	<ellipse class="st5_rocket-launch-12" cx="210.1" cy="346.8" rx="28.8" ry="25.4" fill="#0072ff"/>
	<path class="st5_rocket-launch-12" d="M305.2,368.6c18.4-2,37.4-9.4,46.5-24.2c-7.5-15.7-22.6-29.3-52.8-29.3c-36.8,0-51.8,23.7-57.9,40.8&#10;&#9;&#9;c-0.2,0.6-0.3,1.1-0.5,1.7C259.3,368.8,284.8,370.8,305.2,368.6z" fill="#0072ff"/>
	<path class="st2_rocket-launch-12" d="M264,388.3c17.6-1.9,35.8-9,44.5-23.1c-7.1-15-21.6-28-50.5-28c-35.2,0-49.5,22.7-55.3,39&#10;&#9;&#9;c-0.2,0.5-0.3,1.1-0.4,1.6C220.1,388.5,244.5,390.4,264,388.3z" fill="#0072ff"/>
	<circle class="st2_rocket-launch-12" cx="351.7" cy="296.7" r="6.8" fill="#0072ff"/>
	<circle class="st2_rocket-launch-12" cx="318.3" cy="276" r="9.7" fill="#0072ff"/>
	<circle class="st2_rocket-launch-12" cx="181.4" cy="265.6" r="6.5" fill="#0072ff"/>
	<circle class="st2_rocket-launch-12" cx="155.7" cy="292.5" r="11.7" fill="#0072ff"/>
	<path class="st4_rocket-launch-12" d="M328.8,380.2c7.3-1.8,13.6-5.3,17.5-11.9c1.9-3.5,3.7-7.1,5.1-10.8c-4.3-9.2-14.6-15.7-26.6-15.7&#10;&#9;&#9;c-15.9,0-28.8,11.4-28.8,25.4c0,3.1,0.7,6.2,1.9,9.1C307,382,318.6,382.7,328.8,380.2z" fill="#0072ff"/>
</g>
<path id="Thrust_rocket-launch-12" class="st6_rocket-launch-12" d="M236.8,236.6l-10.4,28c0,0,5.8,5.3,12.1,0s0.4,10.7,5.7,9.3s5.4-12.6,8.6-7.4s1.1,15.8,4.8,9.2&#10;&#9;c3.6-6.6,0.7-18.2,6-13.5s4.6,10.9,7.9,6.6s0.9-9.5,0.9-9.5l6,10.2l-9.7-39.8" fill="#0072ff"/>
<g id="Rocket_rocket-launch-12">
	<path class="st7_rocket-launch-12 targetColor" d="M272.6,205.9c0,0,15.8,16.3,15.8,25.6s0,39.5,0,39.5h-6.6c0,0-13.6-31.1-22.2-41.3S272.6,205.9,272.6,205.9z" style="fill: #917eec;"/>
	<path class="st8_rocket-launch-12" d="M272.6,205.9c0,0,15.8,16.3,15.8,25.6s0,39.5,0,39.5h-6.6c0,0-13.6-31.1-22.2-41.3S272.6,205.9,272.6,205.9z" fill="#0072ff"/>
	<path class="st7_rocket-launch-12 targetColor" d="M232.9,205.9c0,0-15.8,16.3-15.8,25.6s0,39.5,0,39.5h6.6c0,0,13.6-31.1,22.2-41.3S232.9,205.9,232.9,205.9z" style="fill: #917eec;"/>
	<path class="st8_rocket-launch-12" d="M232.9,205.9c0,0-15.8,16.3-15.8,25.6s0,39.5,0,39.5h6.6c0,0,13.6-31.1,22.2-41.3S232.9,205.9,232.9,205.9z" fill="#0072ff"/>
	<path class="st7_rocket-launch-12 targetColor" d="M268.3,96.6c-3.8-10.4-8.9-20.3-15.1-29.5c0,0-7.8,10.5-15,29.7C247.1,101.7,258.3,100.1,268.3,96.6z" style="fill: #917eec;"/>
	<ellipse class="st7_rocket-launch-12 targetColor" cx="252.8" cy="163" rx="16.1" ry="14.2" style="fill: #917eec;"/>
	<path class="st7_rocket-launch-12 targetColor" d="M253.2,67.2c0,0-47.7,64.4-16,164.2c0,0,3.6,21.3,14.9,20.9c11.3-0.4,20-23.5,20-23.5S298.1,133.1,253.2,67.2z&#10;&#9;&#9;" style="fill: #917eec;"/>
	<path class="st8_rocket-launch-12" d="M268.3,96.6c-3.8-10.4-8.9-20.3-15.1-29.5c0,0-7.8,10.5-15,29.7C247.1,101.7,258.3,100.1,268.3,96.6z" fill="#0072ff"/>
	<ellipse class="st8_rocket-launch-12" cx="252.8" cy="163" rx="16.1" ry="14.2" fill="#0072ff"/>
	<path class="st7_rocket-launch-12 targetColor" d="M237.2,231.3c0,0-10.9,11.3-10.9,17.7s0,27.2,0,27.2h4.6c0,0,9.3-21.4,15.3-28.5S237.2,231.3,237.2,231.3z" style="fill: #917eec;"/>
	<path class="st7_rocket-launch-12 targetColor" d="M268.3,231.3c0,0,10.9,11.3,10.9,17.7s0,27.2,0,27.2h-4.6c0,0-9.3-21.4-15.3-28.5S268.3,231.3,268.3,231.3z" style="fill: #917eec;"/>
	<path class="st9_rocket-launch-12" d="M237.2,231.3c0,0-10.9,11.3-10.9,17.7s0,27.2,0,27.2h4.6c0,0,9.3-21.4,15.3-28.5S237.2,231.3,237.2,231.3z" fill="#0072ff"/>
	<path class="st9_rocket-launch-12" d="M268.3,231.3c0,0,10.9,11.3,10.9,17.7s0,27.2,0,27.2h-4.6c0,0-9.3-21.4-15.3-28.5S268.3,231.3,268.3,231.3z" fill="#0072ff"/>
</g>
</svg>