<svg version="1.1" id="_0210_creative_process" xmlns="http://www.w3.org/2000/svg" xmlns:xlink="http://www.w3.org/1999/xlink" x="0px" y="0px" viewBox="0 0 500 500" style="width: 144px;" xml:space="preserve" data-imageid="creative-process-7" imageName="Creative Process" class="illustrations_image">
<style type="text/css">
	.st0_creative-process-7{fill:#EF8989;}
	.st1_creative-process-7{fill:#F2F2F2;}
	.st2_creative-process-7{fill:url(#SVGID_1_);}
	.st3_creative-process-7{fill:#653200;}
	.st4_creative-process-7{fill:#E85454;}
	.st5_creative-process-7{fill:#FFAE64;}
	.st6_creative-process-7{opacity:0.88;fill:#F2F2F2;enable-background:new    ;}
	.st7_creative-process-7{fill:url(#SVGID_00000060722468233972862460000004294232682661549449_);}
	.st8_creative-process-7{fill:#68E1FD;}
	.st9_creative-process-7{opacity:0.36;}
	.st10_creative-process-7{fill:#00275E;}
	.st11_creative-process-7{fill:url(#SVGID_00000140695314736510524630000014654104124266237611_);}
	.st12_creative-process-7{fill:#EFB420;}
	.st13_creative-process-7{fill:#29ABE2;}
	.st14_creative-process-7{fill:#FF9292;}
	.st15_creative-process-7{opacity:0.36;fill:#00275E;enable-background:new    ;}
</style>
<g id="field_creative-process-7">
	<path class="st0_creative-process-7" d="M22.5,258.1l226.8,130.7c2,1.1,4.4,1.1,6.4,0l221.9-126c3.1-1.7,4.2-5.7,2.4-8.8c-0.6-1-1.4-1.8-2.4-2.4&#10;&#9;&#9;l-230.6-132c-2-1.2-4.4-1.2-6.4,0L22.4,247c-3.1,1.8-4.1,5.7-2.4,8.8C20.6,256.8,21.4,257.6,22.5,258.1L22.5,258.1z"/>
	<path class="st1_creative-process-7" d="M254.9,350.8L78.5,249.2l170-99.2l179.3,102.6l-11.3,6.4l0.4,0.3l0.9,0.6l11.7-6.7l1.1-0.6l-181.9-104&#10;&#9;&#9;l-0.4-0.2L75.6,249.2l178.9,103l0.4,0.2l10.3-5.9c-0.4-0.3-0.8-0.6-1.2-0.9L254.9,350.8z"/>
	<polygon class="st1_creative-process-7" points="332.3,307 321.4,334.8 314.1,330.6 320.3,314.3 297.4,320.9 291.1,316.7 &#9;"/>
	<polygon class="st1_creative-process-7" points="370.9,285.2 360,313 352.7,308.7 358.8,292.5 336,299.1 329.7,294.9 &#9;"/>
	<polygon class="st1_creative-process-7" points="413.8,260.8 402.9,288.6 395.6,284.3 401.8,268.1 378.9,274.7 372.6,270.5 &#9;"/>
	<polygon class="st1_creative-process-7" points="296.4,327.4 285.5,355.2 278.2,351 284.4,334.7 261.5,341.4 255.2,337.1 &#9;"/>
	<ellipse class="st1_creative-process-7" cx="186.6" cy="311.8" rx="7.8" ry="3.7"/>
</g>
<g id="bulb_creative-process-7">
	
		<linearGradient id="SVGID_1_-creative-process-7" gradientUnits="userSpaceOnUse" x1="367.5638" y1="-678.6264" x2="321.7138" y2="-634.2764" gradientTransform="matrix(1 0 0 1 0 896.12)">
		<stop offset="0" style="stop-color:#653200"/>
		<stop offset="1" style="stop-color:#EF8989"/>
	</linearGradient>
	<path class="st2_creative-process-7" d="M360.2,217.8l-3.7,5.4l-61.3,32.2l22.5,23.6l68-47.1C382.2,225.6,365.7,222.8,360.2,217.8z"/>
	<path class="st3_creative-process-7" d="M355.7,227.5v5.1c0,0,2.2,6,15.1,6s14.9-6.6,14.9-6.6v-5.8"/>
	<path class="st4_creative-process-7" d="M344.9,202.2c-1.3,0.6-2.3,1.8-2.7,3.2c-0.4,2.3,0,12.2,0,12.2s0.5,12.3,28.5,12.3S398,216,398,216v-10.9&#10;&#9;&#9;c-0.3-2-2.2-3.4-4.3-3.1c0,0,0,0,0,0c-0.2,0-0.5,0.1-0.7,0.2"/>
	<path class="st5_creative-process-7" d="M346.2,206.1c0,0-1.6-6.3-4.3-9.5s-18.1-16.5-17.3-36.2c0.7-18.6,8.9-37,26.4-45.3&#10;&#9;&#9;c34.6-16.4,70.8,11.5,65.7,49.2c-2.7,19.8-18.6,29.7-20.2,34.2c-0.7,2.2-1.2,4.5-1.4,6.8c0,0-7.1,10.6-24.2,10.6&#10;&#9;&#9;S346.2,206.1,346.2,206.1z"/>
	<path class="st6_creative-process-7" d="M397.1,160.8c-1.2-10.5-3.5-20.6-12.4-27.1c-3.6-2.7-7.2,3.4-3.6,6.1c6.6,4.9,8,13.4,8.9,21.1&#10;&#9;&#9;C390.5,165.2,397.6,165.3,397.1,160.8z"/>
	<path class="st6_creative-process-7" d="M392.3,168.6c-1.9,0-3.5,1.6-3.5,3.5v0.4c0,1.9,1.6,3.5,3.5,3.5c1.9,0,3.5-1.6,3.5-3.5v-0.4&#10;&#9;&#9;C395.8,170.2,394.2,168.7,392.3,168.6z"/>
</g>
<g id="puzzle1_creative-process-7">
	<g>
		<g>
			
				<linearGradient id="SVGID_00000081637525009460572570000004003859400087906946_-creative-process-7" gradientUnits="userSpaceOnUse" x1="197" y1="263.465" x2="314.59" y2="263.465">
				<stop offset="0" style="stop-color:#653200"/>
				<stop offset="1" style="stop-color:#EF8989;stop-opacity:0"/>
			</linearGradient>
			<path style="fill:url(#SVGID_00000081637525009460572570000004003859400087906946_);" d="M251.9,229.1l-23.1,14&#10;&#9;&#9;&#9;&#9;c0,0-4.6,0.8-5.6-3.4s-10.3-9.2-17-5.4s-0.6,9.1,6.6,9.9s6.6,2.5,5,4.3S197,261.2,197,261.2l23,13.7c0,0,4.2,1.7,2.5,3.9&#10;&#9;&#9;&#9;&#9;s-6.4-3.2-11.6,2.1s5.3,10.1,11.6,9.2s6.7-3.4,6.7-5.3s1.8-2.8,3.6-2s27.7,15,27.7,15l21.6-13c0,0-9.8,0.6-13.7-4.5&#10;&#9;&#9;&#9;&#9;s-2.8-10.6,4.8-11.5s18,2.7,17.8,10.1l23.6-12.7l-27.2-15.8c0,0-3.9,11.6-18.4,8.5s-8.5-13.4,10-14L251.9,229.1z"/>
		</g>
	</g>
	<path class="st8_creative-process-7 targetColor" d="M255,210.3l-23.1,14c0,0-4.6,0.8-5.6-3.4s-10.3-9.2-17-5.5s-0.6,9.1,6.6,9.9s6.6,2.5,5,4.3&#10;&#9;&#9;s-20.7,12.7-20.7,12.7l23,13.7c0,0,4.2,1.7,2.5,3.9s-6.4-3.2-11.6,2.1s5.3,10.1,11.6,9.2s6.7-3.4,6.7-5.3s1.8-2.8,3.6-2&#10;&#9;&#9;s27.7,15,27.7,15l21.5-13c0,0-9.8,0.6-13.7-4.5s-2.8-10.6,4.8-11.5s18.1,2.6,17.8,10.1l23.6-12.7l-27.1-15.8c0,0-3.9,11.6-18.4,8.5&#10;&#9;&#9;s-8.5-13.4,10-13.9L255,210.3z" style="fill: rgb(104, 225, 253);"/>
	<path class="st8_creative-process-7 targetColor" d="M206.4,204.5v14.6c0,0,2.7,3.3,8.9,2.7s8.7-9.4,8.7-9.4" style="fill: rgb(104, 225, 253);"/>
	<path class="st8_creative-process-7 targetColor" d="M200.2,228v14.5l13.5,6.5l-1,2.4l-0.1,14c0,0,7.1,1.6,10.6,0s5-6.9,8.6-7.3s39.7,10.6,39.7,10.6l13.7-2.6&#10;&#9;&#9;v-14.4c0,0-18.4,8.7-24.7,0.2" style="fill: rgb(104, 225, 253);"/>
	<path class="st8_creative-process-7 targetColor" d="M317.7,247.5V233l-35.5-6.7v-14.5c0,0-11.5-0.3-11.7-0.2s-15.8,4-8.6,13.2s-4.4,17.7,6.1,19.3" style="fill: rgb(104, 225, 253);"/>
	<g class="st9_creative-process-7">
		<path class="st10_creative-process-7" d="M255,210.3l-23.1,14c0,0-4.6,0.8-5.6-3.4s-10.3-9.2-17-5.5s-0.6,9.1,6.6,9.9s6.6,2.5,5,4.3&#10;&#9;&#9;&#9;s-20.7,12.7-20.7,12.7l23,13.7c0,0,4.2,1.7,2.5,3.9s-6.4-3.2-11.6,2.1s5.3,10.1,11.6,9.2s6.7-3.4,6.7-5.3s1.8-2.8,3.6-2&#10;&#9;&#9;&#9;s27.7,15,27.7,15l21.5-13c0,0-9.8,0.6-13.7-4.5s-2.8-10.6,4.8-11.5s18.1,2.6,17.8,10.1l23.6-12.7l-27.1-15.8&#10;&#9;&#9;&#9;c0,0-3.9,11.6-18.4,8.5s-8.5-13.4,10-13.9L255,210.3z"/>
		<path class="st10_creative-process-7" d="M206.4,204.5v14.6c0,0,2.7,3.3,8.9,2.7s8.7-9.4,8.7-9.4"/>
		<path class="st10_creative-process-7" d="M200.2,228v14.5l13.5,6.5l-1,2.4l-0.1,14c0,0,7.1,1.6,10.6,0s5-6.9,8.6-7.3s39.7,10.6,39.7,10.6l13.7-2.6&#10;&#9;&#9;&#9;v-14.4c0,0-18.4,8.7-24.7,0.2"/>
		<path class="st10_creative-process-7" d="M317.7,247.5V233l-35.5-6.7v-14.5c0,0-11.5-0.3-11.7-0.2s-15.8,4-8.6,13.2s-4.4,17.7,6.1,19.3"/>
	</g>
	<path class="st8_creative-process-7 targetColor" d="M255,195.8l-23.1,14c0,0-4.6,0.8-5.6-3.4s-10.4-9.2-17.1-5.5s-0.6,9.1,6.6,9.9s6.6,2.5,5,4.3&#10;&#9;&#9;s-20.7,12.7-20.7,12.7l22.9,13.7c0,0,4.2,1.7,2.5,3.9s-6.4-3.2-11.6,2.1s5.3,10.1,11.6,9.2s6.7-3.4,6.7-5.3s1.8-2.8,3.6-2&#10;&#9;&#9;s27.7,15,27.7,15l21.6-13c0,0-9.8,0.6-13.7-4.5s-2.8-10.6,4.8-11.5s18.1,2.6,17.8,10.1l23.6-12.7l-27.1-15.8c0,0-3.9,11.6-18.4,8.5&#10;&#9;&#9;s-8.5-13.4,10-14L255,195.8z" style="fill: rgb(104, 225, 253);"/>
</g>
<g id="person_creative-process-7">
	
		<linearGradient id="SVGID_00000133499802270532920520000007748561542204415140_-creative-process-7" gradientUnits="userSpaceOnUse" x1="136.4486" y1="-688.1751" x2="91.8486" y2="-610.1251" gradientTransform="matrix(1 0 0 1 0 896.12)">
		<stop offset="0" style="stop-color:#653200"/>
		<stop offset="1" style="stop-color:#EF8989;stop-opacity:0"/>
	</linearGradient>
	<path style="fill:url(#SVGID_00000133499802270532920520000007748561542204415140_);" d="M117.6,313l69-43.5l-96.2-54.3l-67.9,42.9&#10;&#9;&#9;C27.7,260.7,112.2,310.8,117.6,313z"/>
	<path class="st3_creative-process-7" d="M140.8,257l-1.7-1.3l1.5-20l8.8,0.3c0,0-0.4,8.6,1.4,10.6s7.2,1.1,7.7,1.3s4-0.6,5.5,1.2s-5.7,5.8-9.4,6.4&#10;&#9;&#9;c-2.5,0.3-5.1,0.2-7.6-0.2c0,0-0.4-5.2-1.7-4.8s-1.8,5.8-1.8,5.8L140.8,257z"/>
	<path class="st12_creative-process-7" d="M137.1,194c-0.7,20.9-1.5,48.2-1.5,48.2s4.8,6.5,17.8,3.7c1.4-0.3,4.5-33.7,6-51&#10;&#9;&#9;C152.1,193,144.5,192.6,137.1,194z"/>
	<path class="st3_creative-process-7" d="M163.7,274.1l-1.7-1.3l1.5-20l8.8,0.3c0,0-0.4,8.6,1.4,10.6s7.2,1.1,7.7,1.3s4-0.5,5.5,1.2s-5.7,5.8-9.4,6.4&#10;&#9;&#9;c-2.5,0.3-5.1,0.2-7.6-0.3c0,0-0.4-5.2-1.7-4.8s-1.8,5.8-1.8,5.8L163.7,274.1z"/>
	<path class="st12_creative-process-7" d="M167.5,197.8c-5.8-2.6-12-4.2-18.4-4.6c1.1,7.8,2.1,13.3,2.2,13.7c0.4,1,8.5,50.7,8.5,50.7&#10;&#9;&#9;c9.5,3.8,20.8,0.7,20.8,0.7s-3.9-38.8-4.2-45.3c0-0.7,0-1.4-0.1-2.1C176.1,205.2,172.7,200.1,167.5,197.8z"/>
	<path class="st12_creative-process-7" d="M109,209.3c0,0,16.1-14.6,28.1-15.4s29.1,11.7,27.8,18.9s-24.3,22.8-24.3,22.8"/>
	<path class="st10_creative-process-7" d="M142,183.3l-12.8-9.1c-1.1-0.7-1.5-2.2-0.9-3.4l9.1-20.2c0.6-1.4,2.2-2,3.6-1.4c0.1,0.1,0.2,0.1,0.3,0.2&#10;&#9;&#9;l14.4,8.9c1.2,0.7,1.7,2.3,1,3.6L146,182.3c-0.7,1.3-2.3,1.8-3.7,1.2L142,183.3z"/>
	<path class="st13_creative-process-7" d="M140.8,182.6l-12.8-9.1c-1.1-0.8-1.4-2.2-0.9-3.3l9.1-20.2c0.6-1.4,2.2-2,3.6-1.4c0,0,0,0,0,0l0.3,0.2&#10;&#9;&#9;l14.4,8.9c1.2,0.7,1.7,2.3,1,3.6l-10.6,20.4c-0.7,1.3-2.3,1.9-3.7,1.2c0,0,0,0,0,0L140.8,182.6z"/>
	<polygon class="st10_creative-process-7" points="142.9,181.3 128.5,171.1 138,150 154,160 &#9;"/>
	<path class="st4_creative-process-7" d="M136.3,159c-4.8,2.6-12.3,5.6-17.3,9.1c-0.8,0.6-2,2.5-1.2,2.2c-0.3,0.4,2.9,1.7,2.6,2.1&#10;&#9;&#9;c-0.1,0.1,2.1-1.1,2.2-1l0,0c1.9,1,4.1,1.3,6.2,0.7l0.8-0.6l0,0l0.2-0.1c0-0.1,0.1-0.1,0.1-0.1l0.1-0.1c0-0.1,0.1-0.2,0.2-0.3&#10;&#9;&#9;c1.1-0.9,3.5-1.3,3.8-2.8c0-0.4-0.2-0.8-0.4-1.1c-0.1-0.2-0.1-0.4,0.1-0.6c0.2-0.9,0-1.8-0.5-2.6v-0.1l0.3-0.3&#10;&#9;&#9;c1.3-0.9,2.5-1.9,3.7-3c0.1-0.1,0.2-0.3,0.2-0.4c0-0.1,0-0.2,0-0.2c-0.1-0.5-0.5-0.8-1-0.8C136.5,159,136.4,159,136.3,159z"/>
	<path class="st3_creative-process-7" d="M133.8,164.1c-0.4-0.9-0.9-1-1.7-0.6c-1.7,0.7-3.3,1.7-4.8,2.7c-0.2,0.2,0,0.6,0.3,0.4c0.9-0.6,5-3.6,5.8-2.3&#10;&#9;&#9;s-1.9,2.2-2.6,2.6l-2.9,1.5c-0.3,0.1,0,0.6,0.3,0.4l1.8-1c0,0,0,0.1,0,0.1c0.2,0.2,0.3,0.4,0.6,0.6c-0.3,0.5-0.4,1.1-0.2,1.6&#10;&#9;&#9;l0.1,0.1c-1.7,1.7-4.3,2.1-6.3,0.9c-0.2-0.2-0.6,0.1-0.3,0.3c1.9,1.4,5.8,1,7.1-1.1c0.3,0,0.6-0.1,0.9-0.3c0.8-0.3,1.6-0.8,2.2-1.4&#10;&#9;&#9;c0.4-0.6,0.4-1.3,0-1.9v-0.1c0.5-0.5,0.5-1.2,0-1.7l0,0C133.9,164.8,133.9,164.5,133.8,164.1z M133.6,168.4c-0.3,0.4-0.7,0.8-1.2,1&#10;&#9;&#9;c-0.3,0.2-1.1,0.7-1.4,0.6c-0.6-0.2-0.2-1,0-1.3l0,0c0.3-0.1,0.7-0.3,0.9-0.6l1.1-0.7l0.4-0.3C133.7,167.5,133.8,168,133.6,168.4&#10;&#9;&#9;L133.6,168.4z M132.2,167.5c-0.7,0.4-1.2,0.9-1.8,0.2c0.9-0.5,1.9-0.9,2.7-1.5c0.3-0.2,0.5-0.4,0.7-0.6&#10;&#9;&#9;C134.2,166.6,132.7,167.3,132.2,167.5L132.2,167.5z"/>
	<path class="st14_creative-process-7" d="M122,164.4c0,0,3.2,0.7,3.5,7.5l-2.4,6l-13.1-6.8C109.9,171.1,113,167.2,122,164.4z"/>
	<path class="st4_creative-process-7" d="M153.1,167.6c-1,2.2-1.9,4.1-2.8,6.3c-0.6-1.4-1.2-2.7-1.9-4.1c0-0.1-0.1-0.1-0.1-0.1c-0.3-0.5-1-0.7-1.5-0.4&#10;&#9;&#9;c-0.4,0.2-0.6,0.7-0.5,1.1c0.2,1.3,0.7,2.6,1.5,3.7c-0.1,0.1-0.2,0.1-0.3,0.2c-1.9,2.1-1.4,5.3-1.2,7.9c0,0.6,0.5,1,1.1,0.9&#10;&#9;&#9;c0,0,0,0,0,0c0.2,0,0.3-0.1,0.4-0.1c0.2,0,0.4,0,0.5-0.1c1.7-1.2,2.9-2.9,3.4-4.9C152.8,174.7,154.2,171.1,153.1,167.6z"/>
	<path class="st14_creative-process-7" d="M104.1,167.4l4.8-1.4c1.2,0.2,11.4,4.4,15.7,11.7c0.5,2.2,0.8,4.5,1,6.8c0.4,3.1,0.7,6.1,0.9,9.2&#10;&#9;&#9;c0.2,3.3,0.1,6.7-0.2,10c-0.1,1.4-0.2,2.1-0.5,3.6c-0.6,0.5-1.2,0.9-1.9,1.1c-14.2,4.9-24.7-3.1-25.1-4.2s-1.1-17.6-1.4-27.4&#10;&#9;&#9;C97.2,172.5,100,168.7,104.1,167.4z"/>
	<path class="st4_creative-process-7" d="M116.6,150.5c0,0,3.2,16.1-2.7,17.8s-12.9-5-13.4-8.3S108.3,145.1,116.6,150.5z"/>
	<path class="st3_creative-process-7" d="M114.3,157c0.2-0.3,3.6-1.2,4.3-4s-1.9-6.6-7.8-7.2s-15.8,2.6-14.3,18.3s17.2,8.9,18.3,3.9&#10;&#9;&#9;C115.3,164.3,115.2,160.6,114.3,157z"/>
	<path class="st3_creative-process-7" d="M114.3,157c0,0,1,5.3,3.2,7.6s3.9,6.5,1.2,9.6s0,4.9,3.7,8s1.4,15.4-12.1,12.4s-19.9-11.2-19.9-11.2&#10;&#9;&#9;s3.5-24.3,7.2-30"/>
	<path class="st14_creative-process-7" d="M124.6,177.9c0,0,3.1,10.3,6.1,10.6c3.1,0.3,7.7-4.2,11-10.1c4.7-0.5,8.9,3,9.4,7.7c0,0,0,0,0,0&#10;&#9;&#9;c0,0.2,0,0.3,0,0.5c0,0-10.8,21.8-26.5,16.5"/>
	<path class="st8_creative-process-7 targetColor" d="M68.2,256.1c-9.7-12-14.1-27.4-13.9-42.9c0.1-12.5,5-24.5,13.7-33.4c8-8.2,20-12.2,30.7-6.7&#10;&#9;&#9;c8.8,4.6,13.1,13.4,16.2,22.4c3.7,10.8,4.9,24.7,18.1,28c5.1,1.3,10.5,0.4,15.8,0c9.2-0.6,18.9,2.4,21.7,12.1&#10;&#9;&#9;c5.1,17.5-18.4,32.5-31.7,38.1c-23.1,9.9-50.8,3.6-67.8-14.7C69.9,258.2,69,257.2,68.2,256.1z" style="fill: rgb(104, 225, 253);"/>
	<path class="st15_creative-process-7" d="M169.9,236.1c-9.4,16.9-39.9,24.6-56.5,23.7c-15.1-0.8-24.6-10-23.6-25.3c0.6-8.4,3.2-16.8,2.5-25.2&#10;&#9;&#9;c-1.3-14.4-15-26.2-28.9-23.4c-6,8.2-9.2,18.1-9.3,28.3c-0.2,15.4,4.2,30.8,13.9,42.8c0.8,1.1,1.8,2.1,2.7,3.1&#10;&#9;&#9;c16.9,18.4,44.8,24.5,67.7,14.7c13.3-5.6,36.8-20.6,31.7-38.1C170.1,236.6,170,236.3,169.9,236.1z"/>
</g>
<g id="puzzle2_creative-process-7">
	<path class="st8_creative-process-7 targetColor" d="M240,120.8l-16.4,9.9c0,0-3.3,0.6-4-2.4s-7.3-6.6-12.1-3.9s-0.4,6.5,4.7,7.1s4.6,1.8,3.6,3.1s-14.7,9-14.7,9&#10;&#9;&#9;l16.3,9.8c0,0,3,1.2,1.8,2.8s-4.6-2.3-8.2,1.5s3.8,7.1,8.2,6.6s4.8-2.4,4.8-3.8s1.3-2,2.6-1.4s19.6,10.6,19.6,10.6l15.3-9.2&#10;&#9;&#9;c0,0-6.9,0.4-9.7-3.2s-2-7.5,3.4-8.1c5.4-0.6,12.8,1.9,12.6,7.1l16.8-9L265.1,136c0,0-2.8,8.2-13,6.1s-6-9.5,7.1-9.9L240,120.8z" style="fill: rgb(104, 225, 253);"/>
	<path class="st8_creative-process-7 targetColor" d="M205.4,116.7V127c0,0,1.9,2.4,6.3,1.9s6.2-6.7,6.2-6.7" style="fill: rgb(104, 225, 253);"/>
	<path class="st8_creative-process-7 targetColor" d="M201.1,133.3v10.3l9.6,4.7L210,150v9.9c0,0,5,1.1,7.5,0s3.6-4.9,6.1-5.2s28.1,7.5,28.1,7.5l9.7-1.8v-10.3&#10;&#9;&#9;c0,0-13,6.2-17.5,0.1" style="fill: rgb(104, 225, 253);"/>
	<path class="st8_creative-process-7 targetColor" d="M284.4,147.2v-10.3l-25.2-4.8v-10.2c0,0-8.2-0.2-8.3-0.2s-11.2,2.8-6.1,9.4c5.1,6.6-3.1,12.5,4.2,13.7" style="fill: rgb(104, 225, 253);"/>
	<g class="st9_creative-process-7">
		<path class="st10_creative-process-7" d="M240,120.8l-16.4,9.9c0,0-3.3,0.6-4-2.4s-7.3-6.6-12.1-3.9s-0.4,6.5,4.7,7.1s4.6,1.8,3.6,3.1s-14.7,9-14.7,9&#10;&#9;&#9;&#9;l16.3,9.8c0,0,3,1.2,1.8,2.8s-4.6-2.3-8.2,1.5s3.8,7.1,8.2,6.6s4.8-2.4,4.8-3.8s1.3-2,2.6-1.4s19.6,10.6,19.6,10.6l15.3-9.2&#10;&#9;&#9;&#9;c0,0-6.9,0.4-9.7-3.2s-2-7.5,3.4-8.1c5.4-0.6,12.8,1.9,12.6,7.1l16.8-9L265.1,136c0,0-2.8,8.2-13,6.1s-6-9.5,7.1-9.9L240,120.8z"/>
		<path class="st10_creative-process-7" d="M205.4,116.7V127c0,0,1.9,2.4,6.3,1.9s6.2-6.7,6.2-6.7"/>
		<path class="st10_creative-process-7" d="M201.1,133.3v10.3l9.6,4.7L210,150v9.9c0,0,5,1.1,7.5,0s3.6-4.9,6.1-5.2s28.1,7.5,28.1,7.5l9.7-1.8v-10.3&#10;&#9;&#9;&#9;c0,0-13,6.2-17.5,0.1"/>
		<path class="st10_creative-process-7" d="M284.4,147.2v-10.3l-25.2-4.8v-10.2c0,0-8.2-0.2-8.3-0.2s-11.2,2.8-6.1,9.4c5.1,6.6-3.1,12.5,4.2,13.7"/>
	</g>
	<path class="st8_creative-process-7 targetColor" d="M240,110.5l-16.4,9.9c0,0-3.3,0.6-4-2.4s-7.4-6.5-12.1-3.8s-0.4,6.4,4.6,7.1s4.7,1.8,3.6,3.1s-14.7,9-14.7,9&#10;&#9;&#9;l16.3,9.7c0,0,3,1.2,1.8,2.8s-4.6-2.3-8.2,1.5s3.8,7.1,8.2,6.6s4.8-2.4,4.8-3.8s1.3-2,2.6-1.4s19.6,10.6,19.6,10.6l15.3-9.2&#10;&#9;&#9;c0,0-6.9,0.4-9.7-3.2s-2-7.5,3.4-8.1c5.4-0.6,12.8,1.9,12.6,7.1l16.8-9.1l-19.2-11.2c0,0-2.8,8.2-13,6.1s-6-9.5,7-9.9L240,110.5z" style="fill: rgb(104, 225, 253);"/>
</g>
</svg>