<svg version="1.1" id="Layer_1" xmlns="http://www.w3.org/2000/svg" xmlns:xlink="http://www.w3.org/1999/xlink" x="0px" y="0px" viewBox="0 0 500 500" style="width: 144px;" xml:space="preserve" data-imageid="team-meeting-68" imageName="Team Meeting" class="illustrations_image">
<style type="text/css">
	.st0_team-meeting-68{fill:#FECAB5;}
	.st1_team-meeting-68{fill:url(#SVGID_1_);}
	.st2_team-meeting-68{fill:url(#SVGID_00000054956750930772684580000013134653639163772557_);}
	.st3_team-meeting-68{fill:url(#SVGID_00000050621119839060530550000004261193862147419821_);}
	.st4_team-meeting-68{fill:#8EA3FF;}
	.st5_team-meeting-68{fill:#68E1FD;}
	.st6_team-meeting-68{opacity:0.1;fill:#050C29;enable-background:new    ;}
	.st7_team-meeting-68{opacity:0.5;fill:#050C29;enable-background:new    ;}
	.st8_team-meeting-68{fill:#050C29;}
	.st9_team-meeting-68{fill:#FF475A;}
	.st10_team-meeting-68{fill:#E88815;}
	.st11_team-meeting-68{fill:#003F99;}
	.st12_team-meeting-68{fill:url(#Shadow_2_00000028295831902024662710000016608825223180761255_);}
	.st13_team-meeting-68{fill:#974C26;}
	.st14_team-meeting-68{fill:#999A1C;}
</style>
<ellipse id="Base_team-meeting-68" class="st0_team-meeting-68" cx="251.2" cy="298.3" rx="210.3" ry="89.2"/>
<g id="Shadow_1_team-meeting-68">
	
		<linearGradient id="SVGID_1_-team-meeting-68" gradientUnits="userSpaceOnUse" x1="384.5281" y1="792.1778" x2="350.4181" y2="827.1378" gradientTransform="matrix(1 0 0 1 0 -498)">
		<stop offset="1.000000e-02" style="stop-color:#974C26"/>
		<stop offset="1" style="stop-color:#FECAB5"/>
	</linearGradient>
	<path class="st1_team-meeting-68" d="M377.3,279.5c-21.7,12.7-37.3,21.2-70.7,40.3c25.3,15.4,44.9,29.5,47.8,31.2l68.4-41.8&#10;&#9;&#9;C416.9,306.1,404.4,292.9,377.3,279.5z"/>
	
		<linearGradient id="SVGID_00000181076729895979844770000000666076076585049492_-team-meeting-68" gradientUnits="userSpaceOnUse" x1="267.5078" y1="808.7718" x2="228.1678" y2="878.3818" gradientTransform="matrix(1 0 0 1 0 -498)">
		<stop offset="1.000000e-02" style="stop-color:#974C26"/>
		<stop offset="1" style="stop-color:#FECAB5"/>
	</linearGradient>
	<path style="fill:url(#SVGID_00000181076729895979844770000000666076076585049492_);" d="M150.7,376.1&#10;&#9;&#9;c40.1,11.1,81.8,10.6,123.1,10.5l47.6-29.3c-5.8-3.1-44.5-14.1-71.6-27.5c-21.4,12.5-66.2,27.6-99.4,46.3&#10;&#9;&#9;C150.5,376.1,150.6,376.1,150.7,376.1z"/>
	
		<linearGradient id="SVGID_00000044875427299281854800000012881895104023891888_-team-meeting-68" gradientUnits="userSpaceOnUse" x1="124.4844" y1="761.7572" x2="98.6244" y2="821.4172" gradientTransform="matrix(1 0 0 1 0 -498)">
		<stop offset="1.000000e-02" style="stop-color:#974C26"/>
		<stop offset="1" style="stop-color:#FECAB5"/>
	</linearGradient>
	<path style="fill:url(#SVGID_00000044875427299281854800000012881895104023891888_);" d="M55.6,331.9c4,5.5,8.7,10.9,14.5,14.5&#10;&#9;&#9;c3.9,2.3,8,4.2,12.2,5.9l95-55.8c-7.6-4-32.8-18.2-68-35.7c-22.3,13-39.6,22.6-67.1,38.2C43.9,310.9,48.4,322.2,55.6,331.9z"/>
</g>
<path id="Chair_2_team-meeting-68" class="st4_team-meeting-68" d="M205,201.1c-0.4-6,0.9-12.3,1.6-18.2c1-9.3,2.9-18.4,5.5-27.3c5.6-17.9,17.5-37.8,40.6-36.9&#10;&#9;c47.5,1.9,49.6,78.1,49.5,87.9s-19.4,34.9-56.8,32.8c-11.2-0.6-20.9-7.5-28.1-15c-4.4-4.7-8.7-9.9-10.9-15.8&#10;&#9;C205.6,206.1,205.1,203.6,205,201.1z"/>
<g id="Chair_3_team-meeting-68">
	<path id="Chair_team-meeting-68" class="st5_team-meeting-68 targetColor" d="M343.5,297.9c0,0,7.6,20,52.3,20c57.4,0,68.9-88.9,31.9-121c-1.6-1.4-3.4-2.7-5.2-3.9&#10;&#9;&#9;c-7.9-5.2-17.5-6.9-26.7-4.7c-31.5,7.2-14.5,40.1-28.5,51S323.9,259.2,343.5,297.9z" style="fill: rgb(104, 225, 253);"/>
	<path class="st6_team-meeting-68" d="M391.3,203.8c0,0,23.8-3.7,26.6,23.1s-6.4,44.6-21,47.5s-38.7-15.1-32.7-28.1S391.3,203.8,391.3,203.8z"/>
</g>
<g id="Chair_1_team-meeting-68">
	<path class="st4_team-meeting-68" d="M150.7,287.3c0,0-7.6,20-52.3,20c-57.3,0-68.9-88.9-31.9-121c1.6-1.4,3.4-2.7,5.2-3.9&#10;&#9;&#9;c7.9-5.2,17.5-6.9,26.7-4.7c31.5,7.2,14.5,40.1,28.5,51S170.3,248.6,150.7,287.3z"/>
	<path class="st7_team-meeting-68" d="M102.9,193.2c0,0-23.8-3.7-26.7,23.1s6.4,44.6,21,47.5s38.7-15.1,32.7-28.1S102.9,193.2,102.9,193.2z"/>
</g>
<g id="Character_3_team-meeting-68">
	<path class="st8_team-meeting-68" d="M381,326.8c-0.2,0.3-2,6.5-2.8,8.2s-3,10.7,2.8,12.4s8.4-8.4,8.7-11.9c0.2-3.2,0.2-6.4,0-9.6"/>
	<path class="st8_team-meeting-68" d="M331.1,298.8c-0.3,0.9-0.7,1.7-1.3,2.4c-0.6,0.5-7.8,2.9-9.4,3.8s-3.7,3.3-3.4,5.5s22.2-0.9,25.8-3.6&#10;&#9;&#9;c0,0,0.8-2.4-0.9-8.7S331.1,298.8,331.1,298.8z"/>
	<path class="st9_team-meeting-68" d="M377.3,243.9c0,0-34.3-0.9-43.4,5.7s-5.7,47.8-4.3,49.5s12.6,0.7,13.9-1.1l0.3-33.8c0,0,34-2,35.6-2.2&#10;&#9;&#9;s2,4,1,4.9s-3.9,6.2-4,9s2.4,51.4,2.4,51.4s9.1,3.6,13.4-1.7c0,0,1.3-29.4,0.5-38.5c0,0,13.1-17.4,14.9-26.2&#10;&#9;&#9;c1.1-5.4,0.7-11.1-1-16.3"/>
	<path class="st10_team-meeting-68" d="M380,243.8c0,0-4.6-38.9-0.5-43.5s15.8-1.4,20.7,1.7s11.2,5.2,13.3,13.4c2.6,10.1-8,32.8-10.7,34.2&#10;&#9;&#9;S387.8,253.1,380,243.8z"/>
	<path class="st10_team-meeting-68" d="M390.9,198.5c0,0-8.9-7.8-14.2,0s-4.9,16.5-7.1,21.1c-2.4,4.9-13.6,26.1-13.6,26.1s7.7,1.5,9.5,6.2&#10;&#9;&#9;c0,0,14.7-21.9,16.8-28.4"/>
	<path class="st10_team-meeting-68" d="M395.7,199.3c0,0,15.4,6.7,17.7,16.1c1.6,6.5-2.9,31.3-5.1,33.4s-18.5,13.5-20.9,13.5c0,0-2.4-6.1-7.5-6.2&#10;&#9;&#9;c0,0,18.3-12,18.2-13.8s4.6-20.2,4.6-20.2"/>
	<path class="st8_team-meeting-68" d="M379.7,193.8c-1.9-1.2-2.8-3.5-2.5-5.7c0.5-4.1,9.1-12.7,18.3-9.1s5.6,15.2,4,18.2s-4.9,5.1-5.3,5&#10;&#9;&#9;s-5.3-2.3-5.3-2.3"/>
	<path class="st0_team-meeting-68" d="M379.8,192.4c-0.2-0.2-0.6,12.4,4.4,14.9s10.3-6,10.3-6s2.6-2.6,1-3.9s-2.7,0.9-2.7,0.9s-0.9,1.5-1.5,1.5&#10;&#9;&#9;s0.5-4.1-1.4-5.4S382.6,195,379.8,192.4z"/>
	<polygon class="st8_team-meeting-68" points="362.1,279.5 386.7,266 352.5,246.7 330.9,260.8 &#9;"/>
	<polygon class="st11_team-meeting-68" points="325.1,239.2 360.1,259.3 362.1,279.5 330.9,260.8 &#9;"/>
	<path class="st0_team-meeting-68" d="M382.9,254.2c-1.2,1.2-2.5,2.2-3.9,3.1c-1,0.2-6.6,1.7-7.6,2.3s-4.4,5.6-4.1,6.2s2.5-0.6,4.4-3.1&#10;&#9;&#9;c-0.4,0.5-3.4,4.3-3,4.9s2.4-0.1,5-3.4c0,0-3,3.7-2.6,4.3s4.1-3.1,4.5-3.1s-1.9,2.1-1.4,2.9s3.8-2.1,4.6-2.8s2.7-0.1,5.4-1.9&#10;&#9;&#9;c1.4-1.1,2.7-2.5,3.7-3.9C387.1,257.1,385.5,254.9,382.9,254.2z"/>
	<path class="st0_team-meeting-68" d="M362,246.3L362,246.3c-1.5-1.1-3.4-1.8-5.3-1.8c-1.6,2.4-3.2,5-3.5,5.5c-0.4,1-0.8,4.8-0.4,5&#10;&#9;&#9;c0.4,0.1,0.9,0.1,1.3-0.1c0,0-0.1,1,0.7,1s0.9-0.4,0.9-0.4s0.3,1.4,1,1.6c0.5,0.1,0.9,0.2,1.4,0.1c0,0,0.8,1.7,1.6,1.5&#10;&#9;&#9;s0.1-3.7,0-4.4s0.4-3.5,1.3-3.6s1.2,2.1,1.4,3s-0.1,3.8,0.8,3.9s0.9-0.7,1-1.9s0.5-5.4-0.4-6.5S362.2,246.4,362,246.3z"/>
</g>
<g id="Character_2_team-meeting-68">
	<path id="Chair-2_team-meeting-68" class="st10_team-meeting-68" d="M233.7,196.8c0,0-7.7-39.3-1.3-44.2c13.7-10.5,35.1-7.1,40,1.2S271,198,271,198&#10;&#9;&#9;S243,202.1,233.7,196.8z"/>
	<path class="st0_team-meeting-68" d="M241.2,131.2c0,0,0.3,16.4,8.3,17.2s11.3-8.7,10.9-15.1S245.2,124.7,241.2,131.2z"/>
	<path class="st8_team-meeting-68" d="M263.4,126.2c-3.3-6.3-15.8-9.2-22.1-2c-4.8,5.5-6.2,22.2-2.2,23.4c3.1,0.9,6.4-0.4,7.6-0.9&#10;&#9;&#9;c-2.8-4-4.1-8.9-3.5-13.8c0.1-0.5,0.5-0.9,1-0.8c0.1,0,0.3,0.1,0.4,0.1h6.5l1.4-3.5l0.2,3.5h4l1.4-2.3c0,0,1.1,5.4,1.7,9&#10;&#9;&#9;s-2.2,7.5-2.2,7.5s5.8,1.6,7.4,1.1S266.7,132.5,263.4,126.2z"/>
	<path class="st10_team-meeting-68" d="M232.4,152.6c-3.2,2.9-5.4,6.7-6.1,11c-0.9,6.8,3.6,25.9,3.6,25.9h12.9l-1.6-23.5"/>
	<path class="st8_team-meeting-68" d="M239.2,163.3c-0.1-0.8-1.3-0.8-1.2,0c0.6,5.6,1.3,11.2,2.2,16.8c0.1,0.8,1.3,0.4,1.2-0.3&#10;&#9;&#9;C240.5,174.3,239.8,168.8,239.2,163.3z"/>
	<path class="st8_team-meeting-68" d="M264.5,164.3c0-0.3-0.4-0.6-0.7-0.5c-0.3,0-0.5,0.3-0.5,0.5c0.2,5.9-0.2,11.8-1,17.7c-0.1,0.8,1.1,1.1,1.2,0.3&#10;&#9;&#9;C264.3,176.3,264.7,170.3,264.5,164.3z"/>
	<polygon class="st11_team-meeting-68" points="222.1,177.3 280.2,177.3 273.6,207.7 227.3,207.7 &#9;"/>
	<path class="st8_team-meeting-68" d="M227.3,207.7c0,0-4.6,10.8-3.8,16.6c0.8,5.9,6.1,28.8,12.8,32.4s29.4,3.6,32,1.3s10-31.1,9.6-36&#10;&#9;&#9;s-4.3-14.3-4.3-14.3"/>
</g>
<g id="Character_1_team-meeting-68">
	<path class="st8_team-meeting-68" d="M113.2,316.2c0.2,0.3,2,6.5,2.8,8.2s3,10.7-2.8,12.4s-8.4-8.4-8.7-11.9c-0.2-3.2-0.2-6.4,0-9.6"/>
	<path class="st8_team-meeting-68" d="M163.1,288.2c0.3,0.9,0.7,1.7,1.3,2.4c0.6,0.5,7.8,2.9,9.4,3.8s3.7,3.3,3.4,5.5s-22.2-0.9-25.8-3.6&#10;&#9;&#9;c0,0-0.8-2.4,0.9-8.7S163.1,288.2,163.1,288.2z"/>
	<path class="st9_team-meeting-68" d="M116.9,233.3c0,0,34.3-0.9,43.4,5.7s7.6,47.2,6.1,48.9s-18.1,1.6-19.4-0.2l3.4-34.1c0,0-34-2-35.6-2.2&#10;&#9;&#9;s-2,4-1,4.9c1,0.9,3.9,6.2,4,9s-0.7,51.5-0.7,51.5s-13.9,3.9-18.2-1.4c0,0,0.5-33.1,1.2-42.2c0,0-11.8-14-13.5-22.9&#10;&#9;&#9;c-1.1-5.4-0.7-11.1,1-16.3"/>
	<path class="st5_team-meeting-68 targetColor" d="M114.2,233.2c0,0,4.6-38.9,0.5-43.5s-15.8-1.4-20.7,1.7s-11.2,5.2-13.3,13.4c-2.6,10,8,32.8,10.7,34.2&#10;&#9;&#9;S106.4,242.5,114.2,233.2z" style="fill: rgb(104, 225, 253);"/>
	<path class="st5_team-meeting-68 targetColor" d="M103.3,187.9c0,0,8.9-7.8,14.2,0s4.9,16.5,7.2,21.1c2.4,4.9,13.6,26.1,13.6,26.1s-7.7,1.5-9.5,6.2&#10;&#9;&#9;c0,0-14.7-21.9-16.8-28.4" style="fill: rgb(104, 225, 253);"/>
	<path class="st5_team-meeting-68 targetColor" d="M98.5,188.7c0,0-15.4,6.7-17.7,16.1c-1.6,6.5,2.9,31.3,5.1,33.3s18.5,13.5,20.9,13.5c0,0,2.4-6.1,7.6-6.2&#10;&#9;&#9;c0,0-18.3-12-18.2-13.8s-4.6-20.2-4.6-20.2" style="fill: rgb(104, 225, 253);"/>
	<path class="st8_team-meeting-68" d="M116.4,174.8c1.1-1.8,0.4-4.2-1.4-5.2c-0.3-0.2-0.7-0.3-1.1-0.4c-1-0.3-2.1-0.2-3.1,0.1&#10;&#9;&#9;c-2-2.1-5.4-2.2-7.5-0.2c-0.1,0.1-0.1,0.1-0.2,0.2c-0.6,0.6-1,1.4-1.3,2.2c-3-0.2-6,0.7-7.3,3.8c-1.7,4.3,0.4,9.1,2.5,12.9&#10;&#9;&#9;c1.4,2.5,5.3,1.9,6.1-0.8l0.3-1.2c1.3-0.4,2.4-1.3,2.9-2.6c0.1-0.3,0.2-0.6,0.3-0.9c0.2,0,0.4,0,0.7,0c0.1,0.1,0.1,0.1,0.2,0.2&#10;&#9;&#9;c0.4,1.4,1.7,2.5,3.2,2.5c2.9-0.2,5.9-0.8,7.4-3.6C119.4,179.5,118.7,176.4,116.4,174.8z"/>
	<path class="st0_team-meeting-68" d="M114.5,179.9c0.2-0.2,0.6,13.9-4.9,16.7S98,189.9,98,189.9s-2.9-3-1.2-4.4s3,1,3,1s1,1.7,1.7,1.7&#10;&#9;&#9;s-0.6-4.6,1.6-6.1S111.3,182.9,114.5,179.9z"/>
	<path class="st8_team-meeting-68" d="M105.9,191.7c-1.7,0.2-3.3-1-3.5-2.7s1-3.3,2.7-3.5s3.3,1,3.5,2.7c0,0.1,0,0.3,0,0.4&#10;&#9;&#9;C108.8,190.2,107.5,191.6,105.9,191.7z M105.9,185.7c-1.6-0.2-3.1,0.9-3.3,2.5s0.9,3.1,2.5,3.3s3.1-0.9,3.3-2.5c0-0.1,0-0.3,0-0.4&#10;&#9;&#9;C108.5,187.1,107.4,185.8,105.9,185.7L105.9,185.7z"/>
	<path class="st8_team-meeting-68" d="M112.6,190.6c-0.2,0-0.4,0-0.5-0.1c-1.4-0.4-2.1-2.1-1.6-3.8c0.2-0.8,0.7-1.5,1.3-2c0.9-0.8,2.3-0.7,3.1,0.2&#10;&#9;&#9;c0.2,0.2,0.3,0.5,0.4,0.7c0.3,0.8,0.4,1.6,0.1,2.4l0,0c-0.2,0.8-0.7,1.5-1.3,2C113.7,190.4,113.1,190.6,112.6,190.6z M113.2,184.4&#10;&#9;&#9;c-0.5,0-1,0.2-1.3,0.5c-0.6,0.5-1,1.1-1.2,1.9c-0.4,1.6,0.2,3.2,1.5,3.5c0.6,0.1,1.3,0,1.8-0.4c0.6-0.5,1-1.2,1.2-1.9l0,0&#10;&#9;&#9;c0.2-0.7,0.2-1.5-0.1-2.3c-0.2-0.6-0.7-1.1-1.3-1.2C113.5,184.5,113.4,184.4,113.2,184.4z"/>
	
		<rect x="102.3" y="187.1" transform="matrix(0.4371 -0.8994 0.8994 0.4371 -111.5413 197.9444)" class="st8_team-meeting-68" width="0.2" height="2"/>
	<polygon class="st8_team-meeting-68" points="108.6,188.7 108.5,188.4 110.4,188 110.5,188.2 &#9;"/>
	<polygon class="st8_team-meeting-68" points="132.1,268.9 107.5,255.4 141.8,236.1 163.3,250.2 &#9;"/>
	<polygon class="st11_team-meeting-68" points="169.1,228.6 134.1,248.7 132.1,268.9 163.3,250.2 &#9;"/>
	<path class="st0_team-meeting-68" d="M122.8,249c-1-0.6-6.6-2-7.6-2.3c-1.2-0.7-2.4-1.6-3.4-2.6c-1.6,1.9-3.2,3.9-4.8,5.9c0.9,1.1,1.9,2.1,3,3&#10;&#9;&#9;c2.7,1.8,4.7,1.2,5.4,1.9s4,3.6,4.6,2.8s-1.7-2.8-1.4-2.9s4,3.7,4.4,3.1s-2.6-4.3-2.6-4.3c2.7,3.3,4.6,4,5,3.4s-2.6-4.4-3-4.9&#10;&#9;&#9;c1.9,2.6,4.2,3.8,4.4,3.1S123.7,249.6,122.8,249z"/>
	<path class="st0_team-meeting-68" d="M132.2,235.8L132.2,235.8c1.5-1.1,3.4-1.8,5.3-1.8c1.3,1.8,2.4,3.6,3.5,5.5c0.4,1,0.8,4.8,0.4,5&#10;&#9;&#9;c-0.4,0.1-0.9,0.1-1.3-0.1c0,0,0.1,1-0.7,1s-0.9-0.4-0.9-0.4s-0.3,1.4-1,1.6c-0.5,0.1-0.9,0.2-1.4,0.1c0,0-0.8,1.7-1.6,1.5&#10;&#9;&#9;s-0.1-3.7,0-4.4s-0.4-3.5-1.3-3.6c-0.8-0.1-1.2,2.1-1.4,3s0.1,3.8-0.8,3.9s-0.9-0.7-1-1.9s-0.5-5.4,0.4-6.5S132,235.8,132.2,235.8z&#10;&#9;&#9;"/>
	<path class="st8_team-meeting-68" d="M111.8,243.3c-3.9-3.8-8-7.4-12.2-10.8c0.1-0.1,0.2-0.3,0.2-0.5c-0.4-6-0.6-12-0.7-17.9c0-0.4-0.3-0.7-0.7-0.7&#10;&#9;&#9;c-0.4,0-0.7,0.3-0.7,0.7c0.1,5.8,0.3,11.6,0.6,17.3l-1-0.8c-0.7-0.6-1.8,0.5-1,1c5,4,9.9,8.3,14.5,12.8&#10;&#9;&#9;C111.4,245,112.5,243.9,111.8,243.3z"/>
	<path class="st8_team-meeting-68" d="M117,200.1c0.1-1-1.4-1-1.5,0c-0.7,10.9-0.9,21.7-0.7,32.6c0,0.1,0,0.1,0,0.2v0.9c0,0.9,1.5,1,1.5,0&#10;&#9;&#9;C116,222.5,116.2,211.3,117,200.1z"/>
</g>
<g id="Table_team-meeting-68">
	<ellipse class="st10_team-meeting-68" cx="247.9" cy="267.4" rx="73.7" ry="35.5"/>
	<path class="st10_team-meeting-68" d="M203.9,281.1c-3.5,9.5-7,18.9-10.5,28.4c-5.2,14.2-10.5,28.5-15,42.9c-0.7,2.2-1.7,4.4-1.7,6.7&#10;&#9;&#9;c0,3.3,2.8,4.3,5.1,1.7c1.3-1.5,31.3-79.8,31.3-79.8h-9.2V281.1z"/>
	<path class="st10_team-meeting-68" d="M294.3,279.2c3.5,9.5,7,18.9,10.5,28.4c5.2,14.2,10.5,28.5,15,42.9c0.7,2.2,1.7,4.4,1.7,6.7&#10;&#9;&#9;c0,3.3-2.8,4.3-5.1,1.7c-1.3-1.5-31.2-79.8-31.2-79.8L294.3,279.2z"/>
	<path class="st10_team-meeting-68" d="M253.1,248.2c0.2,10.1,0.3,20.2,0.4,30.3c0.1,15.1,0.4,30.3-0.2,45.5c-0.1,2.3,0.1,4.8-0.6,6.9&#10;&#9;&#9;c-1.1,3.1-4.1,3.1-5.3-0.1c-0.7-1.8-2.7-85.6-2.7-85.6L253.1,248.2z"/>
</g>
<linearGradient id="Shadow_2_00000182525058514415366170000014512887788931360905_-team-meeting-68" gradientUnits="userSpaceOnUse" x1="246.2241" y1="760.8998" x2="214.6041" y2="779.7899" gradientTransform="matrix(1 0 0 1 0 -498)">
	<stop offset="0" style="stop-color:#974C26"/>
	<stop offset="1" style="stop-color:#E88815"/>
</linearGradient>
<path id="Shadow_2_team-meeting-68" style="fill:url(#Shadow_2_00000182525058514415366170000014512887788931360905_);" d="M238.3,251.6&#10;&#9;c-12.4,7.2-21.2,12-40.2,22.9c14.4,8.7,25.5,16.8,27.1,17.7l42.7-25.1C264.6,265.5,253.7,259.2,238.3,251.6z"/>
<g id="Plant_team-meeting-68">
	<ellipse class="st5_team-meeting-68 targetColor" cx="249.9" cy="257.7" rx="21.9" ry="15.4" style="fill: rgb(104, 225, 253);"/>
	<ellipse class="st13_team-meeting-68" cx="249.9" cy="248.6" rx="16.4" ry="6.7"/>
	<path class="st14_team-meeting-68" d="M249.2,237.4c0-3-0.1-6-0.3-9.1c-0.1-0.8-0.1-1.6-0.2-2.3c0-0.1-0.1-1.1-0.2-1.6s-0.2-1.6-0.2-1.6&#10;&#9;&#9;c-0.1-0.6-0.2-1.2-0.3-1.8c-1.8-10.3-5.8-20-11.7-28.6c-2.2,5.3-3.3,11-3.3,16.7c0,1.7,0.1,3.3,0.3,5c0,0.4,0.1,0.6,0.1,0.7&#10;&#9;&#9;s0-0.1,0.1,0.3c0.1,0.8,0.3,1.6,0.4,2.4c0.6,3.1,1.5,6.1,2.6,9.1c1,2.7,2.1,5.4,3.5,7.9c1.5,2.9,3.1,5.6,4.8,8.4&#10;&#9;&#9;c1.4,2.1,2.6,4,3.9,5.8C249.1,245,249.2,241.2,249.2,237.4z M240.7,203.4c0.1-0.4,0-0.8-0.1-1.2l0,0c0.4,0.4,0.8,0.9,1.2,1.3&#10;&#9;&#9;C241.4,203.5,241,203.4,240.7,203.4L240.7,203.4z"/>
	<path class="st14_team-meeting-68" d="M254.9,239.8c1.6-2.5,3.2-5.1,4.6-7.8c0.4-0.7,0.7-1.4,1.1-2.1c0.1-0.1,0.5-1,0.7-1.4l0.6-1.5&#10;&#9;&#9;c0.2-0.6,0.5-1.1,0.7-1.7c4-9.6,6-19.9,5.6-30.4c-4.7,3.3-8.7,7.4-11.8,12.3c-0.9,1.4-1.7,2.9-2.4,4.3c-0.2,0.4-0.3,0.6-0.3,0.6&#10;&#9;&#9;s0.1-0.1-0.1,0.3c-0.3,0.8-0.6,1.5-0.9,2.3c-1.1,2.9-2,5.9-2.7,9c-0.7,2.8-1.1,5.7-1.3,8.6c-0.3,3.2-0.4,6.4-0.4,9.6&#10;&#9;&#9;c0,2.5,0,4.8,0.2,7C250.6,246,252.8,242.9,254.9,239.8z M266,206.5c0.3-0.3,0.5-0.6,0.6-1l0,0c0.1,0.6,0.2,1.2,0.3,1.8&#10;&#9;&#9;C266.6,207,266.3,206.7,266,206.5z"/>
	<path class="st14_team-meeting-68" d="M254.8,247.3c1.7-0.8,3.4-1.7,5-2.7c0.4-0.3,0.8-0.5,1.3-0.8l0.8-0.5l0.8-0.6l1-0.7&#10;&#9;&#9;c5.3-3.9,9.7-8.8,12.8-14.6c-3.6,0.2-7.1,1.2-10.3,2.8c-0.9,0.5-1.8,1-2.7,1.5L263,232c0,0,0.1,0-0.1,0.1l-1.2,0.9&#10;&#9;&#9;c-1.6,1.2-3,2.6-4.4,4c-1.3,1.3-2.4,2.7-3.5,4.2c-1.2,1.6-2.3,3.3-3.4,5.1c-0.8,1.4-1.5,2.6-2.2,3.8&#10;&#9;&#9;C250.4,249.3,252.6,248.3,254.8,247.3z M271.5,232.9c0.2-0.1,0.5-0.2,0.6-0.4l0,0c-0.1,0.4-0.3,0.7-0.4,1.1&#10;&#9;&#9;C271.7,233.4,271.6,233.2,271.5,232.9z"/>
	<path class="st14_team-meeting-68" d="M249.2,237.4c0-3-0.1-6-0.3-9.1c-0.1-0.8-0.1-1.6-0.2-2.3c0-0.1-0.1-1.1-0.2-1.6s-0.2-1.6-0.2-1.6&#10;&#9;&#9;c-0.1-0.6-0.2-1.2-0.3-1.8c-1.8-10.3-5.8-20-11.7-28.6c-2.2,5.3-3.3,11-3.3,16.7c0,1.7,0.1,3.3,0.3,5c0,0.4,0.1,0.6,0.1,0.7&#10;&#9;&#9;s0-0.1,0.1,0.3c0.1,0.8,0.3,1.6,0.4,2.4c0.6,3.1,1.5,6.1,2.6,9.1c1,2.7,2.1,5.4,3.5,7.9c1.5,2.9,3.1,5.6,4.8,8.4&#10;&#9;&#9;c1.4,2.1,2.6,4,3.9,5.8C249.1,245,249.2,241.2,249.2,237.4z M240.7,203.4c0.1-0.4,0-0.8-0.1-1.2l0,0c0.4,0.4,0.8,0.9,1.2,1.3&#10;&#9;&#9;C241.4,203.5,241,203.4,240.7,203.4L240.7,203.4z"/>
	<path class="st14_team-meeting-68" d="M254.9,239.8c1.6-2.5,3.2-5.1,4.6-7.8c0.4-0.7,0.7-1.4,1.1-2.1c0.1-0.1,0.5-1,0.7-1.4l0.6-1.5&#10;&#9;&#9;c0.2-0.6,0.5-1.1,0.7-1.7c4-9.6,6-19.9,5.6-30.4c-4.7,3.3-8.7,7.4-11.8,12.3c-0.9,1.4-1.7,2.9-2.4,4.3c-0.2,0.4-0.3,0.6-0.3,0.6&#10;&#9;&#9;s0.1-0.1-0.1,0.3c-0.3,0.8-0.6,1.5-0.9,2.3c-1.1,2.9-2,5.9-2.7,9c-0.7,2.8-1.1,5.7-1.3,8.6c-0.3,3.2-0.4,6.4-0.4,9.6&#10;&#9;&#9;c0,2.5,0,4.8,0.2,7C250.6,246,252.8,242.9,254.9,239.8z M266,206.5c0.3-0.3,0.5-0.6,0.6-1l0,0c0.1,0.6,0.2,1.2,0.3,1.8&#10;&#9;&#9;C266.6,207,266.3,206.7,266,206.5z"/>
	<path class="st14_team-meeting-68" d="M254.8,247.3c1.7-0.8,3.4-1.7,5-2.7c0.4-0.3,0.8-0.5,1.3-0.8l0.8-0.5l0.8-0.6l1-0.7&#10;&#9;&#9;c5.3-3.9,9.7-8.8,12.8-14.6c-3.6,0.2-7.1,1.2-10.3,2.8c-0.9,0.5-1.8,1-2.7,1.5L263,232c0,0,0.1,0-0.1,0.1l-1.2,0.9&#10;&#9;&#9;c-1.6,1.2-3,2.6-4.4,4c-1.3,1.3-2.4,2.7-3.5,4.2c-1.2,1.6-2.3,3.3-3.4,5.1c-0.8,1.4-1.5,2.6-2.2,3.8&#10;&#9;&#9;C250.4,249.3,252.6,248.3,254.8,247.3z M271.5,232.9c0.2-0.1,0.5-0.2,0.6-0.4l0,0c-0.1,0.4-0.3,0.7-0.4,1.1&#10;&#9;&#9;C271.7,233.4,271.6,233.2,271.5,232.9z"/>
</g>
</svg>