<svg version="1.1" id="Layer_1" xmlns="http://www.w3.org/2000/svg" xmlns:xlink="http://www.w3.org/1999/xlink" x="0px" y="0px" viewBox="0 0 500 500" style="width: 144px;" xml:space="preserve" data-imageid="designer-1-51" imageName="Designer 1" class="illustrations_image">
<style type="text/css">
	.st0_designer-1-51{fill:#FB9C4D;}
	.st1_designer-1-51{fill:url(#SVGID_1_);}
	.st2_designer-1-51{fill:#34323D;}
	.st3_designer-1-51{fill:#68E1FD;}
	.st4_designer-1-51{opacity:0.45;fill:#34323D;enable-background:new    ;}
	.st5_designer-1-51{fill:#FFFFFF;}
	.st6_designer-1-51{fill:#F78B72;}
	.st7_designer-1-51{fill:#8CCC00;}
	.st8_designer-1-51{fill:#FCB749;}
	.st9_designer-1-51{fill:url(#SVGID_00000069389275647632327810000009281871598513658248_);}
	.st10_designer-1-51{fill:url(#SVGID_00000066477783202331776820000004319006975748371880_);}
	.st11_designer-1-51{fill:url(#SVGID_00000007419293636928945870000001549908964578023338_);}
	.st12_designer-1-51{fill:#E16C3F;}
	.st13_designer-1-51{fill:#FCBF81;}
	.st14_designer-1-51{fill:#8B93FC;}
	.st15_designer-1-51{opacity:0.5;fill:#34323D;enable-background:new    ;}
</style>
<path id="field_designer-1-51" class="st0_designer-1-51" d="M243,424.2L23.3,294.3c-7-3.9-13-10.4-6.2-14.6l220.5-127.1c3.3-2.1,8.3-3.4,11.7-1.4L480,285&#10;&#9;c7,4.1,8.2,15.4,1.2,19.5L272,424C263,429.2,252,429.3,243,424.2z"/>
<g id="monitor_designer-1-51">
	
		<linearGradient id="SVGID_1_-designer-1-51" gradientUnits="userSpaceOnUse" x1="235.6701" y1="176.4699" x2="264.1001" y2="203.7199" gradientTransform="matrix(1 0 0 -1 0 502)">
		<stop offset="0" style="stop-color:#FB9C4D"/>
		<stop offset="0.98" style="stop-color:#E16C3F"/>
	</linearGradient>
	<path class="st1_designer-1-51" d="M201.2,309.1l56.4-21.4l46.7,21.4l-52.6,32C239.8,333.4,212.7,317.4,201.2,309.1z"/>
	<path class="st2_designer-1-51" d="M280.7,279.1l-37.8,14.2c0,0-1.6,1-0.6,3.5c0.6,1.4,3.7,3.4,3.7,3.4l32.6,19c1.8,0.8,3.7,1.3,5.6,1.5&#10;&#9;&#9;c2.6,0.1,7-2,7-2l30.3-17.6L280.7,279.1z"/>
	<path class="st3_designer-1-51 targetColor" d="M280.2,277.4l-36.1,14.8c0,0-2.6,1.4-1.9,3.2c0.7,1.4,1.8,2.5,3.2,3.3l32.7,18.8c1.8,0.8,3.7,1.3,5.6,1.5&#10;&#9;&#9;c2.6,0.1,7-2,7-2l28.8-16.4L280.2,277.4z" style="fill: rgb(104, 225, 253);"/>
	<path class="st4_designer-1-51" d="M280.2,277.4l-36.1,14.8c0,0-2.6,1.4-1.9,3.2c0.7,1.4,1.8,2.5,3.2,3.3l32.7,18.8c1.8,0.8,3.7,1.3,5.6,1.5&#10;&#9;&#9;c2.6,0.1,7-2,7-2l28.8-16.4L280.2,277.4z"/>
	<path class="st3_designer-1-51 targetColor" d="M365.6,327.1c1.4,0.6,3.1,0.2,4-1c0,0,0.7-0.1,0.7-3.2v-144c-0.1-2.5-1.2-4.9-3.1-6.5c-3.2-2.6-11-6.7-11-6.7&#10;&#9;&#9;l-160-92.3l-1.8-0.9c-1.3-0.6-2.8-0.2-3.6,0.9c-0.5,0.8-0.7,1.7-0.8,2.6c-0.1,1.5,0,16.1,0,16.1v129.6c0,2.5,1.1,4.9,2.9,6.6&#10;&#9;&#9;L365.6,327.1z" style="fill: rgb(104, 225, 253);"/>
	<path class="st5_designer-1-51" d="M367.4,305.2V181c0-4.1-0.6-6.4-3.7-8.1L194.9,75.1c-1.6-1-3.6-0.1-3.6,1.8l0.4,127.7L367.4,305.2z"/>
	<polygon class="st0_designer-1-51" points="355.8,182.2 355.8,225.1 324.8,207.1 325,164.3 &#9;"/>
	<polygon class="st3_designer-1-51 targetColor" points="317,160.8 317,203.7 286,185.7 286.2,142.9 &#9;" style="fill: rgb(104, 225, 253);"/>
	<polygon class="st6_designer-1-51" points="277.6,138.2 277.6,181.1 246.6,163.1 246.8,120.3 &#9;"/>
	<polygon class="st7_designer-1-51" points="236.4,114.8 236.4,157.7 205.4,139.7 205.6,96.9 &#9;"/>
	<path class="st8_designer-1-51" d="M356.5,235.6L333,222.3l-37.6-21.3l-8.7-4.9c-0.7-0.4-1.6-0.2-2.1,0.5s-0.2,1.6,0.5,2.1l23.6,13.4l37.6,21.3&#10;&#9;&#9;l8.6,4.9c0.7,0.4,1.6,0.1,2-0.6C357.4,236.9,357.2,236.1,356.5,235.6L356.5,235.6z"/>
	<path class="st8_designer-1-51" d="M355.2,247.4l-23.6-13.4L294,212.7l-8.6-4.9c-0.7-0.4-1.6-0.1-2,0.6c-0.4,0.7-0.1,1.6,0.5,2l23.6,13.4&#10;&#9;&#9;l37.6,21.3l8.6,4.9C355.3,251,356.8,248.4,355.2,247.4L355.2,247.4z"/>
	<path class="st8_designer-1-51" d="M354.4,258.7l-23.6-13.4L293.2,224l-8.6-4.9c-0.7-0.4-1.6-0.2-2.1,0.5s-0.2,1.6,0.5,2.1l23.6,13.4l37.6,21.3&#10;&#9;&#9;l8.6,4.9c0.7,0.4,1.6,0.1,2-0.6C355.3,260,355,259.1,354.4,258.7L354.4,258.7z"/>
	
		<ellipse transform="matrix(0.9663 -0.2575 0.2575 0.9663 -42.1406 72.8116)" class="st3_designer-1-51 targetColor" cx="257" cy="197.3" rx="12.2" ry="16.7" style="fill: rgb(104, 225, 253);"/>
	
		<ellipse transform="matrix(0.9663 -0.2575 0.2575 0.9663 -38.393 61.2984)" class="st0_designer-1-51" cx="214.9" cy="177.3" rx="12.2" ry="16.7"/>
	<path class="st6_designer-1-51" d="M353.6,270.2v10.4c0,1.2-1,2.1-2.2,2.1c-0.4,0-0.7-0.1-1-0.3l-9.6-5.3c-0.7-0.4-1.1-1.1-1.1-1.9v-10.6&#10;&#9;&#9;c0-1.2,1-2.1,2.1-2.1c0.4,0,0.7,0.1,1.1,0.3l9.6,5.5C353.2,268.7,353.6,269.4,353.6,270.2z"/>
	<path class="st3_designer-1-51 targetColor" d="M334.2,259.5v10.4c0,1.2-1,2.1-2.2,2.1c-0.4,0-0.7-0.1-1-0.3l-9.6-5.3c-0.7-0.4-1.1-1.1-1.1-1.9V254&#10;&#9;&#9;c0-1.2,1-2.1,2.2-2.1c0.4,0,0.7,0.1,1.1,0.3l9.6,5.5C333.8,258,334.2,258.7,334.2,259.5z" style="fill: rgb(104, 225, 253);"/>
	<path class="st7_designer-1-51" d="M313,247.6v10.4c0,1.2-1,2.2-2.1,2.2c-0.4,0-0.7-0.1-1-0.3l-9.6-5.3c-0.7-0.4-1.1-1.1-1.1-1.9v-10.6&#10;&#9;&#9;c0-1.2,1-2.1,2.2-2.1c0.4,0,0.7,0.1,1.1,0.3l9.6,5.5C312.6,246.1,313,246.8,313,247.6z"/>
</g>
<g id="plant_designer-1-51">
	
		<linearGradient id="SVGID_00000066475909962615870460000004710531939940528528_-designer-1-51" gradientUnits="userSpaceOnUse" x1="406.7805" y1="192.9329" x2="434.5405" y2="213.9729" gradientTransform="matrix(1 0 0 -1 0 502)">
		<stop offset="0" style="stop-color:#FB9C4D"/>
		<stop offset="0.98" style="stop-color:#E16C3F"/>
	</linearGradient>
	<path style="fill:url(#SVGID_00000066475909962615870460000004710531939940528528_);" d="M387,303.8l35.8-16l19.6,14.6l-30,17.4&#10;&#9;&#9;C405.1,315.1,393.9,308.8,387,303.8z"/>
	<path class="st3_designer-1-51 targetColor" d="M450.3,274c0,0,2.9,24.9-10.3,29.7s-20.2-7.7-20.4-29.7" style="fill: rgb(104, 225, 253);"/>
	<ellipse class="st2_designer-1-51" cx="435" cy="274" rx="15.4" ry="8.9"/>
	<path class="st7_designer-1-51" d="M431,254.3c0,0,6-8.7,3.4-14.7c0,0-2.2-3.9-5.2-4.5c0,0,0.3,8.2-2.8,7.2s0-8.6,0-8.6s-3.2-4.4-6.8-4.2&#10;&#9;&#9;s0,7.7-2.5,6.5s-0.2-7.7-2.9-8.5c-2.5-0.6-5.1-1-7.7-1.2c0,0-2.6,7.5,0,8.6s6.5,1.4,4.6,3.1s-7.1-0.2-7.1-0.2s-0.3,4.2,1.4,6.1&#10;&#9;&#9;s12.2-2.2,10.4,1.4s-8.8,1.8-8.8,1.8s3.5,5.1,7.7,7.4C419,256.6,431,254.3,431,254.3z"/>
	<path class="st7_designer-1-51" d="M429.6,276.1c0,0,4.4-4.3,3.5-8c0,0-0.8-2.4-2.5-3.1c0,0-0.7,4.7-2.3,3.8s0.9-4.9,0.9-4.9s-1.4-2.8-3.4-3.1&#10;&#9;&#9;s-0.8,4.4-2.1,3.4s0.7-4.4-0.8-5.1c-1.4-0.6-2.8-1.1-4.2-1.5c0,0-2.3,4-0.9,4.9s3.5,1.5,2.3,2.2s-4-0.9-4-0.9s-0.6,2.4,0.2,3.6&#10;&#9;&#9;s7.2,0,5.7,1.9s-5.2,0.1-5.2,0.1c0.9,1.9,2.1,3.6,3.6,5C422.6,276.1,429.6,276.1,429.6,276.1z"/>
	<path class="st7_designer-1-51" d="M445.6,266.8c0,0,10.6,0.4,14.2-5c0,0,2.1-3.9,1-6.8c0,0-6.8,4.7-7.6,1.5s7.3-4.6,7.3-4.6s2-5.1-0.1-8&#10;&#9;&#9;s-6.5,4.1-6.8,1.4s6.4-4.3,5.6-7c-0.9-2.4-1.9-4.8-3.1-7.1c0,0-7.8,1.8-7.2,4.6s2.2,6.2-0.1,5.6s-3.6-6.1-3.6-6.1s-3.7,2-4.3,4.5&#10;&#9;&#9;s8.4,9.1,4.4,9.5s-6.2-6.4-6.2-6.4s-2.4,5.7-2.1,10.4C437.3,257.9,445.6,266.8,445.6,266.8z"/>
	<path class="st2_designer-1-51" d="M408.9,229.5c1.1,0.9,2.2,1.9,3.4,2.9c-0.1-1.2-0.3-2.4-0.5-3.6c-0.1-0.6,0.9-0.9,1-0.3&#10;&#9;&#9;c0.2,1.6,0.4,3.2,0.6,4.8c3,2.6,5.9,5.3,8.6,8.2c0.2-2,0.3-4.1,0.2-6.1c0-0.6,1-0.6,1,0c0.1,2.4,0,4.7-0.3,7.1&#10;&#9;&#9;c1.7,1.9,3.4,3.9,4.9,5.9c1.7-2.4,2.9-5.1,3.4-8c0.1-0.6,1.1-0.4,1,0.3c-0.6,3.1-1.8,6-3.7,8.5c0,0-0.1,0.1-0.1,0.1&#10;&#9;&#9;c4.4,6.2,7.4,13.2,7.7,21.3c0,0.6-1,0.6-1,0c-0.2-7.8-3.1-14.5-7.4-20.6c-4,1.1-8.2,1.5-12.4,1.2c-0.6,0-0.6-1,0-1&#10;&#9;&#9;c4,0.3,7.9-0.1,11.8-1.1c-2.1-2.9-4.5-5.6-7-8.1h-0.1c-2.3,0.2-4.7,0.4-7,0.5c-1.5,0.2-3,0-4.4-0.5c-0.6-0.3-0.1-1.1,0.5-0.9&#10;&#9;&#9;c1.6,0.8,3.9,0.4,5.6,0.3c1.5-0.1,3-0.2,4.4-0.4c-3.6-3.5-7.4-6.8-11.1-9.9C407.7,229.8,408.4,229.1,408.9,229.5z"/>
	<path class="st2_designer-1-51" d="M439.9,249c-0.1-0.3,0.1-0.6,0.4-0.6c0.3-0.1,0.6,0.1,0.6,0.4c1.1,3.7,3.3,6.9,6.4,9.2&#10;&#9;&#9;c1.1-3.2,2.2-6.3,3.1-9.5c-2.4-2.4-4.4-5.2-5.9-8.3c-0.3-0.6,0.6-1.1,0.9-0.5c1.3,2.8,3.1,5.4,5.3,7.7c1-3.7,2-7.4,2.7-11.1&#10;&#9;&#9;c0.1-0.6,1.1-0.4,1,0.3c-1.1,5.1-2.4,10.2-3.9,15.2c1.9-0.4,3.7-1,5.5-1.8c0.6-0.3,1.1,0.6,0.5,0.9c-2,0.9-4.1,1.6-6.3,2l0,0&#10;&#9;&#9;c-1,3.3-2.2,6.5-3.5,9.8c3-0.1,5.9-0.7,8.7-1.9c0.6-0.2,1.1,0.6,0.5,0.9c-3,1.3-6.3,2-9.6,2.1c-1.6,4-3.4,8-5.3,11.8&#10;&#9;&#9;c-0.3,0.6-1.1,0.1-0.9-0.5c2.6-5.2,4.9-10.5,6.8-15.9l0,0C443.6,256.5,441.1,253,439.9,249z"/>
	<path class="st2_designer-1-51" d="M421.8,261.9c0.9,1.5,1.8,3.1,2.8,4.6c0.3-0.5,0.6-0.9,0.9-1.4c0.3-0.6,1.1-0.1,0.9,0.5&#10;&#9;&#9;c-0.3,0.6-0.7,1.3-1.1,1.8l0,0c1,1.7,2,3.3,3,5c0.3-0.3,0.6-0.7,0.6-1.2c0.1-0.6,1.1-0.6,1,0c-0.1,0.8-0.5,1.5-1.1,2.1&#10;&#9;&#9;c1.3,2.1,2.5,4.2,3.7,6.2c0.1,0.3,0,0.5-0.2,0.7c-0.2,0.1-0.5,0-0.6-0.2l-4.9-8.2c-0.8,0-1.6-0.1-2.4-0.4c-0.6-0.2-0.4-1.2,0.3-1&#10;&#9;&#9;c0.5,0.2,1,0.2,1.5,0.3l-5-8.4c0-0.3,0.2-0.5,0.4-0.6C421.5,261.7,421.7,261.8,421.8,261.9z"/>
</g>
<g id="pencils_designer-1-51">
	
		<linearGradient id="SVGID_00000132053849237097018640000012109015664096166584_-designer-1-51" gradientUnits="userSpaceOnUse" x1="52.0085" y1="200.1523" x2="70.8185" y2="212.6923" gradientTransform="matrix(1 0 0 -1 0 502)">
		<stop offset="0" style="stop-color:#FB9C4D"/>
		<stop offset="0.98" style="stop-color:#E16C3F"/>
	</linearGradient>
	<path style="fill:url(#SVGID_00000132053849237097018640000012109015664096166584_);" d="M21.4,291.7l53.8-26.5l40.7,24.7&#10;&#9;&#9;l-52.6,28.4C51.4,310.5,32.9,299.9,21.4,291.7z"/>
	<path class="st3_designer-1-51 targetColor" d="M118.6,221.5V284c0,0-60.1,3.3-60.1,0v-62.5" style="fill: rgb(104, 225, 253);"/>
	<ellipse class="st3_designer-1-51 targetColor" cx="88.5" cy="283.5" rx="30.1" ry="13.7" style="fill: rgb(104, 225, 253);"/>
	<ellipse class="st2_designer-1-51" cx="88.5" cy="221.5" rx="30.1" ry="13.7"/>
	<path class="st6_designer-1-51" d="M107.3,232.1l-0.2,0.1c-1.2,0.4-2.3,0.8-3.5,1.1l8.2-68.5c0,0,1.7-0.9,4.2,0.8l-8.4,66.4L107.3,232.1z"/>
	<path class="st6_designer-1-51" d="M97.9,234.3L95.4,170c0,0,1.5-1.2,4.3,0.1l2.1,63.7C100.5,234,99.2,234.2,97.9,234.3z"/>
	<path class="st8_designer-1-51" d="M88.5,235.2l-8.3-67L63.5,177l6.8,56.3C76.2,235,82.4,235.7,88.5,235.2z"/>
</g>
<g id="designer_designer-1-51">
	
		<linearGradient id="SVGID_00000118395377321986203270000015969203930775874197_-designer-1-51" gradientUnits="userSpaceOnUse" x1="173.2749" y1="153.9367" x2="220.4849" y2="189.7267" gradientTransform="matrix(1 0 0 -1 0 502)">
		<stop offset="0" style="stop-color:#FB9C4D"/>
		<stop offset="0.98" style="stop-color:#E16C3F"/>
	</linearGradient>
	<path style="fill:url(#SVGID_00000118395377321986203270000015969203930775874197_);" d="M139.4,338.9l53.8-26.5l40.7,24.7&#10;&#9;&#9;l-52.6,28.4C169.4,357.7,150.9,347.1,139.4,338.9z"/>
	<path class="st12_designer-1-51" d="M198.1,315.9c0,0,7.7-3.4,9.5-3.5s4.9,0.5,2.2,3.9c0,0-8.1,5.3-9.1,5.4s-3.6-0.6-3.7-0.4s-0.3,2.3-0.3,2.3&#10;&#9;&#9;s-6.7,2.6-7-1.9c0-0.6,1-9,1-9"/>
	<path class="st2_designer-1-51" d="M189.3,296.1c1.3-8.7,3.8-17,4.8-25.8c0.6-5.5,1.1-11,1.8-16.6s2.7-10.8,4.1-16.3c0.1-0.3,0-0.5-0.3-0.7&#10;&#9;&#9;l0.2-0.6c0.7-0.6,1.4-1.3,2.1-1.9l9.4,6.3c0,0-0.1,5.8-0.4,14.1c-1.1,4.9-1.9,9.2-3.2,13.8c0.3,0.3,0.4,0.7,0.3,1.1&#10;&#9;&#9;c-3.1,14.5-5.3,29.3-6.7,44.1c0,0.5-0.4,0.9-0.8,1.1l-0.3,2.3c-8.2,3.2-10-2.3-10-2.3s-0.4-4.7-0.8-11.2&#10;&#9;&#9;C189.3,301.1,189.2,298.6,189.3,296.1z"/>
	<path class="st13_designer-1-51" d="M247.4,205.9l0.2,0.1c-0.4-0.5-0.3-1.1,0.2-1.5c0.1-0.1,0.2-0.1,0.3-0.2c0.5-0.2,0.9-0.3,1.4-0.4&#10;&#9;&#9;c0-0.1,0.1-0.1,0.1-0.1c0.2-0.1,0.3-0.3,0.5-0.4c0.2-0.3,0.5-0.4,0.8-0.4h0.4c0.4-0.1,0.8-0.2,1.2-0.3l1.4-0.3&#10;&#9;&#9;c0-0.1,0.1-0.3,0.2-0.4c2-2.4,3.8-4.9,5.4-7.5c0.6-0.9,2.2-0.4,1.8,0.8c-0.4,1.3-0.9,2.5-1.5,3.6c2.1-2.2,3.3-2.6,5.2-5&#10;&#9;&#9;c0.8-1,2.2,0.4,1.4,1.4c-0.5,0.6-2.4,2.1-2.9,2.7c1-0.9,3.4-2.7,4.3-3.5s2.4,0.6,1.4,1.4c-1.5,1.4-3,2.8-4.5,4.2&#10;&#9;&#9;c1.4-0.8,2.7-1.7,4-2.6c1-0.8,2,1,1,1.7c-1.5,1.1-3,2.1-4.6,3c1-0.2,2-0.5,2.9-0.8c1.2-0.5,1.7,1.4,0.5,1.9c-1,0.4-2,0.7-3,1&#10;&#9;&#9;c-0.5,0.1-1,0.3-1.5,0.5c-0.6,0.2-1.2,0.4-1.7,0.7c-1.9,1.2-4.1,2.1-6.3,2.7l-0.4,0.2c-0.3,0.2-0.6,0.2-0.9,0.1&#10;&#9;&#9;c-2.6,0.5-5.4,0.3-7.9-0.6C245.6,207.4,246.1,205.4,247.4,205.9z"/>
	<path class="st13_designer-1-51" d="M218.1,189.8c0.4-0.4,0.8-0.8,1.2-1.1c0,0,0,0.1,0,0.1c0,0.1,0,0.2,0.2,0.2c0.1,0,0.1,0,0.2,0l0.8-0.6&#10;&#9;&#9;c0,0.1-0.1,0.2-0.1,0.3c-0.1,0.4,0.2,0.8,0.6,0.9c0.4,0.1,0.9-0.2,1-0.6c0,0,0-0.1,0-0.1l0.3-0.2c0,0.1,0,0.2-0.1,0.2&#10;&#9;&#9;c0,0.4,0.3,0.7,0.7,0.7c0.1,0,0.2,0,0.3-0.1c0.1,0,0.2-0.1,0.3-0.1c0.1,0.1,0.3,0.2,0.4,0.2c0.7,0,1.5,0,2.2-0.1&#10;&#9;&#9;c-0.1-0.1-0.1-0.3,0-0.5c0,0,0,0,0.1-0.1c1-0.3,2-0.6,3-0.8c0,0,0.1,0,0.1,0l0.1-0.1c0.4-0.6,0.6-1.3,0.6-1.9c0.6-0.4,0.9-1,1-1.6&#10;&#9;&#9;c-0.1,0-0.1-0.1-0.1-0.1c-0.1-0.1-0.1-0.3-0.2-0.5c-0.1-0.2-0.1-0.5-0.1-0.7c0-0.1,0.1-0.2,0.2-0.3c-0.2-0.5-0.4-1-0.6-1.5&#10;&#9;&#9;c1.2-1,2.1-2.4,2.6-4c0.1-0.4-0.1-0.8-0.5-0.9c-0.2-0.1-0.5,0-0.7,0.1c-0.5,0.4-0.9,0.8-1.4,1.2c-0.1,0-0.2,0.1-0.3,0.1&#10;&#9;&#9;c-2.3,2.2-4.6,4.3-7.1,6.3c-0.4,0.3-5.4,3.7-5,4C217.9,188.4,213,193.7,218.1,189.8z"/>
	<path class="st13_designer-1-51" d="M219,188.4c0.9-0.3,1.8-0.8,2.5-1.4c0.6-0.5,1.5-0.5,2.1,0.1c0,0,0,0,0,0c0.2-0.3,0.3-0.7,0.5-1.1&#10;&#9;&#9;c0.7-1.9,3.6-0.9,2.9,1c-0.5,1.5-1.4,2.8-2.6,3.8c-1.3,0.8-2.7,1.4-4.2,1.7c-0.9,0.2-1.7-0.4-1.8-1.3c0-0.2,0-0.4,0-0.6l-0.1-0.1&#10;&#9;&#9;C217.9,189.7,218.2,188.8,219,188.4z"/>
	<path class="st2_designer-1-51" d="M223.3,191.2c1.5-0.4,2.8-1.3,3.7-2.6c0,0.1,0.1,0.2,0.2,0.1c0,0,0,0,0,0l1.4-0.4c0.3-0.1,0.6-0.2,0.9-0.3&#10;&#9;&#9;c0.6-0.4,0.4-1.1,0.4-1.8c0,0,0-0.1,0-0.1l0.3-0.2c0.5-0.3,0.8-0.8,1-1.3c0.1-0.5-0.3-1-0.3-1.6c0.3-0.5,0.2-1.1-0.2-1.5&#10;&#9;&#9;c-0.5-0.5-1-0.1-1.5,0.2c-1.1,0.7-2.1,1.5-3.1,2.3c-0.2,0.1,0.1,0.4,0.3,0.3c0.5-0.4,1.1-0.9,1.7-1.3c0.5-0.5,1.1-0.9,1.8-1.2&#10;&#9;&#9;c1.6-0.3,0.7,1.4,0.3,1.8c-0.2,0.2-0.5,0.4-0.7,0.6l-1.6,1.4l0,0c0,0-0.1,0.1-0.1,0.1c-0.2,2.4-1.9,4.4-4.3,4.9&#10;&#9;&#9;C223,190.9,223,191.3,223.3,191.2z M228,186.2c-0.1,0-0.1,0-0.2,0c0,0,0-0.1,0-0.1c1-0.7,1.9-1.5,2.7-2.4c0.1,0.1,0.1,0.3,0.1,0.4&#10;&#9;&#9;c0.1,0.5,0,0.9-0.4,1.2C229.9,185.8,228.7,186.9,228,186.2L228,186.2z M227.1,188.4c0.3-0.6,0.6-1.2,0.7-1.9&#10;&#9;&#9;c0.5,0.5,1.2,0.3,1.8-0.1c0,0.3,0,0.5,0,0.8c-0.1,0.3-0.3,0.6-0.7,0.7C228.3,188.1,227.7,188.2,227.1,188.4L227.1,188.4z"/>
	<path class="st14_designer-1-51" d="M200.8,199.2c0.6-0.9,20.8-13.1,22-14.7c2.7,3.4,3,8.1,0.8,11.8c0,0-11.3,13.2-17.2,14.4"/>
	<path class="st15_designer-1-51" d="M200.8,199.2c0.6-0.9,20.8-13.1,22-14.7c2.7,3.4,3,8.1,0.8,11.8c0,0-11.3,13.2-17.2,14.4"/>
	<path class="st12_designer-1-51" d="M214.8,328.5l4.6,1.6c0.3,0.8,1,1.5,1.8,1.7c0.2,0.2,0.4,0.3,0.6,0.4c1.8,0.1,3.7-0.2,5.4-0.9&#10;&#9;&#9;c2.2-0.7,10.7-3.9,8.3,2.2c-1.6,1.1-3.3,2-4.9,3c-0.9,0.5-1.8,1.1-2.7,1.6c-0.5,0.3-1,0.6-1.6,0.7c-1.2,0.2-4.2-0.7-4.3-0.4&#10;&#9;&#9;s-0.4,2.7-0.4,2.7s-7.8,3-8.1-2.2C213.7,338.1,214.8,328.5,214.8,328.5z"/>
	<path class="st2_designer-1-51" d="M208.4,281.9c-0.9-15.3-1.5-30.7-4.7-45.8c-0.1-3.9-2.7-1.4-2.5-3c1.4-12.6,19.7,2.4,19.7,2.4&#10;&#9;&#9;c0.7,0.6,0.8,4.5,1,5.3c0.8,4.8,1.5,9.7,2.1,14.6c3,24.6,1.9,49.1,0.7,73.7c-3.9,4-6.4,5.2-12.7,2.6c-1.3-16.1-2.4-32.3-3.5-48.5&#10;&#9;&#9;L208.4,281.9z"/>
	<path class="st14_designer-1-51" d="M198,224c-0.7-7.6-0.9-15.2-0.5-22.8c0.1-2,0.7-6.9,2.7-8c4.4-2.5,10.4-0.3,14.1,2.4&#10;&#9;&#9;c4.9,3.6,7.7,37.3,7.8,45.6c-6.8,2.7-15.6,3.7-22.5,0.8c-0.6-0.2-0.7-8.5-0.8-9.5C198.5,229.7,198.3,226.9,198,224z"/>
	<path class="st2_designer-1-51" d="M212,213c0.4,4.9,3.9,9,8.6,10.3c0,0.5,0.1,3.4,0.2,3.9c-5.5-1.3-9.6-8.2-10.1-14.1&#10;&#9;&#9;C210.6,212.2,212,212.2,212,213z"/>
	<path class="st13_designer-1-51" d="M212.2,178.8c0.4,0.2,2.6,9.6,0.1,14.7s-10.5-2.1-12-6.6S204.1,175,212.2,178.8z"/>
	<path class="st12_designer-1-51" d="M211.9,180c-0.3,1.7-1.6,3-3.2,3.3c-2.7,0.4-4.9,0.7-5,1.9s4.6,0.7,4.1,3.4c-0.3,1.8-0.9,3.5-1.7,5.2&#10;&#9;&#9;c-0.5,1.2-7.3-4.2-8.5-11.5s5.4-7.9,5.7-7.9s1.2-1.7,4.4-1.8s3.8,1.3,3.8,1.3c1.6-0.6,3.4,0,4.4,1.3c2.4,2.8,0.9,6.7-2.6,7.8&#10;&#9;&#9;L211.9,180z"/>
	<path class="st14_designer-1-51" d="M214,199.4c0,0,17.3,5.9,22.9,4.8c4-0.8,11.8-3.7,15.8-5.2c4.5,2.5,5.9,8.2,4.3,13c-6.6,2.4-26.1,9.3-33,7.4&#10;&#9;&#9;c-8.4-2.3-17.8-5.7-17.8-5.7S197.2,207.6,214,199.4z"/>
</g>
</svg>