<svg version="1.1" id="Layer_1" xmlns="http://www.w3.org/2000/svg" xmlns:xlink="http://www.w3.org/1999/xlink" x="0px" y="0px" viewBox="0 0 500 500" style="width: 144px;" xml:space="preserve" data-imageid="marketing-4-84" imageName="Marketing 4" class="illustrations_image">
<style type="text/css">
	.st0_marketing-4-84{fill:#ACF4E6;}
	.st1_marketing-4-84{opacity:0.63;fill:url(#SVGID_1_);enable-background:new    ;}
	.st2_marketing-4-84{fill:#124577;}
	.st3_marketing-4-84{fill:#25B000;}
	.st4_marketing-4-84{fill:#F18F22;}
	.st5_marketing-4-84{fill:#CA4300;}
	.st6_marketing-4-84{fill:#FFC6B2;}
	.st7_marketing-4-84{fill:#842E13;}
	.st8_marketing-4-84{fill:#68E1FD;}
	.st9_marketing-4-84{opacity:0.63;fill:url(#SVGID_00000024703672139724694940000005653652384577559716_);enable-background:new    ;}
	.st10_marketing-4-84{fill:#FFFFFF;}
	.st11_marketing-4-84{opacity:0.63;fill:url(#SVGID_00000112612436018516632010000014674967137086339228_);enable-background:new    ;}
	.st12_marketing-4-84{opacity:0.3;fill:#F18F22;enable-background:new    ;}
	.st13_marketing-4-84{opacity:0.63;fill:url(#SVGID_00000046334469237536707960000003505347145741681328_);enable-background:new    ;}
	.st14_marketing-4-84{opacity:0.2;fill:#124577;enable-background:new    ;}
</style>
<path id="field_marketing-4-84" class="st0_marketing-4-84" d="M243,424.6L22.9,294.5c-7-3.9-13-10.4-6.2-14.6l220.9-127.3c3.3-2.1,8.3-3.4,11.7-1.4l231.1,134.1&#10;&#9;c7,4.1,8.3,15.4,1.2,19.5L272,424.4C263,429.5,252,429.6,243,424.6z"/>
<g id="pencils_marketing-4-84">
	
		<linearGradient id="SVGID_1_-marketing-4-84" gradientUnits="userSpaceOnUse" x1="375.5001" y1="177.5799" x2="400.3801" y2="203.9099" gradientTransform="matrix(1 0 0 -1 0 502)">
		<stop offset="0" style="stop-color:#ACF4E6;stop-opacity:0"/>
		<stop offset="1" style="stop-color:#22B573"/>
	</linearGradient>
	<polygon class="st1_marketing-4-84" points="441,292.3 390.3,332.2 350.5,313.7 407.3,278.4 &#9;"/>
	<path class="st2_marketing-4-84" d="M419.3,222.6c-18,0-32.5,4.8-32.5,10.6h65C451.8,227.4,437.2,222.6,419.3,222.6z"/>
	<path class="st2_marketing-4-84" d="M386.9,234.1l-0.1-0.8C386.8,233.5,386.8,233.8,386.9,234.1z"/>
	<path class="st2_marketing-4-84" d="M451.8,233.2l-0.1,0.9C451.8,233.9,451.8,233.6,451.8,233.2z"/>
	<path class="st2_marketing-4-84" d="M419.3,243.9c17,0,30.9-4.3,32.4-9.7l0.1-0.9h-65l0.1,0.8C388.2,239.6,402.2,243.9,419.3,243.9z"/>
	<rect x="424.4" y="178.4" class="st3_marketing-4-84" width="7.3" height="75.5"/>
	<ellipse class="st3_marketing-4-84" cx="428.1" cy="178.4" rx="3.7" ry="1.6"/>
	
		<rect x="399.1" y="225.3" transform="matrix(0.2001 -0.9798 0.9798 0.2001 125.0842 611.1954)" class="st4_marketing-4-84" width="75.5" height="7.3"/>
	<ellipse transform="matrix(0.2001 -0.9798 0.9798 0.2001 167.3294 589.009)" class="st4_marketing-4-84" cx="444.4" cy="192" rx="1.5" ry="3.7"/>
	<path class="st4_marketing-4-84" d="M410.5,234.9l-6.7,3.8c-0.3,0.1-0.6,0-0.8-0.3c-0.1-0.2,0-0.5,0.2-0.7l6.8-3.9c0.1,0,0.1-0.1,0.2-0.1l-1.4-7.2&#10;&#9;&#9;l-6.7,3.9c-0.3,0.1-0.6,0-0.8-0.3c-0.1-0.2,0-0.5,0.2-0.7l6.8-3.9c0.1,0,0.2-0.1,0.3-0.1l-1.2-6.7l-6.6,3.8c-0.3,0.1-0.6,0-0.8-0.3&#10;&#9;&#9;c-0.1-0.2,0-0.5,0.2-0.7l6.8-3.9c0,0,0.1,0,0.1-0.1l-1.4-7.5l-6.6,3.8c-0.3,0.1-0.6,0-0.8-0.3c-0.1-0.2,0-0.5,0.2-0.7l6.8-3.9&#10;&#9;&#9;l0.1-0.1l-1.4-7.3l-6.7,3.8c-0.3,0.1-0.6-0.1-0.7-0.4c-0.1-0.2,0-0.5,0.2-0.6l6.8-3.9c0.1,0,0.1-0.1,0.2-0.1l-1.2-6.4l-6.7,3.8&#10;&#9;&#9;c-0.3,0.1-0.6-0.1-0.7-0.4c-0.1-0.2,0-0.5,0.2-0.6l6.8-3.9c0.1,0,0.1-0.1,0.2-0.1l-1.2-6.3l-6.7,3.8c-0.3,0.1-0.6,0-0.8-0.3&#10;&#9;&#9;c-0.1-0.2,0-0.5,0.2-0.7l6.8-3.9c0.1,0,0.1-0.1,0.2-0.1l-1.2-7l-6.6,3.8c-0.3,0.1-0.6,0-0.8-0.3c-0.1-0.2,0-0.5,0.2-0.7l6.8-3.9&#10;&#9;&#9;l0.1-0.1l-0.6-3.2l-14.5,9c0,0,10.3,57.4,10.5,57.5c6,3.1,17,3.5,17,3.5L410.5,234.9z"/>
	<path class="st5_marketing-4-84" d="M392.8,181.1c-0.2,0.2-0.3,0.6-0.1,0.8c0.2,0.2,0.4,0.3,0.7,0.2l6.6-3.8l-0.2-1.2l-0.1,0.1L392.8,181.1z"/>
	<path class="st5_marketing-4-84" d="M394.2,189.3c-0.2,0.2-0.3,0.6-0.1,0.8c0.2,0.2,0.4,0.3,0.7,0.2l6.7-3.8l-0.2-1.2c-0.1,0-0.1,0-0.2,0.1&#10;&#9;&#9;L394.2,189.3z"/>
	<path class="st5_marketing-4-84" d="M395.6,196.8c-0.2,0.2-0.3,0.6,0,0.8c0.2,0.2,0.4,0.2,0.6,0.2l6.7-3.8l-0.2-1.2c-0.1,0-0.2,0-0.2,0.1&#10;&#9;&#9;L395.6,196.8z"/>
	<path class="st5_marketing-4-84" d="M397,204.3c-0.2,0.2-0.3,0.6,0,0.8c0.2,0.2,0.4,0.2,0.6,0.2l6.7-3.8l-0.2-1.2c-0.1,0-0.1,0-0.2,0.1L397,204.3z&#10;&#9;&#9;"/>
	<path class="st5_marketing-4-84" d="M398.7,212.7c-0.2,0.2-0.3,0.6-0.1,0.8c0.2,0.2,0.4,0.3,0.7,0.2l6.6-3.8l-0.2-1.2l-0.1,0.1L398.7,212.7z"/>
	<path class="st5_marketing-4-84" d="M400.2,221.4c-0.2,0.2-0.3,0.6-0.1,0.8c0.2,0.2,0.4,0.3,0.7,0.2l6.6-3.8l-0.2-1.2c0,0-0.1,0-0.1,0.1&#10;&#9;&#9;L400.2,221.4z"/>
	<path class="st5_marketing-4-84" d="M408.4,225.4l-6.8,3.9c-0.2,0.2-0.3,0.6-0.1,0.8c0.2,0.2,0.4,0.3,0.7,0.2l6.7-3.9l-0.2-1.2&#10;&#9;&#9;C408.6,225.3,408.5,225.3,408.4,225.4z"/>
	<path class="st5_marketing-4-84" d="M403.2,237.7c-0.2,0.2-0.3,0.6-0.1,0.8c0.2,0.2,0.4,0.3,0.7,0.2l6.7-3.8l-0.2-1.2c-0.1,0-0.2,0-0.2,0.1&#10;&#9;&#9;L403.2,237.7z"/>
	<path class="st6_marketing-4-84" d="M440.8,191.3c0,0,0.4,1.9,3.3,2.2s3.9-0.8,3.9-0.8l-1-14.4L440.8,191.3z"/>
	<path class="st7_marketing-4-84" d="M447,178.4l-2.9,6c0.9,0.9,2.2,1.1,3.3,0.5L447,178.4z"/>
	<path class="st6_marketing-4-84" d="M424.4,177.9c0,0,0.7,1.8,3.6,1.7s3.7-1.4,3.7-1.4l-3.2-14.1L424.4,177.9z"/>
	<path class="st7_marketing-4-84" d="M428.5,164.2l-1.9,6.4c1,0.8,2.4,0.8,3.4-0.1L428.5,164.2z"/>
	<path class="st8_marketing-4-84 targetColor" d="M419.3,243.9c-17.1,0-31.1-4.3-32.4-9.8c0.9,6.6,6.7,51.7,6.9,51.9c0,0,3,12.7,25.5,12.7&#10;&#9;&#9;c19.1,0,24.6-9.6,24.6-9.6l7.8-54.9C450.2,239.6,436.3,243.9,419.3,243.9z" style="fill: rgb(104, 225, 253);"/>
</g>
<g id="phone_marketing-4-84">
	
		<linearGradient id="SVGID_00000130621082568039084560000009513143260822615717_-marketing-4-84" gradientUnits="userSpaceOnUse" x1="246.4832" y1="186.0769" x2="270.2232" y2="211.2069" gradientTransform="matrix(1 0 0 -1 0 502)">
		<stop offset="0" style="stop-color:#ACF4E6;stop-opacity:0"/>
		<stop offset="1" style="stop-color:#22B573"/>
	</linearGradient>
	
		<polygon style="opacity:0.63;fill:url(#SVGID_00000130621082568039084560000009513143260822615717_);enable-background:new    ;" points="&#10;&#9;&#9;329.7,304.9 269.1,337.3 201.9,286.1 264.2,254.1 &#9;"/>
	<path class="st8_marketing-4-84 targetColor" d="M255.6,72.4c17.5,10.4,60.7,36,73.7,43.5c2.2,1.3,3.6,3.7,3.6,6.3v177.6c0.3,3.6-3.8,7-7.2,5.1l-72.7-41.4&#10;&#9;&#9;c-2.9-1.7-4.8-4-4.8-7.4V76.6c0-2.7,2.2-4.9,4.9-4.9C253.9,71.7,254.8,71.9,255.6,72.4z" style="fill: rgb(104, 225, 253);"/>
	<path class="st2_marketing-4-84" d="M248.6,74.5l23.1,13.4v4.9c0,0.8,0.5,1.6,1.2,2l17.7,10.2c0.8,0.4,1.7,0.2,2.1-0.6c0.1-0.2,0.2-0.5,0.2-0.8&#10;&#9;&#9;v-3.6l33.2,19.5c0.6,0.4,1,1.1,1,1.8v177.5c0,0.8-0.6,1.4-1.4,1.4c-0.3,0-0.5-0.1-0.7-0.2l-77-44.6c-0.3,2.8,1,5.5,3.4,7.1&#10;&#9;&#9;c4,2.5,74.1,42.2,74.1,42.2s5.5,2.5,7.2-4.1V122.2c0-2.3-1.1-4.5-3-5.9c-3.2-2.3-74.2-43.9-74.2-43.9S251.1,70,248.6,74.5z"/>
	<path class="st10_marketing-4-84" d="M300.2,180.8c0,17.8-6.6,32.2-14.8,32.2s-14.8-14.4-14.8-32.2s6.6-32.2,14.8-32.2S300.2,163.1,300.2,180.8z"/>
	<path class="st5_marketing-4-84" d="M299.1,167c-0.1-0.1-0.3-0.2-0.5-0.3c-2.4-1.1-39.9,1.3-39.9,1.3l23.6,37.2c0,0,14.5-18.1,18.1-25.7&#10;&#9;&#9;C300.5,175.2,300,171.1,299.1,167z"/>
	<path class="st4_marketing-4-84" d="M247.8,180c0.1-0.4,3.9-17.8,21.3-10.4c15.7,6.7,16.1,26.7,15.1,31.6c-0.9,4-4.9,9.4-12.8,11.3"/>
	
		<ellipse transform="matrix(0.9176 -0.3975 0.3975 0.9176 -54.2681 120.7523)" class="st7_marketing-4-84" cx="264.2" cy="191.3" rx="16" ry="22.5"/>
	<path class="st5_marketing-4-84" d="M281,192.3l-17,4.4l-3.7-7.9l15.4-9.6C275.6,179.3,280,186,281,192.3z"/>
	
		<ellipse transform="matrix(0.8915 -0.4531 0.4531 0.8915 -58.8221 139.7878)" class="st10_marketing-4-84" cx="262.4" cy="192.7" rx="3.5" ry="4.4"/>
	<path class="st4_marketing-4-84" d="M229,173.4l8.7,6.3c3,2.2-0.4,6.9-3.4,4.7l-8.7-6.3C222.6,176,226,171.3,229,173.4z"/>
	<path class="st4_marketing-4-84" d="M217,196.7l14.3-2.3c3.7-0.6,4.6,5.1,0.9,5.7l-14.3,2.3C214.2,203,213.3,197.3,217,196.7z"/>
	<path class="st4_marketing-4-84" d="M233.7,215.8l5.8-7.6c2.3-3,7,0.4,4.7,3.4c-1.9,2.5-3.9,5-5.8,7.6C236.1,222.2,231.4,218.8,233.7,215.8z"/>
</g>
<g id="person_marketing-4-84">
	
		<linearGradient id="SVGID_00000082343607653003154010000014216551807308030384_-marketing-4-84" gradientUnits="userSpaceOnUse" x1="101.2087" y1="172.7576" x2="134.2787" y2="195.9776" gradientTransform="matrix(1 0 0 -1 0 502)">
		<stop offset="0" style="stop-color:#ACF4E6;stop-opacity:0"/>
		<stop offset="1" style="stop-color:#22B573"/>
	</linearGradient>
	<path style="opacity:0.63;fill:url(#SVGID_00000082343607653003154010000014216551807308030384_);enable-background:new    ;" d="&#10;&#9;&#9;M116.8,345.4l32.2-15.2L120.2,290L66,319.5C83.2,327.4,99.8,337,116.8,345.4z"/>
	<path class="st6_marketing-4-84" d="M107.8,175.4c0,0.1,6-10.3,5.1-19.6s-12.6-2.6-12.6-2.6"/>
	<path class="st12_marketing-4-84" d="M107.8,175.4c0,0.1,6-10.3,5.1-19.6s-12.6-2.6-12.6-2.6"/>
	<path class="st8_marketing-4-84 targetColor" d="M111.2,128.7c0,0-10,4.8-11,26.9c0,0,10.5,2.1,15.1,0.9" style="fill: rgb(104, 225, 253);"/>
	<path class="st6_marketing-4-84" d="M130.3,225.9c0,0,3.4,27.7,5.3,34.8s3.6,51.6,3.6,51.6s6,4.3,11.1,0c0,0,2.7-36.1,1.3-45.7s0-47.6,0-47.6"/>
	<path class="st6_marketing-4-84" d="M110.8,217.9c0,0-0.7,20.4,0,27.2s3.6,49.4,3.6,49.4s4.9,4.3,9.9,0c0,0,3.3-21.1,2.9-25.2s-1.1-55-1.1-55"/>
	<path class="st4_marketing-4-84" d="M131.7,116c0,0.1,24.7,22.4,17.3,30.3s-17.3-2.9-17.3-2.9l-3.1-25.3"/>
	<path class="st10_marketing-4-84" d="M130.3,328.2c-1,2.2-0.6,4.7,1.1,6.4c2.8,3,6.6,1.5,9.7,0s12-9.5,10.8-11.5s-1.7-10.8-1.7-10.8"/>
	<path class="st8_marketing-4-84 targetColor" d="M139.1,308.9c0,0-1.4,8.2-3.5,10.9s-6.9,9.2-5.3,10.9s2.7-3.4,5.3-1.9s1.8,5.1,3.6,4.4s10.6-7.6,11.5-12&#10;&#9;&#9;s-1.2-12.1-1.2-12.1" style="fill: rgb(104, 225, 253);"/>
	<path class="st10_marketing-4-84" d="M99.1,306.5c0,0-0.4,4.9,4.1,5.8s9.9-1.8,12.4-2.9s11.5-8.8,11.5-8.8l-1.1-10.6"/>
	<path class="st8_marketing-4-84 targetColor" d="M114,289.2c0,0-2.7,6.6-7.4,9.1s-8.5,7.3-7.5,8.2s3.4-2.3,4.6-1.4s1.2,4.8,2.7,3.8s4.7,1.5,9.2-1.5&#10;&#9;&#9;s3-4.3,6.8-5.7s3.7-11.7,3.7-11.7S116.7,292,114,289.2z" style="fill: rgb(104, 225, 253);"/>
	<path class="st5_marketing-4-84" d="M109.9,180.7c-2.2,6.6-3.5,13.6-3.8,20.6c-0.7,12.4,4.3,84.8,4.3,84.8c7.4,2.8,15.5,3.2,23.1,1.2v16.6&#10;&#9;&#9;c0,0,12.8,4.1,26.7-4.8c0,0-2.2-104-17.4-117"/>
	<path class="st8_marketing-4-84 targetColor" d="M144,136.7c-2-7.1-13.4-9.6-26.3-9.2c-2.2,0-4.4,0.4-6.4,1.3c-4.5,6.5-3.5,15.4-2.8,22.9&#10;&#9;&#9;c0.8,8.4,0.9,23.4,1.5,29c11.6,6,29.8,2,33,1.4C142.9,182.1,146,143.8,144,136.7z" style="fill: rgb(104, 225, 253);"/>
	<path class="st6_marketing-4-84" d="M126.5,122.1l0.7,6.7c0,0-4.6,2.8-8.6,0.9l-0.6-4.2"/>
	<path class="st12_marketing-4-84" d="M126.5,122.1l0.7,6.7c0,0-4.6,2.8-8.6,0.9l-0.6-4.2"/>
	<path class="st4_marketing-4-84" d="M116.6,120.1c-10.4,1.2-9.6-7.2-9.6-7.2c-1.7-17.6,17.2-14.3,17.2-14.3s14.2,3.3,5.4,21"/>
	<path class="st6_marketing-4-84" d="M108.9,106.6c0,0,0.8,21.8,9.7,20.7s8.4-8.4,8.4-8.4s1.3-13.6-6.2-16.1S108.9,106.6,108.9,106.6z"/>
	<path class="st4_marketing-4-84" d="M108.9,106.6c0,0,5.2,7.8,11.6,7.2s6,8.3,6,8.3s6.2-2.8,6.1-11.2c-0.1-4.8-6.7-12.6-12.9-12.3&#10;&#9;&#9;S107.4,102.2,108.9,106.6z"/>
	<path class="st8_marketing-4-84 targetColor" d="M140.4,131.6c5.1,4.6,9.6,10,13.1,16c0,0-6.1,8.2-12.4,10.2s0-0.9,0-0.9s-6.4-4.4-7.4-8.3&#10;&#9;&#9;S140.4,131.6,140.4,131.6z" style="fill: rgb(104, 225, 253);"/>
	<path class="st7_marketing-4-84" d="M92.2,138.8c-0.1-0.6,0.2-1.2,0.8-1.3c0.3-0.1,0.6,0,0.9,0.1c2.9,1.9,7.2,4.7,7.2,4.7s3.6,13.5,3.6,13.5&#10;&#9;&#9;l-9.6-5.7L92.2,138.8z"/>
	<path class="st6_marketing-4-84" d="M101.2,158.6c0,0,4.7-2.5,4.9-4.4s-2.4-5.6-3.6-6.2s-6.2,2.9-6.2,2.9l-2.4-5c-0.5,1-0.8,2.2-0.8,3.4&#10;&#9;&#9;c0.2,1.5,0.8,12.8,2.5,14.3s6.6,1.2,6.9,0S101.2,158.6,101.2,158.6z"/>
	<path class="st6_marketing-4-84" d="M94.5,160.5c0,0,2.7,14.8,5.8,16.9c2.6,1.6,5.9,0.8,7.5-1.8c0.7-1.2,1-2.6,0.7-4c-0.9-5.8-6.9-14.6-6.9-14.6"/>
	<path class="st7_marketing-4-84" d="M127.9,206.5c-0.1-1-1.7-1-1.6,0c3,27.8,5.3,55.6,7,83.4c0.1,1,1.6,1,1.6,0C133.2,262,130.9,234.2,127.9,206.5&#10;&#9;&#9;z"/>
	<path class="st3_marketing-4-84" d="M110.5,144.9c-0.5,1.2,5.3,22.4,5.3,22.4l17.4,1.7l-4.4-22.6L110.5,144.9z"/>
	<path class="st6_marketing-4-84" d="M152.6,148.5c-3.6,3.1-5.4,5.4-9.1,8.3l4.6,10l-15.5-6.6c0,0-1.7-10.2-3.2-10.3s-0.6,6.2-0.9,7.7&#10;&#9;&#9;s-7.3-8.4-8.2-7.7s1.7,11.2,2.2,13.2s6,5.2,6,5.2s14.5,6,18.6,8s12.8,0.9,12.4-5.8C159.2,166.2,155,154.2,152.6,148.5z"/>
</g>
<g id="growth_marketing-4-84">
	
		<linearGradient id="SVGID_00000011004193582812968930000002366070007444026805_-marketing-4-84" gradientUnits="userSpaceOnUse" x1="225.8782" y1="113.7017" x2="257.2382" y2="146.8817" gradientTransform="matrix(1 0 0 -1 0 502)">
		<stop offset="0" style="stop-color:#ACF4E6;stop-opacity:0"/>
		<stop offset="1" style="stop-color:#22B573"/>
	</linearGradient>
	
		<polygon style="opacity:0.63;fill:url(#SVGID_00000011004193582812968930000002366070007444026805_);enable-background:new    ;" points="&#10;&#9;&#9;313.7,352.8 227.9,393.4 189.1,369.8 276.6,337.3 &#9;"/>
	<path class="st3_marketing-4-84" d="M298.7,312.5l34.1,20.6c0,0-15.4,29.8-52.5,28.2s-56-52.4-56-52.4l22.8,11l-36.6-53.4l-33.4,19.5l27.8,14.7&#10;&#9;&#9;C205,300.8,241.7,381.4,298.7,312.5z"/>
	<path class="st3_marketing-4-84" d="M205,300.8c0,0,26,57.1,75.3,60.6c0,0-48.8-16.7-55.9-52.3"/>
	<path class="st14_marketing-4-84" d="M205,300.8c0,0,26,57.1,75.3,60.6c0,0-48.8-16.7-55.9-52.3"/>
</g>
</svg>