<svg version="1.1" id="Layer_1" xmlns="http://www.w3.org/2000/svg" xmlns:xlink="http://www.w3.org/1999/xlink" x="0px" y="0px" viewBox="0 0 500 500" style="width: 144px;" xml:space="preserve" data-imageid="school-19" imageName="School" class="illustrations_image">
<style type="text/css">
	.st0_school-19{fill:#E0B190;}
	.st1_school-19{opacity:0.32;fill:url(#SVGID_1_);enable-background:new    ;}
	.st2_school-19{opacity:0.32;fill:url(#SVGID_00000156582473092953538040000017553694747168757667_);enable-background:new    ;}
	.st3_school-19{opacity:0.32;fill:url(#SVGID_00000003821972474336185000000001104716300588699284_);enable-background:new    ;}
	.st4_school-19{fill:#173743;}
	.st5_school-19{opacity:0.37;fill:#942500;enable-background:new    ;}
	.st6_school-19{fill:#196132;}
	.st7_school-19{fill:#FF9A22;}
	.st8_school-19{fill:#68E1FD;}
	.st9_school-19{fill:#942500;}
	.st10_school-19{fill:#E27623;}
	.st11_school-19{fill:#FDBA45;}
	.st12_school-19{fill:#FFE8BC;}
	.st13_school-19{fill:none;}
	.st14_school-19{opacity:0.42;fill:#173743;enable-background:new    ;}
	.st15_school-19{fill:#F26250;}
	.st16_school-19{opacity:0.36;fill:#173743;enable-background:new    ;}
</style>
<polygon id="Base_school-19" class="st0_school-19" points="50.7,327.8 238.5,435.3 452.8,310.6 265.8,202.6 "/>
<g id="Shadow_school-19">
	
		<linearGradient id="SVGID_1_-school-19" gradientUnits="userSpaceOnUse" x1="238.0252" y1="-605.9175" x2="295.5452" y2="-643.2675" gradientTransform="matrix(1 0 0 1 0 932.0699)">
		<stop offset="0" style="stop-color:#FDBA45;stop-opacity:3.000000e-02"/>
		<stop offset="1" style="stop-color:#942500"/>
	</linearGradient>
	<path class="st1_school-19" d="M257.6,344.1c6.2-3.8,12.3-7.7,18.4-11.6c10.4-6.8,22-13.2,31.6-21.3L256.2,283l-49,41.6&#10;&#9;&#9;c10.1,5.3,23.8,12.6,43.7,23.5C253.1,346.8,255.4,345.5,257.6,344.1z"/>
	
		<linearGradient id="SVGID_00000013888425118193410300000004692334215667487145_-school-19" gradientUnits="userSpaceOnUse" x1="347.0237" y1="-587.8765" x2="381.2237" y2="-623.6865" gradientTransform="matrix(1 0 0 1 0 932.0699)">
		<stop offset="0" style="stop-color:#FDBA45;stop-opacity:3.000000e-02"/>
		<stop offset="1" style="stop-color:#942500"/>
	</linearGradient>
	<path style="opacity:0.32;fill:url(#SVGID_00000013888425118193410300000004692334215667487145_);enable-background:new    ;" d="&#10;&#9;&#9;M365.7,351c6.2-3.8,12.3-7.7,18.4-11.6c10.4-6.8,22-13.2,31.6-21.3L367.1,305l-51.8,26.5c10.1,5.3,23.8,12.6,43.7,23.5&#10;&#9;&#9;C361.2,353.6,363.5,352.4,365.7,351z"/>
	
		<linearGradient id="SVGID_00000161597994127902717270000005706813244083631525_-school-19" gradientUnits="userSpaceOnUse" x1="180.332" y1="-544.5594" x2="204.192" y2="-616.0993" gradientTransform="matrix(1 0 0 1 0 932.0699)">
		<stop offset="0" style="stop-color:#FDBA45;stop-opacity:3.000000e-02"/>
		<stop offset="1" style="stop-color:#942500"/>
	</linearGradient>
	<path style="opacity:0.32;fill:url(#SVGID_00000161597994127902717270000005706813244083631525_);enable-background:new    ;" d="&#10;&#9;&#9;M202.9,410.7c21-11.3,70.6-36.2,91.4-47.8l-146.9-51.8l-59.3,35.5C110.1,358.2,172.6,392,202.9,410.7z"/>
</g>
<g id="Pencil_Case_school-19">
	<path class="st4_school-19" d="M389.6,247.4c-19.1,0-34.6,5.1-34.6,11.3h69.3C424.2,252.4,408.7,247.4,389.6,247.4z"/>
	<path class="st4_school-19" d="M355,259.5l-0.1-0.9C354.9,259,355,259.3,355,259.5z"/>
	<path class="st4_school-19" d="M424.2,258.7l-0.1,1C424.2,259.3,424.2,259,424.2,258.7z"/>
	<path class="st4_school-19" d="M389.6,270c18.1,0,33-4.5,34.5-10.3l0.1-1h-69.3l0.1,0.9C356.4,265.4,371.3,270,389.6,270z"/>
	<path class="st5_school-19" d="M389.6,247.4c-19.1,0-34.6,5.1-34.6,11.3h69.3C424.2,252.4,408.7,247.4,389.6,247.4z"/>
	<path class="st5_school-19" d="M389.6,270c18.1,0,33-4.5,34.5-10.3l0.1-1h-69.3l0.1,0.9C356.4,265.4,371.3,270,389.6,270z"/>
	<rect x="395" y="200.2" class="st6_school-19" width="7.8" height="80.4"/>
	<ellipse class="st6_school-19" cx="398.9" cy="200.2" rx="3.9" ry="1.6"/>
	<rect x="368.1" y="250.2" transform="matrix(0.2001 -0.9798 0.9798 0.2001 77.581 603.3)" class="st7_school-19" width="80.4" height="7.8"/>
	
		<ellipse transform="matrix(0.2001 -0.9798 0.9798 0.2001 122.5894 579.6901)" class="st7_school-19" cx="416.3" cy="214.8" rx="1.6" ry="3.9"/>
	<path class="st8_school-19 targetColor" d="M380.1,260.4l-7.1,4.1c-0.3,0.2-0.7,0.1-0.9-0.2c-0.2-0.3-0.1-0.7,0.2-0.9c0,0,0,0,0,0l0,0l7.3-4.2&#10;&#9;&#9;c0.1,0,0.1-0.1,0.2-0.1l-1.4-7.7l-7.2,4.1c-0.3,0.2-0.7,0-0.9-0.3c-0.2-0.3-0.1-0.6,0.2-0.8l7.3-4.2c0.1,0,0.2-0.1,0.3-0.1&#10;&#9;&#9;l-1.3-7.1l-7,4c-0.3,0.2-0.7,0-0.9-0.3c-0.2-0.3-0.1-0.6,0.2-0.8l7.3-4.2h0.1l-1.5-7.9l-7,4c-0.3,0.2-0.7,0.1-0.9-0.2&#10;&#9;&#9;c-0.2-0.3-0.1-0.7,0.2-0.9l7.3-4.2h0.1l-1.4-7.8l-7.1,4.2c-0.3,0.2-0.7,0.1-0.9-0.2c-0.2-0.3-0.1-0.7,0.2-0.9c0,0,0,0,0,0l7.3-4.2&#10;&#9;&#9;c0.1,0,0.1-0.1,0.2-0.1l-1.2-6.7l-7.1,4c-0.3,0.2-0.7,0.1-0.9-0.2c0,0,0,0,0,0c-0.2-0.3-0.1-0.7,0.2-0.9l7.3-4.2&#10;&#9;&#9;c0.1,0,0.2-0.1,0.2-0.1l-1.2-6.7l-7.1,4.1c-0.3,0.2-0.7,0-0.9-0.3c-0.2-0.3-0.1-0.6,0.2-0.8l7.3-4.2c0.1,0,0.1-0.1,0.2-0.1&#10;&#9;&#9;l-1.4-7.4l-7,4c-0.3,0.2-0.7,0.1-0.9-0.2c0,0,0,0,0,0c-0.2-0.3-0.1-0.7,0.2-0.9l7.3-4.2h0.1l-0.6-3.4l-15.4,9.6&#10;&#9;&#9;c0,0,11,61.1,11.2,61.2c6.4,3.3,18.1,3.8,18.1,3.8L380.1,260.4z" style="fill: rgb(104, 225, 253);"/>
	<path class="st9_school-19" d="M361.3,203.1c-0.3,0.2-0.4,0.6-0.2,0.9c0.2,0.3,0.5,0.4,0.8,0.2l7-4l-0.2-1.3h-0.1L361.3,203.1z"/>
	<path class="st9_school-19" d="M362.9,211.8c-0.3,0.2-0.4,0.6-0.2,0.9c0.2,0.3,0.5,0.4,0.8,0.2l7.1-4.1l-0.2-1.3c-0.1,0-0.1,0-0.2,0.1&#10;&#9;&#9;L362.9,211.8z"/>
	<path class="st9_school-19" d="M364.3,219.8c-0.3,0.2-0.4,0.5-0.2,0.8c0,0,0,0,0,0c0.2,0.3,0.6,0.4,0.9,0.2l7.1-4.1l-0.2-1.3&#10;&#9;&#9;c-0.1,0-0.2,0-0.2,0.1L364.3,219.8z"/>
	<path class="st9_school-19" d="M365.8,227.8c-0.3,0.2-0.4,0.6-0.2,0.9c0,0,0,0,0,0c0.2,0.3,0.6,0.4,0.9,0.2l7.1-4.1l-0.2-1.3&#10;&#9;&#9;c-0.1,0-0.2,0-0.2,0.1L365.8,227.8z"/>
	<path class="st9_school-19" d="M367.6,236.8c-0.3,0.2-0.4,0.6-0.2,0.9c0.2,0.3,0.6,0.4,0.9,0.2l7-4l-0.2-1.3h-0.1L367.6,236.8z"/>
	<path class="st9_school-19" d="M369.3,246c-0.3,0.2-0.4,0.6-0.2,0.9c0.2,0.3,0.5,0.4,0.8,0.2l7-4l-0.2-1.3h-0.1L369.3,246z"/>
	<path class="st9_school-19" d="M378,250.3l-7.3,4.2c-0.3,0.2-0.4,0.6-0.2,0.9c0.2,0.3,0.6,0.4,0.9,0.2l7.2-4.1l-0.2-1.2&#10;&#9;&#9;C378.2,250.3,378.1,250.3,378,250.3z"/>
	<path class="st9_school-19" d="M372.4,263.4c-0.3,0.2-0.4,0.6-0.2,0.9c0.2,0.3,0.5,0.4,0.8,0.2l7.1-4.1l-0.2-1.3c-0.1,0-0.2,0-0.2,0.1&#10;&#9;&#9;L372.4,263.4z"/>
	<path class="st0_school-19" d="M412.5,214c0,0,0.4,2,3.5,2.4s4.2-0.8,4.2-0.8l-1-15.4L412.5,214z"/>
	<path class="st9_school-19" d="M419.1,200.2l-3.1,6.4c0.9,1,2.4,1.2,3.5,0.5L419.1,200.2z"/>
	<path class="st0_school-19" d="M395,199.8c0,0,0.7,2,3.8,1.8s4-1.5,4-1.5l-3.4-15L395,199.8z"/>
	<path class="st9_school-19" d="M399.4,185.1l-2,6.8c1.1,0.8,2.6,0.8,3.6-0.1L399.4,185.1z"/>
	<path class="st4_school-19" d="M389.6,270c-18.2,0-33.1-4.6-34.5-10.5c0.9,7,7.1,55,7.4,55.3c0,0,3.2,13.5,27.2,13.5&#10;&#9;&#9;c20.4,0,26.2-10.2,26.2-10.2l8.3-58.5C422.5,265.5,407.7,270,389.6,270z"/>
</g>
<g id="Blackboard_school-19">
	<polygon class="st4_school-19" points="236.7,182.4 236.7,64.7 49.7,172.8 49.7,290.5 &#9;"/>
	<polygon class="st10_school-19" points="236.7,176.9 50.8,283.3 50.8,294.8 240.2,187.4 240.7,178.5 &#9;"/>
	<polyline class="st10_school-19" points="54.1,285.3 51,283.2 47.2,285.1 54.2,289.1 &#9;"/>
	<polyline class="st10_school-19" points="47.2,285.1 47.2,292.1 50.8,294.8 51.7,285.1 &#9;"/>
</g>
<g id="Character_school-19">
	<polyline class="st10_school-19" points="239.3,278.9 271,295.5 272,303.4 238.4,284.4 &#9;"/>
	<path class="st10_school-19" d="M238,266l-13.1,47.1l2.4,1.4c0.6-0.3,1.2-0.7,1.8-1.1c0.7-0.5,17-49.5,17-49.5"/>
	<polyline class="st10_school-19" points="268.1,256.8 277.1,284.7 276.3,340.4 274.3,341.7 271.5,340 269.5,284.7 261.4,256.8 &#9;"/>
	<path class="st11_school-19" d="M233.1,253.5c0,0-1,6.2,1.1,9.6s7.8-5.1,7.8-5.1"/>
	<polyline class="st10_school-19" points="262.7,219.8 261.4,242.4 267.3,245.5 268.4,221.3 &#9;"/>
	<polyline class="st10_school-19" points="299.8,236.5 303.8,267 307.8,311.8 305.2,313.3 302.7,311.7 296.9,267.6 293.1,236.5 &#9;"/>
	<path class="st11_school-19" d="M295.8,240.2c1.7,0.5,5.2-2.1,6.3-3.8c5.9-9.2,4.2-21.7-6.4-27.6c-4.7-2.6-9.5-5.2-14.1-7.8&#10;&#9;&#9;c-4.1-2.4-8.5-4.4-12.5-7c-0.5-0.4-1.1-0.7-1.7-0.9c-2.2-0.6-4.6,0.2-6,2"/>
	<path class="st11_school-19" d="M296.2,239.9c2.8-0.1,4.4-3.8,5.3-6c2.3-6,2.8-17.6-4.2-21c-0.3-0.1-0.5-0.4-0.5-0.7l-13.2-7.6l-10.2-5.9&#10;&#9;&#9;c-1.8-1-3.5-2.2-5.3-3.2s-3.6-2.2-5.5-1.1s-2.5,3.8-2.8,6c-0.9,5.3-0.6,10.7,0.8,15.8c1.2,3.3,3.7,6,6.8,7.5l9.5,5.5l17.6,10.2&#10;&#9;&#9;c0.3,0.2,0.6,0.3,0.9,0.4C295.7,239.8,296,239.9,296.2,239.9z"/>
	<path class="st11_school-19" d="M298.1,264.3l0.5,0.3c1.5,0.7,2.8,1.8,3.9,3c2.7,3.4,0.1,7.2-2.6,9.5c-7.2,6.4-18,11.6-27.8,9.2&#10;&#9;&#9;c-8.4-2.3-16.4-5.8-23.8-10.5c-6.1-3.6-13.7-8.1-15.3-15.6c-0.6-3.4,0.5-6.9,2.9-9.4c15.3-17.7,36.7-1.1,51.8,7.6L298.1,264.3z"/>
	<path class="st11_school-19" d="M303.5,265c0.4,2.1,0.6,4.3,0.3,6.5c-1,2.4-2.5,4.5-4.4,6.3c-1.8,1.4-0.7-8.5-0.7-8.5"/>
	<path class="st11_school-19" d="M298.1,260l0.5,0.3c1.5,0.7,2.8,1.8,3.9,3c2.7,3.4,0.1,7.2-2.6,9.5c-7.2,6.4-18,11.6-27.8,9.2&#10;&#9;&#9;c-8.4-2.3-16.4-5.8-23.8-10.5c-6.1-3.6-13.7-8.1-15.3-15.6c-0.6-3.4,0.5-6.9,2.9-9.4c15.3-17.7,36.7-1.1,51.8,7.6L298.1,260z"/>
	<path class="st6_school-19" d="M263.8,344.2l-5.8-2.7c0,0-0.6-5,1.4-6.1S263.8,344.2,263.8,344.2z"/>
	<path class="st6_school-19" d="M249.6,330.2c0,0-0.5,12.4-1.4,13.7s-11.7,7.3-12.6,9.5s12.3-0.5,16.6-1.6c4.3-1.2,8.3-3.4,8.4-5.1&#10;&#9;&#9;s-1.8-9.9-0.2-9.8s3.4,7.3,3.4,7.3l3.8-2.3l-9.1-28.8"/>
	<path class="st6_school-19" d="M237.5,332.5l-5.8-2.7c0,0-0.6-5,1.4-6.1S237.5,332.5,237.5,332.5z"/>
	<path class="st6_school-19" d="M223.2,318.5c0,0-0.5,12.4-1.4,13.7s-11.7,7.3-12.6,9.5s12.3-0.5,16.6-1.6s8.3-3.4,8.4-5.1s-1.8-9.9-0.2-9.8&#10;&#9;&#9;s3.4,7.3,3.4,7.3l3.8-2.3l-9.1-28.8"/>
	<path class="st12_school-19" d="M263.8,224.8c2.1,1.9,7.4,28.7,4.5,41.7c-2.9,13-34.1,19.1-34.1,19.1l8.1,32.8c0,0-11.8,9.4-23.4,5.9&#10;&#9;&#9;c-4.2-1.3-14.7-48.3-11.2-55s45-30.4,45-30.4"/>
	<path class="st12_school-19" d="M288.8,234.1c2.1,1.9,8.2,16.9,0.8,35.7c-4.9,12.4-32.7,21.6-32.7,21.6l10.4,36.3c0,0-12.3,10.7-23.4,5.9&#10;&#9;&#9;s-15.2-49.5-11.7-56.2s39.4-30.7,39.4-30.7"/>
	<path class="st7_school-19" d="M278,198.1c0,0,21,8.2,15.8,37.7c-3.6,20.8-24.1,23.6-24.1,23.6s-13.7-8.2-12.2-11.1l18.1-9.9l-21-10l-14.5,16&#10;&#9;&#9;l-10.9-8.1c0,0,14.9-24.6,21.4-34.7S278,198.1,278,198.1z"/>
	<line class="st13_school-19" x1="219.2" y1="233.8" x2="221.1" y2="231.9"/>
	<path class="st12_school-19" d="M252.3,248.7l3.6-3c0,0-8.3-7.3-19.4-6.1c-3-4.4-7.5-7.7-12.7-9.2l-4.5,3.4"/>
	<polyline class="st12_school-19" points="255.8,245.7 259.2,266.8 252.8,270.5 247.2,251.3 &#9;"/>
	<path class="st8_school-19 targetColor" d="M252.3,248.7l3.5,20l-3,1.8c0,0-31.5-16.4-31.2-16.7s-2.3-20-2.3-20" style="fill: rgb(104, 225, 253);"/>
	<polygon class="st8_school-19 targetColor" points="221.4,232.1 252.3,248.7 249.4,250.4 219.2,233.8 &#9;" style="fill: rgb(104, 225, 253);"/>
	<polygon class="st14_school-19" points="221.4,232.1 252.3,248.7 249.4,250.4 219.2,233.8 &#9;"/>
	<path class="st11_school-19" d="M248.4,251.6c-0.3-0.9,0.3-1.8,1.1-2.1c0.3-0.1,0.6-0.1,0.8,0c2.4,0.8,4.9,1.2,7.4,1.1c0.3,0,0.5,0,0.8,0.2&#10;&#9;&#9;h0.1c2.4,2.3,5.1,4.4,8,6.1l-0.8,0.4c-1.1,2.2-2.3,4.4-3.7,6.4c-0.7,0.9-1.7,1.5-2.9,1.5c-0.4,0.3-0.8,0.6-1.2,0.8&#10;&#9;&#9;c-1.2,0.7-2.7,0.6-3.8-0.3c-0.4,0.3-0.9,0.4-1.3,0.3c-0.6,0.3-1.3,0.3-1.9-0.1c-1.6-0.9-2.2-2.8-1.4-4.5c-1.1-1.2-1.2-3.1-0.2-4.4&#10;&#9;&#9;c0.7-1,1.5-1.9,2.5-2.6C250.3,254.3,248.9,253.1,248.4,251.6z"/>
	<path class="st11_school-19" d="M218.3,245.2c-0.2-0.3-0.4-0.5-0.5-0.8c-0.5-0.7-0.3-1.7,0.5-2.2c0.1,0,0.2-0.1,0.2-0.1l0.2-0.2&#10;&#9;&#9;c-0.3-0.8-0.1-1.7,0.6-2.1c0.5-0.3,1.1-0.3,1.6-0.1c0.1,0,0.3,0.1,0.4,0.2c1.2,0.7,2.1,1.8,2.6,3.1c0.2,0.7-0.1,1.5-0.7,1.9&#10;&#9;&#9;c-0.2,0.1-0.4,0.2-0.6,0.2l0,0c0.6,0.8,1.1,1.6,1.4,2.5c0.5,1.1-0.7,2.2-1.8,2.1l0.2,0.3c0.9,1.2-0.5,2.8-1.8,2.5&#10;&#9;&#9;c-0.9-0.3-1.7-0.9-2.1-1.8c-0.6-1-1.1-1.9-1.6-2.9c-0.4-0.9,0-1.9,0.8-2.3C218,245.3,218.2,245.3,218.3,245.2z"/>
	<path class="st7_school-19" d="M253.8,220.9c0,0-0.1,18.7,1.1,20.7s21.1,10,21.1,10l11.9-15.6L253.8,220.9z"/>
	<path class="st6_school-19" d="M263.1,188.7c0,0-3.3,7.6-1.9,10.3s8.7,0.7,8.7,0.7"/>
	<path class="st11_school-19" d="M262.4,184.9c0,0,0.1,15.4,6.5,16.9s9.5-6.4,9.5-6.4s1-10.4-1-12.6S265.7,180.4,262.4,184.9z"/>
	<path class="st6_school-19" d="M259.9,183.2c0,0,4.4,5.9,7,7.4s5.4,0.5,6.3,2.6s-1.9,14.5,1,16.8s8.4-4.6,11-1.4s1.4,9.3,5.3,10.5&#10;&#9;&#9;s8.4-4.9,4.6-9.6s-4.2-7.1-2.1-8.7c3.1-2.4-0.4-11.1-4.1-12.6s-5-10-11.7-11.9S261.3,178.4,259.9,183.2z"/>
	<path class="st15_school-19" d="M255.1,215c0.2,8.6,0.5,17.2,1.1,25.8c0,0.4-0.4,0.7-0.9,0.7c-0.4,0-0.6-0.3-0.7-0.7&#10;&#9;&#9;c-0.5-8.6-0.9-17.2-1.1-25.8c0-0.4,0.3-0.8,0.8-0.8C254.8,214.2,255.1,214.6,255.1,215z"/>
	<path class="st15_school-19" d="M257.8,247.8c9.9-4.7,17-13.9,19.1-24.6c0.2-1,1.7-0.6,1.5,0.4c-2.2,11.1-9.5,20.6-19.7,25.5&#10;&#9;&#9;C257.7,249.5,256.9,248.2,257.8,247.8z"/>
	<path class="st4_school-19" d="M101.9,284.4c0.1,27.8,0.2,52.7,0.2,52.7s0.6,2.2,4.8,0.4v-54.7C105.2,283.3,103.5,283.9,101.9,284.4z"/>
	<path class="st4_school-19" d="M217.9,351.8c0.1,27.8,0.2,52.7,0.2,52.7s0.6,2.3,4.8,0.4v-54.7C221.2,350.8,219.5,351.3,217.9,351.8z"/>
	<path class="st4_school-19" d="M289.3,309.8c0.1,27.8,0.2,52.7,0.2,52.7s0.6,2.2,4.8,0.4v-54.7C292.7,308.8,291,309.3,289.3,309.8z"/>
	<polyline class="st8_school-19 targetColor" points="100.9,282.8 100.9,287.5 220.6,356.7 294.2,308.4 294.3,303.1 &#9;" style="fill: rgb(104, 225, 253);"/>
	<polyline class="st16_school-19" points="100.9,282.8 100.9,287.5 220.6,356.7 294.2,308.4 294.3,303.1 &#9;"/>
	<polygon class="st8_school-19 targetColor" points="100.9,282.8 177.9,238.8 294.3,303.1 220.2,352 &#9;" style="fill: rgb(104, 225, 253);"/>
</g>
<g id="Books_school-19">
	<path class="st10_school-19" d="M206.9,284.2c0.1,0,1.2-0.4,0.3-1.1c-0.6-0.5-1.2-0.9-1.9-1.3"/>
	<path class="st12_school-19" d="M206.9,278.5c0,0-0.9,3.4,0,5.1l-12.3,7.2l-12.1,7v-5.2"/>
	<path class="st10_school-19" d="M207.2,278c0,0.2,0,0.5-0.1,0.7l-24.7,14v5.2l24.7-14.4v0.6L181.4,299v-7L207.2,278z"/>
	<path class="st11_school-19" d="M207.1,278.1l-25.5,14.6l-35.8-21l25-14.3c0.8-0.4,1.7-0.4,2.5,0l33.8,20.1c0.2,0.1,0.3,0.3,0.2,0.5&#10;&#9;&#9;c0,0,0,0,0,0C207.2,278,207.2,278.1,207.1,278.1z"/>
	<path class="st10_school-19" d="M181.4,299c0,0-35.8-21-35.7-21.2s0-6.1,0-6.1l35.8,21L181.4,299z"/>
	<path class="st11_school-19" d="M207.1,277.5c0.2,0.1,0.4,0.4,0.4,0.6c0,0.4-0.4,0.6-0.6,0.7"/>
	<path class="st9_school-19" d="M224.5,278c0.1,0,1.2-0.4,0.3-1.1c-0.6-0.5-1.2-0.9-1.9-1.3"/>
	<path class="st12_school-19" d="M224.5,272.4c0,0-0.9,3.4,0,5.1l-12.3,7.2l-12.1,7v-5.2"/>
	<path class="st9_school-19" d="M224.9,271.8c0,0.2,0,0.5-0.1,0.7l-24.7,14v5.2l24.7-14.4v0.6l-25.7,14.8v-7.1L224.9,271.8z"/>
	<path class="st15_school-19" d="M224.8,271.9l-25.5,14.6l-35.8-21l24.9-14.3c0.8-0.4,1.7-0.4,2.5,0l33.9,20.1c0.2,0.1,0.2,0.3,0.2,0.5&#10;&#9;&#9;c0,0,0,0,0,0C224.9,271.8,224.9,271.9,224.8,271.9z"/>
	<path class="st9_school-19" d="M199.2,292.7c0,0-35.7-21.1-35.7-21.2v-6.1l35.8,21L199.2,292.7z"/>
	<path class="st15_school-19" d="M224.8,271.2c0.2,0.1,0.4,0.4,0.4,0.6c0,0.4-0.4,0.6-0.6,0.7"/>
</g>
</svg>