<svg version="1.1" id="Layer_1" xmlns="http://www.w3.org/2000/svg" xmlns:xlink="http://www.w3.org/1999/xlink" x="0px" y="0px" viewBox="0 0 500 500" style="width: 144px;" xml:space="preserve" data-imageid="science-1-43" imageName="Science 1" class="illustrations_image">
<style type="text/css">
	.st0_science-1-43{fill:#96C168;}
	.st1_science-1-43{opacity:0.57;fill:url(#SVGID_1_);enable-background:new    ;}
	.st2_science-1-43{opacity:0.57;fill:url(#SVGID_00000153680197258244692540000016768282239669657755_);enable-background:new    ;}
	.st3_science-1-43{opacity:0.57;fill:url(#SVGID_00000003075854949413304620000003935236680493946531_);enable-background:new    ;}
	.st4_science-1-43{fill:#68E1FD;}
	.st5_science-1-43{opacity:0.44;fill:#06577A;enable-background:new    ;}
	.st6_science-1-43{opacity:0.1;fill:#06577A;enable-background:new    ;}
	.st7_science-1-43{fill:#3F2A29;}
	.st8_science-1-43{opacity:0.5;fill:#E4E9EA;enable-background:new    ;}
	.st9_science-1-43{fill:#FFFFFF;}
	.st10_science-1-43{fill:#06577A;}
	.st11_science-1-43{fill:#99CE34;}
	.st12_science-1-43{fill:#FFB087;}
	.st13_science-1-43{fill:#CED7D8;}
	.st14_science-1-43{opacity:0.32;fill:#06577A;enable-background:new    ;}
	.st15_science-1-43{fill:#E96968;}
	.st16_science-1-43{fill:#E4E9EA;}
</style>
<g id="background_science-1-43">
	<path class="st0_science-1-43" d="M243.8,406.8L20.1,274.6c-7.1-4-13.2-10.6-6.3-14.9l224.6-129.4c3.4-2.1,8.5-3.5,11.9-1.5l234.9,136.3&#10;&#9;&#9;c7.1,4.1,8.4,15.7,1.3,19.8L273.3,406.6C264.2,411.9,253,412,243.8,406.8z"/>
	
		<linearGradient id="SVGID_1_-science-1-43" gradientUnits="userSpaceOnUse" x1="273.9718" y1="139.6878" x2="331.5518" y2="186.4078" gradientTransform="matrix(1 0 0 -1 0 502)">
		<stop offset="0" style="stop-color:#96C168"/>
		<stop offset="1" style="stop-color:#06577A"/>
	</linearGradient>
	<path class="st1_science-1-43" d="M274.3,378.3c14.3-8.8,29.4-16.2,44.1-24.3c11.9-6.5,31.4-20.4,42.8-27.8c-1.9-9.2-16.7-10.5-27.3-12.7&#10;&#9;&#9;l-0.5-0.1l-8.5-0.7c-1.5,0.1-3,0.2-4.5,0.4l-83.3,44.4c10.5,7.4,22.5,12.4,33.6,18.7L274.3,378.3z"/>
	
		<linearGradient id="SVGID_00000001650287674236949730000015290429341518935486_-science-1-43" gradientUnits="userSpaceOnUse" x1="169.3777" y1="160.6175" x2="239.1577" y2="217.2475" gradientTransform="matrix(1 0 0 -1 0 502)">
		<stop offset="0" style="stop-color:#96C168"/>
		<stop offset="1" style="stop-color:#06577A"/>
	</linearGradient>
	<path style="opacity:0.57;fill:url(#SVGID_00000001650287674236949730000015290429341518935486_);enable-background:new    ;" d="&#10;&#9;&#9;M243.9,269l-0.7-0.1L232,268c-2,0.1-3.9,0.3-5.8,0.6l-108.9,58c13.7,9.6,29.4,16.2,44,24.4c13.6,7.7,21.7,12.5,35.1,20.6&#10;&#9;&#9;c17.8-15.3,43.6-30,61.7-45.1C279.1,309,270.8,274.5,243.9,269z"/>
	
		<linearGradient id="SVGID_00000081628800379047676330000005022708540693728131_-science-1-43" gradientUnits="userSpaceOnUse" x1="419.5517" y1="207.7676" x2="446.5217" y2="226.4276" gradientTransform="matrix(1 0 0 -1 0 502)">
		<stop offset="0" style="stop-color:#96C168"/>
		<stop offset="1" style="stop-color:#06577A"/>
	</linearGradient>
	<path style="opacity:0.57;fill:url(#SVGID_00000081628800379047676330000005022708540693728131_);enable-background:new    ;" d="&#10;&#9;&#9;M421.7,302.6c0,0,35.4-20.4,35.6-20.8L443.9,268l-40.8,23.9L421.7,302.6z"/>
</g>
<g id="gear_science-1-43">
	<path class="st4_science-1-43 targetColor" d="M103.1,194.4c0.1,0.2,0.8,2.7,1.3,2.2s3.2,0.6,3.2,0.6l7.5-9.5l-1-3.1h-6.7" style="fill: rgb(104, 225, 253);"/>
	<path class="st4_science-1-43 targetColor" d="M139.2,153.4l0.7-2.5l7.9-4.3v-13.4c0-0.3-7.6,4.5-7.6,4.5l-0.4-0.7c-0.4-2.1-1.2-4-2.3-5.8l5.5-10.2l-7-5.3&#10;&#9;&#9;l-5.3,10.6l0,0c-1.9-0.4-3.9-0.4-5.8,0.1v-10.1l-10.1,5.6v10.6c-2,1.9-3.8,4-5.4,6.2l-6.1-3.9l-6.8,13.1l5.4,4.3l-0.5,2.2&#10;&#9;&#9;c-0.7,2.3-1.3,4.6-1.7,7l-8.1,4.4V179l7.7-4.6c0.3,2.4,1.2,4.8,2.5,6.9l-5.9,9.7l7.3,5.5l5.1-10.1h6.4v10.1l9.6-5.9v-9.9&#10;&#9;&#9;c2.2-2.2,4.2-4.6,5.8-7.2l5.8,4l7-13.3l-5.9-4.3l0.6-2C138.4,156.4,138.9,154.9,139.2,153.4z" style="fill: rgb(104, 225, 253);"/>
	<polyline class="st4_science-1-43 targetColor" points="157.5,138.8 148.6,133.4 146.4,136.7 149.8,143.9 &#9;" style="fill: rgb(104, 225, 253);"/>
	<polyline class="st4_science-1-43 targetColor" points="145.8,183.1 139.2,180.4 139.2,176.4 &#9;" style="fill: rgb(104, 225, 253);"/>
	<polygon class="st4_science-1-43 targetColor" points="124.6,202.1 115,196.6 117.4,189.2 126.1,191.8 &#9;" style="fill: rgb(104, 225, 253);"/>
	<polygon class="st4_science-1-43 targetColor" points="136,115.5 145.7,121.1 140.4,131.7 134.6,131.8 133.2,121.1 &#9;" style="fill: rgb(104, 225, 253);"/>
	
		<ellipse transform="matrix(0.3657 -0.9307 0.9307 0.3657 -67.9777 223.647)" class="st4_science-1-43 targetColor" cx="130.1" cy="161.7" rx="7.5" ry="4.4" style="fill: rgb(104, 225, 253);"/>
	<polygon class="st4_science-1-43 targetColor" points="114.8,121.7 124.5,127.2 134.6,121.7 124.9,116.1 &#9;" style="fill: rgb(104, 225, 253);"/>
	<polygon class="st4_science-1-43 targetColor" points="113.1,140.1 103.4,134.6 96.5,147.6 106.2,153.2 &#9;" style="fill: rgb(104, 225, 253);"/>
	<polygon class="st4_science-1-43 targetColor" points="96.1,191 105.8,196.6 113.1,202.1 103.4,196.6 &#9;" style="fill: rgb(104, 225, 253);"/>
	<path class="st5_science-1-43" d="M103.1,194.4c0.1,0.2,0.8,2.7,1.3,2.2s3.2,0.6,3.2,0.6l7.5-9.5l-1-3.1h-6.7"/>
	<path class="st4_science-1-43 targetColor" d="M139.2,153.4l0.7-2.5l7.9-4.3v-13.4c0-0.3-7.6,4.5-7.6,4.5l-0.4-0.7c-0.4-2.1-1.2-4-2.3-5.8l5.5-10.2l-7-5.3&#10;&#9;&#9;l-5.3,10.6l0,0c-1.9-0.4-3.9-0.4-5.8,0.1v-10.1l-10.1,5.6v10.6c-2,1.9-3.8,4-5.4,6.2l-6.1-3.9l-6.8,13.1l5.4,4.3l-0.5,2.2&#10;&#9;&#9;c-0.7,2.3-1.3,4.6-1.7,7l-8.1,4.4V179l7.7-4.6c0.3,2.4,1.2,4.8,2.5,6.9l-5.9,9.7l7.3,5.5l5.1-10.1h6.4v10.1l9.6-5.9v-9.9&#10;&#9;&#9;c2.2-2.2,4.2-4.6,5.8-7.2l5.8,4l7-13.3l-5.9-4.3l0.6-2C138.4,156.4,138.9,154.9,139.2,153.4z" style="fill: rgb(104, 225, 253);"/>
	<polyline class="st5_science-1-43" points="157.5,138.8 148.6,133.4 146.4,136.7 149.8,143.9 &#9;"/>
	<polyline class="st4_science-1-43 targetColor" points="145.8,183.1 139.2,180.4 139.2,176.4 &#9;" style="fill: rgb(104, 225, 253);"/>
	<polygon class="st4_science-1-43 targetColor" points="124.6,202.1 115,196.6 117.4,189.2 126.1,191.8 &#9;" style="fill: rgb(104, 225, 253);"/>
	<polygon class="st4_science-1-43 targetColor" points="136,115.5 145.7,121.1 140.4,131.7 134.6,131.8 133.2,121.1 &#9;" style="fill: rgb(104, 225, 253);"/>
	
		<ellipse transform="matrix(0.3657 -0.9307 0.9307 0.3657 -67.9777 223.647)" class="st4_science-1-43 targetColor" cx="130.1" cy="161.7" rx="7.5" ry="4.4" style="fill: rgb(104, 225, 253);"/>
	<polygon class="st4_science-1-43 targetColor" points="113.1,140.1 103.4,134.6 96.5,147.6 106.2,153.2 &#9;" style="fill: rgb(104, 225, 253);"/>
	<polygon class="st4_science-1-43 targetColor" points="96.1,191 105.8,196.6 113.1,202.1 103.4,196.6 &#9;" style="fill: rgb(104, 225, 253);"/>
	<path class="st5_science-1-43" d="M139.2,153.4l0.7-2.5l7.9-4.3v-13.4c0-0.3-7.6,4.5-7.6,4.5l-0.4-0.7c-0.4-2.1-1.2-4-2.3-5.8l5.5-10.2l-7-5.3&#10;&#9;&#9;l-5.3,10.6l0,0c-1.9-0.4-3.9-0.4-5.8,0.1v-10.1l-10.1,5.6v10.6c-2,1.9-3.8,4-5.4,6.2l-6.1-3.9l-6.8,13.1l5.4,4.3l-0.5,2.2&#10;&#9;&#9;c-0.7,2.3-1.3,4.6-1.7,7l-8.1,4.4V179l7.7-4.6c0.3,2.4,1.2,4.8,2.5,6.9l-5.9,9.7l7.3,5.5l5.1-10.1h6.4v10.1l9.6-5.9v-9.9&#10;&#9;&#9;c2.2-2.2,4.2-4.6,5.8-7.2l5.8,4l7-13.3l-5.9-4.3l0.6-2C138.4,156.4,138.9,154.9,139.2,153.4z"/>
	<polyline class="st6_science-1-43" points="145.8,183.1 139.2,180.4 139.2,176.4 &#9;"/>
	<polygon class="st6_science-1-43" points="124.6,202.1 115,196.6 117.4,189.2 126.1,191.8 &#9;"/>
	
		<ellipse transform="matrix(0.3657 -0.9307 0.9307 0.3657 -67.9777 223.647)" class="st6_science-1-43" cx="130.1" cy="161.7" rx="7.5" ry="4.4"/>
	<polygon class="st6_science-1-43" points="113.1,140.1 103.4,134.6 96.5,147.6 106.2,153.2 &#9;"/>
	<polygon class="st6_science-1-43" points="96.1,191 105.8,196.6 113.1,202.1 103.4,196.6 &#9;"/>
	<polyline class="st6_science-1-43" points="145.8,183.1 139.2,180.4 139.2,176.4 &#9;"/>
	<polygon class="st5_science-1-43" points="124.6,202.1 115,196.6 117.4,189.2 126.1,191.8 &#9;"/>
	<path class="st4_science-1-43 targetColor" d="M148.9,158.9l0.7-2.5l7.9-4.3v-13.4c0-0.3-7.6,4.5-7.6,4.5l-0.4-0.8c-0.4-2.1-1.2-4-2.3-5.8l5.5-10.2l-7-5.4&#10;&#9;&#9;l-5.3,10.6l0,0c-1.9-0.4-3.9-0.4-5.8,0.1v-10.1l-10.1,5.6v10.6c-2,1.9-3.8,4-5.4,6.2l-6.1-3.9l-6.9,13.1l5.4,4.3l-0.5,2.2&#10;&#9;&#9;c-0.7,2.3-1.3,4.7-1.7,7.1l-8.1,4.4v13.4l7.6-4.6c0.3,2.4,1.2,4.8,2.5,6.9l-5.8,9.8l7.3,5.5l5.1-10.1h6.4v10.1l9.6-5.9v-9.9&#10;&#9;&#9;c2.2-2.2,4.1-4.6,5.8-7.2l5.8,4l7-13.3l-5.8-4.4l0.6-2C148.1,162,148.5,160.4,148.9,158.9z" style="fill: rgb(104, 225, 253);"/>
	
		<ellipse transform="matrix(0.3657 -0.9307 0.9307 0.3657 -67.9777 223.647)" class="st5_science-1-43" cx="130.1" cy="161.7" rx="7.5" ry="4.4"/>
	<polygon class="st5_science-1-43" points="96.1,191 105.8,196.6 113.1,202.1 103.4,196.6 &#9;"/>
	<polygon class="st4_science-1-43 targetColor" points="114.8,121.7 124.5,127.2 134.6,121.7 124.9,116.1 &#9;" style="fill: rgb(104, 225, 253);"/>
	<polygon class="st5_science-1-43" points="114.8,121.6 124.5,127.2 134.6,121.7 124.9,116.1 &#9;"/>
	<polygon class="st4_science-1-43 targetColor" points="91.7,165.6 101.4,171.2 101.4,184.6 91.7,179 &#9;" style="fill: rgb(104, 225, 253);"/>
	<polygon class="st5_science-1-43" points="91.7,165.6 101.4,171.2 101.4,184.6 91.7,179 &#9;"/>
	<path class="st4_science-1-43 targetColor" d="M70.8,285c0.1,0.2,0.7,2.4,1.1,1.9s2.8,0.6,2.8,0.6l6.7-8.5l-0.9-2.8h-6" style="fill: rgb(104, 225, 253);"/>
	<path class="st4_science-1-43 targetColor" d="M103,248.5l0.6-2.2l7-3.8v-11.9c0-0.2-6.8,4-6.8,4l-0.3-0.7c-0.4-1.8-1.1-3.6-2.1-5.1l4.9-9.1l-6.3-4.8&#10;&#9;&#9;l-4.7,9.4l0,0c-1.7-0.4-3.5-0.4-5.2,0.1v-9l-8.9,5v9.4c-1.8,1.7-3.4,3.5-4.8,5.5l-5.5-3.5L65,243.4l4.8,3.8l-0.4,1.9&#10;&#9;&#9;c-0.6,2.1-1.1,4.2-1.5,6.3l-7.2,4v11.8l6.8-4.1c0.3,2.2,1.1,4.2,2.2,6.1l-5.1,8.7l6.5,4.9l4.6-8.9h5.7v9l8.6-5.2v-8.8&#10;&#9;&#9;c2-1.9,3.7-4.1,5.2-6.4l5.1,3.5l6.2-11.9l-5.2-3.8l0.5-1.8C102.3,251.2,102.7,249.9,103,248.5z" style="fill: rgb(104, 225, 253);"/>
	<polyline class="st4_science-1-43 targetColor" points="119.2,235.5 111.3,230.7 109.3,233.7 112.4,240.1 &#9;" style="fill: rgb(104, 225, 253);"/>
	<polyline class="st4_science-1-43 targetColor" points="108.8,275 103,272.6 103,269 &#9;" style="fill: rgb(104, 225, 253);"/>
	<polygon class="st4_science-1-43 targetColor" points="90,291.9 81.4,286.9 83.6,280.4 91.3,282.7 &#9;" style="fill: rgb(104, 225, 253);"/>
	<polygon class="st4_science-1-43 targetColor" points="100.1,214.9 108.7,219.8 104,229.2 98.8,229.3 97.7,219.8 &#9;" style="fill: rgb(104, 225, 253);"/>
	
		<ellipse transform="matrix(0.3657 -0.9307 0.9307 0.3657 -178.0282 250.6237)" class="st4_science-1-43 targetColor" cx="94.9" cy="255.9" rx="6.7" ry="3.9" style="fill: rgb(104, 225, 253);"/>
	<polygon class="st4_science-1-43 targetColor" points="81.3,220.3 89.9,225.3 98.8,220.3 90.2,215.4 &#9;" style="fill: rgb(104, 225, 253);"/>
	<polygon class="st4_science-1-43 targetColor" points="79.7,236.8 71.1,231.8 65,243.4 73.6,248.4 &#9;" style="fill: rgb(104, 225, 253);"/>
	<polygon class="st4_science-1-43 targetColor" points="64.7,282 73.3,287 79.8,291.9 71.2,286.9 &#9;" style="fill: rgb(104, 225, 253);"/>
	<path class="st5_science-1-43" d="M70.8,285c0.1,0.2,0.7,2.4,1.1,1.9s2.8,0.6,2.8,0.6l6.7-8.5l-0.9-2.8h-6"/>
	<path class="st4_science-1-43 targetColor" d="M103,248.5l0.6-2.2l7-3.8v-11.9c0-0.2-6.8,4-6.8,4l-0.3-0.7c-0.4-1.8-1.1-3.6-2.1-5.1l4.9-9.1l-6.3-4.8&#10;&#9;&#9;l-4.7,9.4l0,0c-1.7-0.4-3.5-0.4-5.2,0.1v-9l-8.9,5v9.4c-1.8,1.7-3.4,3.5-4.8,5.5l-5.5-3.5L65,243.4l4.8,3.8l-0.4,1.9&#10;&#9;&#9;c-0.6,2.1-1.1,4.2-1.5,6.3l-7.2,4v11.8l6.8-4.1c0.3,2.2,1.1,4.2,2.2,6.1l-5.1,8.7l6.5,4.9l4.6-8.9h5.7v9l8.6-5.2v-8.8&#10;&#9;&#9;c2-1.9,3.7-4.1,5.2-6.4l5.1,3.5l6.2-11.9l-5.2-3.8l0.5-1.8C102.3,251.2,102.7,249.9,103,248.5z" style="fill: rgb(104, 225, 253);"/>
	<polyline class="st5_science-1-43" points="119.2,235.5 111.3,230.7 109.3,233.7 112.4,240.1 &#9;"/>
	<polyline class="st4_science-1-43 targetColor" points="108.8,275 103,272.6 103,269 &#9;" style="fill: rgb(104, 225, 253);"/>
	<polygon class="st4_science-1-43 targetColor" points="90,291.9 81.4,286.9 83.6,280.4 91.3,282.7 &#9;" style="fill: rgb(104, 225, 253);"/>
	<polygon class="st4_science-1-43 targetColor" points="100.1,214.9 108.7,219.8 104,229.2 98.8,229.3 97.7,219.8 &#9;" style="fill: rgb(104, 225, 253);"/>
	
		<ellipse transform="matrix(0.3657 -0.9307 0.9307 0.3657 -178.0282 250.6237)" class="st4_science-1-43 targetColor" cx="94.9" cy="255.9" rx="6.7" ry="3.9" style="fill: rgb(104, 225, 253);"/>
	<polygon class="st4_science-1-43 targetColor" points="79.7,236.8 71.1,231.8 65,243.4 73.6,248.4 &#9;" style="fill: rgb(104, 225, 253);"/>
	<polygon class="st4_science-1-43 targetColor" points="64.7,282 73.3,287 79.8,291.9 71.2,286.9 &#9;" style="fill: rgb(104, 225, 253);"/>
	<path class="st5_science-1-43" d="M103,248.5l0.6-2.2l7-3.8v-11.9c0-0.2-6.8,4-6.8,4l-0.3-0.7c-0.4-1.8-1.1-3.6-2.1-5.1l4.9-9.1l-6.3-4.8&#10;&#9;&#9;l-4.7,9.4l0,0c-1.7-0.4-3.5-0.4-5.2,0.1v-9l-8.9,5v9.4c-1.8,1.7-3.4,3.5-4.8,5.5l-5.5-3.5L65,243.4l4.8,3.8l-0.4,1.9&#10;&#9;&#9;c-0.6,2.1-1.1,4.2-1.5,6.3l-7.2,4v11.8l6.8-4.1c0.3,2.2,1.1,4.2,2.2,6.1l-5.1,8.7l6.5,4.9l4.6-8.9h5.7v9l8.6-5.2v-8.8&#10;&#9;&#9;c2-1.9,3.7-4.1,5.2-6.4l5.1,3.5l6.2-11.9l-5.2-3.8l0.5-1.8C102.3,251.2,102.7,249.9,103,248.5z"/>
	<polyline class="st6_science-1-43" points="108.8,275 103,272.6 103,269 &#9;"/>
	<polygon class="st6_science-1-43" points="90,291.9 81.4,286.9 83.6,280.4 91.3,282.7 &#9;"/>
	
		<ellipse transform="matrix(0.3657 -0.9307 0.9307 0.3657 -178.0282 250.6237)" class="st6_science-1-43" cx="94.9" cy="255.9" rx="6.7" ry="3.9"/>
	<polygon class="st6_science-1-43" points="79.7,236.8 71.1,231.8 65,243.4 73.6,248.4 &#9;"/>
	<polygon class="st6_science-1-43" points="64.7,282 73.3,287 79.8,291.9 71.2,286.9 &#9;"/>
	<polyline class="st6_science-1-43" points="108.8,275 103,272.6 103,269 &#9;"/>
	<polygon class="st5_science-1-43" points="90,291.9 81.4,286.9 83.6,280.4 91.3,282.7 &#9;"/>
	<path class="st4_science-1-43 targetColor" d="M111.6,253.5l0.6-2.2l7-3.8v-11.9c0-0.2-6.8,4-6.8,4l-0.3-0.7c-0.4-1.8-1.1-3.6-2.1-5.2l4.9-9.1l-6.3-4.8&#10;&#9;&#9;l-4.7,9.4l0,0c-1.7-0.4-3.5-0.4-5.2,0.1v-9l-9,5v9.4c-1.8,1.7-3.4,3.5-4.8,5.5l-5.4-3.4l-6.1,11.6l4.8,3.9l-0.5,1.9&#10;&#9;&#9;c-0.6,2.1-1.1,4.2-1.5,6.3l-7.2,4v11.9l6.8-4.1c0.3,2.2,1.1,4.2,2.2,6.1l-5.1,8.7l6.5,4.9l4.6-9H90v9l8.5-5.2v-8.8&#10;&#9;&#9;c2-1.9,3.7-4.1,5.2-6.4l5.1,3.5l6.2-11.9l-5.2-3.8l0.5-1.8C110.9,256.2,111.3,254.8,111.6,253.5z" style="fill: rgb(104, 225, 253);"/>
	
		<ellipse transform="matrix(0.3657 -0.9307 0.9307 0.3657 -178.0282 250.6237)" class="st5_science-1-43" cx="94.9" cy="255.9" rx="6.7" ry="3.9"/>
	<polygon class="st5_science-1-43" points="64.7,282 73.3,287 79.8,291.9 71.2,286.9 &#9;"/>
	<polygon class="st4_science-1-43 targetColor" points="81.3,220.3 89.9,225.3 98.8,220.3 90.2,215.4 &#9;" style="fill: rgb(104, 225, 253);"/>
	<polygon class="st5_science-1-43" points="81.3,220.3 89.9,225.3 98.8,220.4 90.3,215.4 &#9;"/>
	<polygon class="st4_science-1-43 targetColor" points="60.8,259.4 69.3,264.4 69.3,276.3 60.8,271.3 &#9;" style="fill: rgb(104, 225, 253);"/>
	<polygon class="st5_science-1-43" points="60.8,259.4 69.3,264.4 69.3,276.3 60.8,271.3 &#9;"/>
</g>
<g id="lamp_science-1-43">
	<path class="st7_science-1-43" d="M270.6,298.1c0-2.7,0-5.7-0.1-8.7c-19,10.4-43.9,11-63.9,1.9v7.7c10.1,3.7,22.2,5.4,32.5,5.5&#10;&#9;&#9;C249.9,304.6,260.6,302.4,270.6,298.1z"/>
	<path class="st7_science-1-43" d="M206.6,305.3v2.1c0,1.2,0.5,2.4,1.4,3.2c2.8,3,10.7,8.6,29.8,8.6c26.1,0,31.2-10.8,32.3-13.1&#10;&#9;&#9;c0.2-0.5,0.3-1.1,0.3-1.7C250.9,311.7,226.5,312.1,206.6,305.3z"/>
	<path class="st7_science-1-43" d="M270.3,282.3c-0.1-4-0.2-6.9-0.2-6.9s-1.1-2.9-6.5-3.5s-53,0-53,0c-0.9,0.4-4,0.2-4,6.1v6.6&#10;&#9;&#9;C226.1,295.3,252.1,294.3,270.3,282.3z"/>
	<path class="st7_science-1-43" d="M270.5,289.4c0-2.5-0.1-5-0.2-7.1c-18.2,12-44.2,13.1-63.7,2.3v6.7C226.6,300.4,251.5,299.7,270.5,289.4z"/>
	<path class="st8_science-1-43" d="M270.5,289.4c0-2.5-0.1-5-0.2-7.1c-18.2,12-44.2,13.1-63.7,2.3v6.7C226.6,300.4,251.5,299.7,270.5,289.4z"/>
	<path class="st7_science-1-43" d="M239.1,304.4c-10.3,0-22.4-1.8-32.5-5.5v6.3c20,6.8,44.3,6.5,63.8-0.9c0.1-1.5,0.2-3.7,0.2-6.3&#10;&#9;&#9;C260.6,302.4,249.9,304.6,239.1,304.4z"/>
	<path class="st8_science-1-43" d="M239.1,304.4c-10.3,0-22.4-1.8-32.5-5.5v6.3c20,6.8,44.3,6.5,63.8-0.9c0.1-1.5,0.2-3.7,0.2-6.3&#10;&#9;&#9;C260.6,302.4,249.9,304.6,239.1,304.4z"/>
	<path class="st4_science-1-43 targetColor" d="M238.1,288.1c0,0-23.7-1-27.7-15.2s-1.4-23.9-11.7-40s-16.6-29.5-16.7-45.1s9.9-50.8,52.4-51.9&#10;&#9;&#9;s61.4,30,60.8,50.7s-13.7,33.4-19.4,48.6s-7.4,32.9-8.6,35.8S262.6,285.5,238.1,288.1z" style="fill: rgb(104, 225, 253);"/>
	<path class="st7_science-1-43" d="M270.5,181.1c-0.6-3.5-2.4-6.7-5.1-9c-4.6-3.7-11-3.8-15.7-0.2c-2.7-2.4-6.1-3.9-9.8-4.2&#10;&#9;&#9;c-4.2-0.3-8.4,1.2-11.5,4.2c-0.8-0.5-1.6-0.8-2.5-1.1c-3.9-1.2-8.1-0.3-11.2,2.2c-8.2,6.1-9.6,16.7-8,25.7&#10;&#9;&#9;c2.1,11.9,6.4,23.5,10.3,34.9c0.6,1.9,8.4,21.8,8.1,21.9c-0.3,0.1-0.5,0.3-0.8,0.4c0,0-3.8,2.1-4.4,5.4c-0.3,2.6-0.3,5.3,0,7.9&#10;&#9;&#9;c0,0,2.1,6.5,16.9,6.7s18-7.3,18-7.3v-7.3c0,0-0.5-3.1-4.6-5.4c-0.4-0.2,6.4-16.8,6.9-18.4c2.3-6.3,4.4-12.6,6.4-18.9&#10;&#9;&#9;c2.3-7.6,4.9-15.1,6.3-22.8C270.7,191.4,271.4,186,270.5,181.1z M251.9,181.7c0.3,2.6-0.4,6.2-3.6,7.2c-3.4,1-2.7-4.7-2.2-6.4&#10;&#9;&#9;c0.7-2.4,1.9-4.7,3.4-6.6C250.9,177.6,251.7,179.6,251.9,181.7L251.9,181.7z M228.8,175.5c3,3.1,4,7.6,2.5,11.7&#10;&#9;&#9;c-0.4,1.1-1.1,2.2-2,3c-1.4,1.3-2.6,1-3.6-0.5c-1.4-2.3-0.9-5.2-0.2-7.7C226.2,179.7,227.3,177.5,228.8,175.5L228.8,175.5z&#10;&#9;&#9; M247.6,254.9c-2-0.7-4.2-1.1-6.3-1.2c-6.5-0.5-10.9,0.1-13.5,0.9c-0.8,0.2-10.3-28.6-11.1-31.3c-1.7-5.3-3.2-10.7-4.6-16.1&#10;&#9;&#9;c-2.4-8.9-4.6-19,0.4-27.5c2.7-4.6,8.4-8.8,14.1-5.8l0,0c-1,1.3-1.9,2.7-2.6,4.1c-1.4,3-2.4,6.4-1.9,9.7c0.4,2.4,2,5.9,5.2,6&#10;&#9;&#9;s5.5-3,6.5-5.4c1.2-3.1,1.3-6.6,0.1-9.8c-0.7-1.9-1.8-3.7-3.3-5.1c1.2-1.1,2.7-2,4.2-2.6c4.5-1.5,9.5-0.4,13,2.8&#10;&#9;&#9;c-1.9,2.3-3.4,4.9-4.2,7.7c-0.8,2.7-1.2,7.1,1.3,9.2c2.3,2,5.9,0.3,7.6-1.5c2.4-2.6,2.7-6.2,2-9.4c-0.5-2.1-1.5-4.1-2.9-5.9&#10;&#9;&#9;c3.6-2.9,8.7-2.7,12.2,0.3c5.9,5.3,4.2,15.4,2.7,22.1C262.1,216.4,255.1,235.7,247.6,254.9L247.6,254.9z"/>
	<path class="st9_science-1-43" d="M206.3,150.8c-4.1,3.1-7.3,7.2-9.5,11.9c-0.9,1.6-0.4,3.6,1.2,4.5c0,0,0.1,0,0.1,0.1c1.5,0.8,4.2,0.5,5-1.2&#10;&#9;&#9;c1.9-4.1,4.8-7.8,8.4-10.5C215.1,152.8,209.9,148,206.3,150.8z"/>
	<path class="st9_science-1-43" d="M197.2,170.7c-1.9-0.1-3.4,1.3-3.5,3.2c-0.1,1.9,1.3,3.4,3.2,3.5c0.1,0,0.2,0,0.4,0c1.9,0.1,3.4-1.3,3.5-3.2&#10;&#9;&#9;c0.1-1.9-1.3-3.4-3.2-3.5C197.4,170.7,197.3,170.7,197.2,170.7z"/>
</g>
<g id="plant_science-1-43">
	<path class="st4_science-1-43 targetColor" d="M436.5,256.2c0,0-2.8,22.4,9.9,26.7s19.5-6.9,19.6-26.7" style="fill: rgb(104, 225, 253);"/>
	<ellipse class="st10_science-1-43" cx="451.2" cy="256.2" rx="14.8" ry="8"/>
	<path class="st11_science-1-43" d="M451.2,256.2c0,0,0-31-15.8-43.6c0,0-8.4,5-6.3,12.8s11.2,2,12.8,6s-3.1,5.2,0.1,9.4S451.2,248.2,451.2,256.2&#10;&#9;&#9;z"/>
	<path class="st11_science-1-43" d="M454.5,253.6c0,0-1.3-35.9,6.7-46.6s13.2,4,9.6,10.5s-9.9,4.9-7.6,10.5s6.1,8.6,1.8,11S454.1,249,454.5,253.6&#10;&#9;&#9;z"/>
</g>
<g id="character_science-1-43">
	<path class="st12_science-1-43" d="M268,140.1l-17.5-11.2c0,0-1.1,1.9,2.8,4.3c2.4,1.5,1.9,2,1.9,2c-0.6,2.1-0.8,4.3-0.7,6.5&#10;&#9;&#9;c0.2,2.9,5.1,3.7,6.6,4.1s7.6,1.5,7.6,1.5"/>
	<path class="st13_science-1-43" d="M314.9,127.3c0,0-13.7,17.6-16.7,18.9s-28.9-9.4-28.9-9.4s-5.1,13.2-3.8,14.5s34.6,14.8,43.5,11.5&#10;&#9;&#9;s18.2-19.7,18.2-19.7S332.7,126.2,314.9,127.3z"/>
	<path class="st12_science-1-43" d="M321,293.6c0,0,2,9.9,0.6,12.3s-5.8,9.2-8.2,10.5s-5.2,1.3-4.5,4.4s7.8,2,11.1,1.7s7.1-7.5,9.5-7.6&#10;&#9;&#9;s0.8,7.8,2.1,7.2s4.4-1.3,4.6-1.8s-4.3-22.8-4.3-22.8"/>
	<path class="st7_science-1-43" d="M333,302.4c-7.2,1.2-11.6,18.4-19.4,14l-0.1,0.1c-2.4,1.3-5.2,1.3-4.5,4.4s7.8,2,11.1,1.7s7.1-7.5,9.5-7.6&#10;&#9;&#9;s0.8,7.8,2.1,7.2s4.4-1.3,4.6-1.8C336.5,320,334.3,309,333,302.4z"/>
	<path class="st12_science-1-43" d="M345.9,299.5c0,0,2,9.9,0.6,12.3s-5.8,9.2-8.2,10.5s-5.2,1.3-4.5,4.4s7.8,2,11.1,1.7s7.1-7.5,9.5-7.6&#10;&#9;&#9;s0.8,7.8,2.1,7.2s4.4-1.3,4.6-1.8s-4.3-22.8-4.3-22.8"/>
	<path class="st7_science-1-43" d="M357.9,308.3c-7.2,1.2-11.6,18.4-19.4,14l-0.1,0.1c-2.4,1.3-5.2,1.3-4.5,4.4s7.8,2,11.1,1.7s7.1-7.5,9.5-7.6&#10;&#9;&#9;s0.8,7.8,2.1,7.2s4.4-1.3,4.6-1.8C361.3,325.9,359.2,314.9,357.9,308.3z"/>
	<path class="st4_science-1-43 targetColor" d="M336.5,297.3c2.4-19,5.6-122.5,5.6-122.5l-28.3-0.6l3.5,2c0,0-2.5,93.5,0.4,121.2&#10;&#9;&#9;C322.8,299.9,331,298.9,336.5,297.3z" style="fill: rgb(104, 225, 253);"/>
	<path class="st14_science-1-43" d="M336.5,297.3c2.4-19,5.6-122.5,5.6-122.5l-28.3-0.6l3.5,2c0,0-2.5,93.5,0.4,121.2&#10;&#9;&#9;C322.8,299.9,331,298.9,336.5,297.3z"/>
	<path class="st4_science-1-43 targetColor" d="M360.1,303.9c0.8-21.5-5.7-122.9-5.7-122.9l-28.3,1.5l3.6,1.8c0,0,5.2,89.3,10.2,119.6&#10;&#9;&#9;C345.1,306.5,354.5,305.8,360.1,303.9z" style="fill: rgb(104, 225, 253);"/>
	<path class="st7_science-1-43" d="M332.5,101.3c-1.7-2.4-5.1-2.9-7.5-1.2c-0.3,0.3-0.7,0.5-0.9,0.9c-1.5,0.8-2.5,2.4-2.7,4.1&#10;&#9;&#9;c-0.8,9.6-5.3,19.2-1.9,28.9c2.4,6.7,8.6,9.4,15.4,7.9C355.8,137.2,339.5,111.2,332.5,101.3z"/>
	<path class="st15_science-1-43" d="M349.5,162c0-0.1,0-0.2,0-0.2c-0.6-8.6,2-21.9-2.8-29.4c-2.5-3.9-7-6.1-11.1-7.6c-2.4-0.8-4.9-1.4-7.4-1.8&#10;&#9;&#9;c-4.3-0.7-8.6,0.6-11.7,3.7c-2.4,2.3-2.7,6.4-2.7,9.5c0,6.3-0.3,11.3,0.2,17.6c0.5,5.8,0.5,11.6,1.1,17.3c0.4,2.4,0.6,4.8,0.6,7.2&#10;&#9;&#9;c0,1,4.9,2.4,5.9,3c12.2,7.3,25,3.9,31.1,1.5C353.1,182.7,349.8,164.9,349.5,162z"/>
	<path class="st16_science-1-43" d="M328.1,123l-5.5,20.5l2.7,72.3c0,0,14,5.2,22,4.5s8.4-5.4,8.4-5.4s-3.4-71.8-4.7-76.4s-10.2-11.3-10.2-11.3"/>
	<path class="st16_science-1-43" d="M318.2,142.2c0.5-1.1,1.1-18.3,1.1-18.3s-4.5,1.9-5.6,3.3c-1.1,1.4,0,60.9,0,60.9s-0.3,23.8,0,24.4&#10;&#9;&#9;s4.4,3.1,5.6,2.4S318.2,142.2,318.2,142.2z"/>
	<path class="st12_science-1-43" d="M312.9,110.3c0.1,1.3,2,17.6,11.1,16.9c10.1-0.8,8.2-23.5-0.6-24.9S312.7,107.8,312.9,110.3z"/>
	<path class="st7_science-1-43" d="M335.1,99.8c-4.1-3.8-9.5-6.1-15.3-4.2c-6.4,2-10,9.2-9.1,15.6c0,0,11.2,0.3,13.9-0.6c0,0,1.1,15.4,0,19.9&#10;&#9;&#9;c-0.7,2.9,4.7,3.6,6.5,3.7c3.8,0.3,13.9,0.1,14.2-5.4C345.9,118.7,342.9,107,335.1,99.8z"/>
	<path class="st12_science-1-43" d="M283.1,150.2c0,0-8.5-7.6-9.5-8s-0.2,4.1,1.2,4.9c0,0-6.5-0.6-8.9,0s-1.8,7.5-0.8,8.3&#10;&#9;&#9;c2.2,1.4,4.6,2.4,7.1,3.2c0.7,0,10.9-0.7,10.9-0.7l8.4,1.6l2.4-6.8L283.1,150.2z"/>
	<path class="st16_science-1-43" d="M333.1,136.3c0,0-13.7,17.6-16.7,18.9s-28.9-9.4-28.9-9.4s-5.1,13.2-3.8,14.5s34.6,14.8,43.5,11.5&#10;&#9;&#9;s18.2-19.7,18.2-19.7S351,135.3,333.1,136.3z"/>
</g>
</svg>