<svg version="1.1" id="Layer_1" xmlns="http://www.w3.org/2000/svg" xmlns:xlink="http://www.w3.org/1999/xlink" x="0px" y="0px" viewBox="0 0 500 500" style="width: 144px;" xml:space="preserve" data-imageid="network-1-19" imageName="Network 1" class="illustrations_image">
<style type="text/css">
	.st0_network-1-19{fill:#AA6A91;}
	.st1_network-1-19{opacity:0.63;fill:url(#SVGID_1_);enable-background:new    ;}
	.st2_network-1-19{opacity:0.63;fill:url(#SVGID_00000160157542934565653170000018019206525737238433_);enable-background:new    ;}
	.st3_network-1-19{fill:#6DC3DA;}
	.st4_network-1-19{fill:#075B5D;}
	.st5_network-1-19{opacity:0.6;fill:#6DC3DA;enable-background:new    ;}
	.st6_network-1-19{fill:#FFA86A;}
	.st7_network-1-19{opacity:0.2;enable-background:new    ;}
	.st8_network-1-19{opacity:0.49;fill:#F4F4F4;enable-background:new    ;}
	.st9_network-1-19{fill:#68E1FD;}
	.st10_network-1-19{fill:#E75A59;}
	.st11_network-1-19{fill:#FFDDDC;}
	.st12_network-1-19{fill:#F4F4F4;}
	.st13_network-1-19{fill:#BABABC;}
</style>
<ellipse id="Base_network-1-19" class="st0_network-1-19" cx="253.7" cy="324.7" rx="207.3" ry="87.2"/>
<g id="Shadow_network-1-19">
	
		<linearGradient id="SVGID_1_-network-1-19" gradientUnits="userSpaceOnUse" x1="385.4846" y1="152.4285" x2="342.1446" y2="175.6385" gradientTransform="matrix(1 0 0 -1 0 502)">
		<stop offset="0" style="stop-color:#F4F4F4;stop-opacity:0"/>
		<stop offset="0.99" style="stop-color:#FFA86A"/>
	</linearGradient>
	<ellipse class="st1_network-1-19" cx="301.6" cy="304.7" rx="67.7" ry="29.5"/>
	
		<linearGradient id="SVGID_00000008133353633809898490000008943921307728256702_-network-1-19" gradientUnits="userSpaceOnUse" x1="186.3723" y1="105.8714" x2="176.0623" y2="123.1414" gradientTransform="matrix(1 0 0 -1 0 502)">
		<stop offset="0" style="stop-color:#F4F4F4;stop-opacity:0"/>
		<stop offset="0.99" style="stop-color:#FFA86A"/>
	</linearGradient>
	
		<polyline style="opacity:0.63;fill:url(#SVGID_00000008133353633809898490000008943921307728256702_);enable-background:new    ;" points="&#10;&#9;&#9;170.8,360.6 221.5,387 186.7,407.2 136.6,380.9 &#9;"/>
</g>
<g id="Globe_network-1-19">
	<path class="st3_network-1-19" d="M194.8,177.9L194.8,177.9h-0.1H194.8z"/>
	<path class="st3_network-1-19" d="M181.6,194.4c-0.1,0.1-0.2,0.3-0.3,0.5c0.2-0.1,0.4-0.2,0.6-0.2C181.9,194.4,181.8,194.4,181.6,194.4z"/>
	<path class="st3_network-1-19" d="M180.5,198.1c-0.2-0.7-0.5-1.3,0.4-1.5c0.4-0.1,0.6-0.4,0.8-0.6s0.1-0.4,0-0.7l-0.7,0.3c0-0.1,0-0.1,0-0.2&#10;&#9;&#9;c-0.4,0.7-0.9,1.5-1.3,2.2C180,197.8,180.2,198,180.5,198.1z"/>
	<path class="st3_network-1-19" d="M198.7,292.2l0.9-4.7c0.2-0.7,0.3-1.4,0.4-2.1c0-0.6-0.1-1.2-0.2-1.8c0-0.5-0.1-1.1-0.2-1.6&#10;&#9;&#9;c-0.2-0.3-0.9-0.6-1.2-0.9l-1.8-1.3c-0.5-0.4-0.9-0.9-1.2-1.5l-2.2-4.2l-1.8-3.5c-0.4-0.7,0.3-2,0.4-2.8c0-0.5,0.2-1,0.4-1.5&#10;&#9;&#9;c0.4-0.5,0.7-0.9,1-1.4c0.8-1,1.5-1.6,1.2-3c0-0.3-0.2-0.5,0-0.7c0,0-0.1-0.5,0-0.6c0.1-0.4-0.9-0.8-0.8-1.2s0.1-0.5-0.3-0.7&#10;&#9;&#9;s-0.3-0.2-0.6,0c-0.2,0.1-0.4,0.3-0.6,0.5c-0.1,0.1,0.2,0.5,0.3,0.6c-0.6,0.3-0.6,0.3-0.9-0.3c-0.1,0.4-0.7-0.2-1.1-0.3&#10;&#9;&#9;c-0.2,0-0.3,0.2-0.4,0.1s-0.4-0.3-0.6-0.4c-0.4-0.3-1.1-0.6-1.4-1.1s-0.1-0.9-0.4-1.2c-0.7-0.8-1.1-1.6-2.1-1.8&#10;&#9;&#9;c-0.8-0.2-2.1-0.3-2.7-0.9l-1.6-1.6c-0.4-0.3-0.9,0-1.3,0.1c-0.9,0.3-1.9-0.4-2.8-0.8l-2.2-0.9c-0.2-0.1-0.7-0.2-0.8-0.4l-1.4-1.4&#10;&#9;&#9;c-0.4-0.4-0.2-0.7,0-1.3c0.1-0.4-0.6-1.2-0.9-1.5c-0.2-0.3-0.5-0.6-0.8-0.9l-1.6-1.4c-0.1-0.1,0-0.4,0.1-0.6s-0.2-0.4-0.3-0.5&#10;&#9;&#9;s-0.2-0.3-0.3-0.4c0,1,0.1,1.9,0.1,2.9c0.2,0.2,0.4,0.4,0.4,0.7s-0.2,0.4-0.3,0.4c1.7,21.8,11.6,42.1,27.7,56.8&#10;&#9;&#9;c0.1-1.1,0.2-2.1,0.4-3.2C197.8,297.3,198.2,294.8,198.7,292.2z"/>
	<path class="st3_network-1-19" d="M194,226.7c0.6,0.5,1.7-0.5,1.1-0.7l0.5-0.4c-0.3,0.1-1,0.7-1.3,0.6c-0.4-0.2-1,0.1-1.4,0.2&#10;&#9;&#9;C192,227.5,193.6,226.4,194,226.7z"/>
	<path class="st3_network-1-19" d="M191.7,227.5c-0.3-0.1-0.7,0.1-0.9,0.3c-0.2,0.2-0.4,0.4-0.8,0.3c0.1-0.2,0.2-0.4,0.5-0.4&#10;&#9;&#9;c-0.1-0.2-0.1,0-0.2-0.3c-0.2,0.3-0.5,0.6-0.6,1c0.2,0,0.4,0.1,0.5,0.1l-0.1,0.2c0.7,0.1,1-0.3,1.6-0.5c0.6-0.2,1.1-0.5,1.5-0.9&#10;&#9;&#9;c0-0.2,0-0.3-0.1-0.4C193.1,227.3,192,227.6,191.7,227.5z"/>
	<path class="st3_network-1-19" d="M178.8,217.2c0,0.1,0,0.2,0,0.2c0,0,0.1-0.1,0.1-0.1c0.2,0.1,0.2,0.4,0.1,0.7c0.1-0.1,0.2-0.3,0.4-0.2&#10;&#9;&#9;s-0.1,0.4-0.1,0.5c0.1-0.1,0.2-0.1,0.3-0.1c-0.3,0.2-0.4,0.6-0.2,1c0.1,0.3,0.3-0.1,0.3-0.2c0.1,0,0.1,0,0.2,0.1&#10;&#9;&#9;c-0.1-0.3,0.1-0.6-0.1-0.8c-0.2-0.3-0.3-0.6-0.4-0.9c-0.1-0.4-0.9-2.1-0.6-2.3h-0.1c-0.1,0.1-0.1,0.1-0.3,0.1&#10;&#9;&#9;c0-0.2,0.2-0.3,0.3-0.4c0,0-0.1-0.1-0.2-0.1c-0.2,0.4-0.2,0.6,0.1,0.8c-0.3-0.1-0.8-0.4-0.9,0.1c-0.2,0.7-0.1,0.6,0.5,0.7&#10;&#9;&#9;c-0.6,0.1,0.1,0.9,0.3,1.2l0.2,0.1C178.6,217.1,178.6,217.3,178.8,217.2z"/>
	<path class="st3_network-1-19" d="M340.3,248.2c0,0.2,0,0.7-0.4,0.5c-0.1-0.1-0.2-0.6-0.3-0.8c0.1,0,0.2-0.1,0.4-0.2c-0.4-0.4-1.1-0.5-1.6-0.2&#10;&#9;&#9;c-0.4,0.3-1.4,0.8-1.5,1.3c0,0.2-0.4,0.8-0.3,1c0.2,0.4,0.5,0.8,0.7,1.1c0.3,0.5,0.8,1,1.1,1.5s0.8,0.8,0.8,1.6&#10;&#9;&#9;c0,0.5,0.3,1.7-0.1,2c-1,1-2.1,1.9-3.2,2.7c-0.4-0.4,0.1-1-0.1-1.2l-1.1-1.2c-0.5-0.6-1.2-1-2-1.1c0-0.2,0.1-0.4,0.1-0.6&#10;&#9;&#9;c-0.8,0-0.7,0.1-0.8,1.1c-0.1,0.5-0.3,1.1-0.5,1.6c-0.1,0.2-0.1,0.5,0,0.7c0,0.4,0,0.4,0.5,0.4c0.2,0,0.5,1.3,0.5,1.6&#10;&#9;&#9;c0.1,0.4,0.9,0.8,1.2,1c0.4,0.3,0.7,0.6,0.9,1c0.2,0.5,0,1.2,0.1,1.7c0.2,0.5,0.4,1,0.6,1.5c-0.7-0.2-1.3-0.5-1.7-1&#10;&#9;&#9;c-0.5-0.4-0.6-0.7-0.8-1.4c-0.1-0.7-0.3-1.4-0.7-2l-1.5-1.6c-0.2-0.2,0.1-1.6,0.1-2c0-0.7,0-1.4-0.1-2.2c-0.1-1.3-0.5-2.6-0.9-3.8&#10;&#9;&#9;l-0.8,1c-0.4,0.4-0.3,0.4-0.8,0.3s-0.5-0.1-0.4-0.7c0-0.3,0.2-0.9,0.1-1.2c-0.2-0.8-0.7-1.5-1.2-2.1c-0.5-0.6-0.9-1.3-1.1-2.1&#10;&#9;&#9;c-0.3,0.2-0.7,0.7-1.1,0.7l-1.9,0.3c-0.1,0-0.5,0-0.5,0.1s0.1,0.6,0,0.7l-0.9,1l-2.7,2.8c-0.4,0.3-0.8,0.5-1.3,0.6&#10;&#9;&#9;c-0.5,0.2-0.3,0.6-0.3,1.1c0.1,0.5,0.1,1.1,0,1.6c-0.2,0.5-0.3,1-0.4,1.6c0.1,0.6,0.3,1.1,0.7,1.5c0.3,0.5,0.6,1,0.8,1.5&#10;&#9;&#9;c0.4,1-1.3,1.9-1.4,0.5c-0.1-0.6-0.1-1.2-0.1-1.8c0-0.6-0.2-0.7-0.6-1.1c0,0.4,0,0.8-0.3,1.1l-1.1,0.7c-1-1.9-1.8-3.8-2.7-5.8&#10;&#9;&#9;c-0.3-0.5-0.5-1.1-0.7-1.6c0-0.4,0-0.9,0-1.3l-0.1-3.8c-0.3,0.4-0.5,0.7-0.8,1.1s-0.3,0.3-0.7,0.3s-1.1-1-1.4-1.3&#10;&#9;&#9;c0.4-0.1,1.1,0,1.1-0.5c-0.2,0-0.4,0.1-0.6,0.1c-0.6-0.2-1.1-0.5-1.5-0.9c-0.3-0.2-0.5-1-0.7-1.3s-2.8,0.2-3.3,0.3&#10;&#9;&#9;c-1,0-2-0.2-3-0.5c-0.4-0.1-0.9-0.1-1.1-0.5c-0.4-0.8-0.3-1-1.1-0.7c-0.6,0.2-1.2,0.2-1.7,0c-0.4-0.1-0.7-0.6-1.1-0.8&#10;&#9;&#9;c-0.5-0.2-1-0.6-1.1-1.1c-0.2-0.5-0.3-1.1-0.8-1.2c-0.9-0.1-0.9-0.1-1.5,0.6c-0.2,0.2,0.5,1.1,0.7,1.4c0.6,0.9,1,1.9,1.5,2.9&#10;&#9;&#9;l0.2-1.3c0.3,0.6,0.4,1.3,0.3,2c0.8,0.1,1.5,0,2.3-0.3c0.6-0.5,1.1-1.1,1.6-1.8c0,0.6-0.1,1.4,0.4,1.7c0.3,0.2,0.5,0.4,0.8,0.6&#10;&#9;&#9;c0.3,0.1,0.6,0,0.7,0.3s0.3,0.8,0.5,0.8c0.4,0.1,0.2,0.3,0.2,0.7s-0.8,1.1-1.1,1.4c0-0.1-0.1-0.2-0.1-0.4c-0.2,0.4-0.3,0.8-0.3,1.3&#10;&#9;&#9;c0,0.5-0.2,0.4-0.6,0.6l-1.2,0.6c-0.2,0.1-0.2,0.8-0.5,0.9s-0.5-0.1-0.7-0.1l-0.9,0.4c-0.4,0.2-0.4,0.7-0.7,0.9l-2,0.7&#10;&#9;&#9;c-0.2,0.1-0.2,0.2-0.4,0.4s-0.4,0.2-0.6,0.3c-0.6,0.1-1.1,0.3-1.7,0.4s-0.5,0.6-1,0.6c-0.7,0-0.8,0.2-0.9-0.6s-0.3-1.5-0.4-2.3&#10;&#9;&#9;c-0.3-1.1-0.7-2.1-1.4-3c-0.4-0.6-0.4-0.7-1-1c-0.4-0.1-0.4-1.2-0.4-1.6c-0.2-0.6-0.4-1.1-0.7-1.6c-0.1-0.3-0.5-0.5-0.7-0.8&#10;&#9;&#9;l-1.2-2.1c-0.2-0.4-0.4-1-0.8-0.9l0.2-1.3c-0.2,0.5-0.3,1.1-0.5,1.6c-0.5-0.6-1-1.3-1.3-2c-0.4,0.5,0.3,1.4,0.6,1.9l1.5,3&#10;&#9;&#9;c0.3,0.6,0.2,1.3,0.6,1.7c0.2,0.2,0.6,0.5,0.7,0.8c0.1,0.5,0.1,1,0.2,1.5c0,0.3,0,0.9,0.2,1.1c0.3,0.3,0.6,0.5,0.9,0.9&#10;&#9;&#9;c0.4,0.8,0.7,1.5,0.9,2.4c0.1,0.3,0.8,0.2,1,0.4l0.8,1c0.5,0.5,1.4,1.1,0.7,1.8c0.5,0.1,1,1.1,1.4,1l3.9-1.1c0.2-0.1,0.9-0.4,1.1,0&#10;&#9;&#9;c0.2,0.4-0.3,1.5-0.4,1.7c-0.4,1.1-0.9,2.1-1.5,3c-0.4,0.8-0.8,1.6-1.4,2.3c-1.6,1.7-3.4,3.2-4.6,5.2c-0.3,0.5-2,2.8-1.7,3.2&#10;&#9;&#9;c0.4,0.5,0.6,1.1,0.4,1.7c-0.1,0.5,0.1,1.1,0.5,1.5c0.7,1,0.5,2.5,0.5,3.7c0,1-0.6,1.8-1.4,2.3c-0.4,0.2-1.2,0.4-1.5,0.7l-1.3,1.5&#10;&#9;&#9;c-0.4,0.4-0.8,0.6-0.5,1.1c0.1,0.4,0.7,1.2,0.6,1.5c0,0.6,0,1.3-0.2,1.9c-0.2,0.3-1.2,0.6-1.5,0.7c-0.6,0.3-0.4,0.5-0.5,1.2&#10;&#9;&#9;c0,0.6,0,1.1-0.2,1.6c-0.6,1-1.3,2-2,2.9c-0.4,0.4-0.9,0.8-1.4,1.2c-0.2,0.2-0.7,0.8-1.1,0.9l-3.5,0.7l-1.6,0.3&#10;&#9;&#9;c-0.3,0-0.8-0.6-1-0.8c-0.6-0.6-0.6-0.6-0.5-1.5c0-0.3-0.4-1-0.5-1.3l-0.8-2c-0.2-0.4-0.7-0.7-1-1s-0.2-1.1-0.2-1.4l-0.4-2.3&#10;&#9;&#9;c-0.2-1-0.6-1.9-1.1-2.8l-0.9-1.8c-0.1-0.3,0.1-0.8,0.1-1c0.1-1.3,0.3-2.6,0.9-3.8c0.6-1.1,0.2-2,0-3.1l-0.9-3.7&#10;&#9;&#9;c-0.1-0.4-0.6-0.8-0.8-1.1l-1.3-1.7c-0.2-0.3-0.1-0.7,0-1.1c0.1-0.8,0.2-1.5,0.3-2.3s0.1-0.7-0.3-1.2s-0.4-0.7-1.1-0.6&#10;&#9;&#9;c-0.4,0-1.2,0.3-1.5-0.1l-1.2-1.5c-1-0.1-2,0-3,0.3l-1.8,0.9c-0.5,0.2-0.7,0.1-1.2,0c-0.4-0.2-0.9-0.2-1.4-0.1l-1.9,0.7&#10;&#9;&#9;c-0.3,0.1-0.6-0.3-0.9-0.5l-1.8-1.4c-0.7-0.4-1.2-1-1.6-1.7l-2.4-4.1l-0.8-1.3c-0.1-0.2,0.3-1,0.4-1.2c0.1-0.4,0.5-1,0.4-1.4&#10;&#9;&#9;c-0.1-0.7-0.3-1.3-0.4-2c-0.2-0.5-0.3-1.1-0.4-1.7c0.1-0.3,0.3-0.6,0.5-0.9c0.8-1.4,1.5-2.7,2.3-4.1c0.5-0.8,1.2-1.4,2.1-1.8&#10;&#9;&#9;c0.5-0.3,0.7-0.3,0.8-0.9l0.3-2.2c0.1-0.9,1.8-1,2.1-1.8c0.2-0.6,0.3-1.4,0.9-1.6c0.1,0,0.6,0.8,1,0.6c0.2,0,0.7-0.3,0.9-0.2&#10;&#9;&#9;s0.5,0.4,0.6,0.3c0.5-0.3,0.9-0.6,1.4-0.8c0.9-0.4,1.9-0.7,2.9-0.9c0.3-0.1,0.6-0.1,0.9-0.1c0.2,0.1,0.5,0.2,0.7,0.2&#10;&#9;&#9;c0.2,0,0.5-0.3,0.7-0.3c0.2,0,0.4,0,0.7,0c0.5,0.1,1.1,0.1,1.6-0.2c0.5-0.3,0.9,0.1,1.3,0.3c-0.3,0.8-0.4,0.8,0,1.5&#10;&#9;&#9;c0.2,0.3-0.5,0.8-0.8,1.1c0.4,0.3,0.8,1,1.3,1.1l2.4,0.6c0.6,0.2,0.5,0.9,1.1,1.1s1,0.1,1.5,0.5c0.7,0.5,1.1,0.6,1.5-0.3&#10;&#9;&#9;c0.1-0.2-0.2-0.5-0.1-0.7s0.3-0.6,0.4-0.7c0.6-0.3,1.3-0.3,2-0.1c0.2,0,0,0.4,0.2,0.4l1.1,0.2c0.3,0.1,0.3,0.2,0.5,0.5&#10;&#9;&#9;s0.4-0.2,0.5-0.1l1.7,0.5c0.4,0.2,0.9,0.2,1.3-0.1c0.7-0.3,0.7-0.4,1.4-0.1c0.8,0.5,1.9,0.2,2.3-0.6c0,0,0-0.1,0-0.1&#10;&#9;&#9;c0.2-0.6,1.3-2.6,0.9-3.2c-0.3-0.4,0.3-1.3,0.2-1.4s-0.4,0.1-0.5,0.2s-0.4-0.2-0.5-0.2s-0.4,0.5-0.6,0.6c-0.3,0-0.5,0-0.8,0&#10;&#9;&#9;c-0.5,0-0.7-0.5-1.2-0.6c-0.3-0.1-0.6-0.2-0.7,0.1s-0.1,0.4-0.5,0.5s-1-0.5-1.3-0.6c-0.6-0.3-1.6-2-0.9-2.7l-0.6,0.1&#10;&#9;&#9;c-0.1-0.7,0.8-0.9,1.2-0.9c0.6,0,1.2-0.1,1.7-0.4l-0.6-0.3c0.1-0.3,0.8-0.2,1.2-0.1c0.6,0.1,0.6-0.1,1.1-0.4&#10;&#9;&#9;c0.3-0.3,0.7-0.4,1.1-0.5c0.5,0.1,0.9,0.1,1.4,0c-0.1,0.2,0.1,0.4,0.3,0.5s0.2-0.3,0.5,0.2c0.1,0.2,1,0.3,1.3,0.4&#10;&#9;&#9;c0.5,0.2,0.8-0.1,1.3,0c0.5,0,1-0.1,1.4-0.4c0.4-0.2,0.2-0.9-0.1-1.2s-0.8-0.5-1.2-0.8s-0.7-0.9-1.3-0.9c-0.2-0.1-0.4-0.2-0.5-0.3&#10;&#9;&#9;c-0.2-0.1-0.4-0.3-0.6-0.5c0.1-0.1,0.1-0.2,0.2-0.2l0.6,0.1c-0.2-0.6,0.2-0.9,0.7-0.8c-0.2-0.2-0.5-0.4-0.6-0.6h0.6&#10;&#9;&#9;c-0.1-0.5,0.5-0.1,0.5-0.4s-0.4-0.2-0.5-0.2c-0.5,0-1,0.2-1.4,0.6v-0.2c-0.5,0.1-0.9,0.3-1.2,0.6c0-0.1,0.1-0.1,0.1-0.2&#10;&#9;&#9;c-0.6-0.1-0.3,0.6-0.1,0.9s0.8,0.2,1.2,0.2c-0.3,0.6-0.7,0.2-1.1,0.4s-1.1,0.9-1.6,0.6c0.3-0.7-0.1-0.6-0.7-0.9&#10;&#9;&#9;c0.3-0.2,1.4-0.6,0.6-0.8c-0.3-0.1-0.5-0.1-0.8,0c-0.2,0-0.4-0.3-0.6-0.4c0.3,0,0.7,0.2,0.9-0.2c-0.3,0.2-1.2-0.2-1.4,0&#10;&#9;&#9;s-0.9,0.8-0.9,1.1c0,0.3,0,0.6-0.1,0.8c-0.1,0.2-0.5,0.1-0.6,0.3c-0.1,0.6-0.1,1.1-0.6,1.4s-0.4,0.9-0.1,1.4&#10;&#9;&#9;c0.1,0.3,0.9,0.6,0.9,0.8c-0.1,0.4-0.9-0.1-1.1,0.1l-1.2,1.1c0-0.4,0.2-0.5,0.5-0.7c-0.2-0.1-0.5-0.1-0.7-0.2&#10;&#9;&#9;c-0.3-0.1-0.7-0.1-1-0.1c-0.2-0.1-0.4,0.1-0.6,0.2s0.1,0.4,0,0.4c-0.3,0.3-0.5,0-0.8-0.2c-0.3,0.3,0,0.6,0.2,1&#10;&#9;&#9;c0.3,0.5,0.3,0.4-0.1,0.8c0.5,0.3,1,0.4,0.9,1.2c-0.3-0.2-0.5-0.5-0.8-0.1c0.4,0.1,0.4,0.3,0.1,0.5s-0.1,0.4,0,0.7&#10;&#9;&#9;c-0.3-0.1-0.6,0-0.7-0.3s-0.3-0.2-0.5,0c-0.3-0.9-0.4-0.9,0.2-1.5c-0.6,0-0.6-0.1-1-0.6c-0.2-0.3-0.4-0.8-0.6-1.1&#10;&#9;&#9;c-0.5-0.4-0.3-0.7-0.2-1.4s-0.1-0.6-0.6-1c-0.6-0.6-1.2-1-2-1.2c-0.2,0-0.6-0.6-0.7-0.8c-0.1-0.5-0.3-0.9-0.7-1.1&#10;&#9;&#9;c-0.2,0.6-0.5,0.3-0.5-0.1s0-0.3-0.5-0.2s-0.8,0.2-0.5,0.7c0.1,0.2-0.3,0.6,0.1,0.9c0.3,0.2,0.7,0.4,0.9,0.7c0.2,0.3,0.2,0.8,0.5,1&#10;&#9;&#9;s0.5,0.5,0.9,0.6s0.8,0,0.3,0.4c0.4,0.3,2.4,1.1,1.9,1.8c-0.2-0.1-0.8-0.9-1-0.7c-0.2,0.1-0.3,0.4-0.4,0.6&#10;&#9;&#9;c-0.1,0.3,0.1,0.3,0.3,0.4c0.6,0.4-0.4,0.6-0.4,0.8s-0.7,1.1-0.7,0.4c-0.4,0.2-0.5,0.7-0.3,1.1c0.2,0.4-0.6,0.5-0.7,0.2&#10;&#9;&#9;c-0.2-0.6-2.1-0.5-1.3-1.3c0.4,0.1,0.9,0.2,1.4,0.1c0.3,0,0.7-0.1,1-0.2c0.2-0.2,0-0.3,0.3-0.5s-0.3-1.3-0.4-1.3s-0.5,0-0.5-0.3&#10;&#9;&#9;s-0.2-0.4-0.5-0.3c0-0.2-0.5-0.7-0.7-0.6c-0.4,0.1-0.6-0.3-0.9-0.6c-0.5-0.5-1.2-0.8-1.4-1.5s-0.1-0.7-0.7-1&#10;&#9;&#9;c-0.3-0.1-0.6-0.3-0.9,0c-0.5,0.5-1.2,0.9-1.8,1.2l-1.5-0.5c-0.3-0.1-0.6,0.5-0.8,0.6s0.2,0.8,0,1.1s-0.9,0.4-1.1,0.6&#10;&#9;&#9;c-0.8,0.4-1,1.1-1.5,1.9c-0.1,0.2,0.5,0.5,0.2,0.9c-0.2,0.2-0.7,0.6-0.5,1c-0.2,0-0.6,0.1-0.7,0.2s-0.3,0.6-0.4,0.6&#10;&#9;&#9;c-0.5,0-1,0-1.5,0c-0.5,0-0.7,0.5-1.1,0.6s-0.9-0.6-0.5-0.9c-0.4,0.2-0.6-0.5-1.1-0.2s-0.7-0.1-1.1,0.1c0.1-0.3,0.1-0.6,0.1-0.9&#10;&#9;&#9;c0-0.2,0-0.3,0-0.5s-0.2,0-0.2-0.1c-0.3-0.5-0.1-0.6,0-1.1s0.5-1.3,0.3-1.8c-0.1-0.5-0.1-1,0-1.4c-0.3,0.2-0.5-0.2-0.4-0.5&#10;&#9;&#9;s0.6-0.2,0.8-0.3c0-0.1-0.1-0.1-0.1-0.2c0.5-0.4,0.7,0.2,1.1,0c0.5-0.2,0.9-0.2,1.4,0c0.4,0.1,0.8-0.1,1.2,0.1&#10;&#9;&#9;c0.4,0.1,0.7,0.2,1.1,0.1c0.8-0.2,0.7-1.7,0.7-2.4s0.1-0.8-0.5-1c-0.3-0.1-0.4-0.7-0.3-0.9c-0.3,0.1-0.2-0.1-0.3-0.2&#10;&#9;&#9;s-0.5-0.1-0.6-0.1c-0.2-0.2-0.3-0.3-0.6-0.3c-0.2,0-0.4-0.1-0.5-0.2c0.1,0,0.2-0.1,0.2-0.1c-0.2-0.1-0.3-0.3-0.3-0.5&#10;&#9;&#9;c0.3,0,0.7,0,1-0.2c0.6-0.4,0.3,0.3,0.6,0.2c0.1,0,0.9-0.2,0.9-0.4c-0.1-0.3-0.2-0.6-0.3-0.9c0.2,0,0.5,0,0.5,0.1s0,0.3,0.3,0.3&#10;&#9;&#9;c0.4,0.1,0.7,0,1.1-0.1c-0.1,0-0.2-0.1-0.3-0.1c0.3-0.3,0.6-0.5,1-0.6c0.5-0.2,0-0.5,0.2-0.9c0.1-0.2,0.8-0.3,1-0.4&#10;&#9;&#9;c0.3-0.1,0.7-0.2,1-0.1c-0.1,0-0.5-0.1-0.5-0.3s0.4-0.1,0.4-0.1s0-0.2,0.1-0.3c0.2-0.3,0.3-0.6,0.4-0.9c0-0.2,0.4-0.2,0.5-0.3&#10;&#9;&#9;c0.4-0.5,0.8-0.2,1.3-0.4c0.1,0,0-0.3,0.1-0.3l0.4-0.1c0.2,0,0.4,0,0.6,0.1c-0.1-0.4,0.2-0.3,0.5-0.3c-0.1,0-0.6-0.4-0.4-0.6&#10;&#9;&#9;s0-0.2-0.1-0.6s0.1-0.6-0.2-0.8s-0.2-0.3-0.2-0.7c0-0.6,0.1-1.2,0.7-1.2s0.8-0.5,1.3-0.7c-0.3,0.4-0.5,1.4,0.2,1.6&#10;&#9;&#9;c-0.4,0.6-1.1,0.8-1,1.6c0.1,0.6,0.7,1.1,1.2,0.9c-0.1,0.2-0.2,0.3-0.2,0.5c0.5,0.3,1-0.5,1.5-0.5c0.3,0,0.5,0.2,0.7,0.4&#10;&#9;&#9;c0.1,0.3,0.4,0.4,0.6,0.5c0-0.1,0-0.2,0-0.3h-0.5c0.3-0.2,1.5-0.2,1.8-0.5c0.5-0.6,1.3-0.7,2-0.4c0,0-0.2-0.1-0.3-0.1&#10;&#9;&#9;c0,0.5,0.7,0.6,1,0.3c0.1-0.1,0.1-0.4,0.2-0.5s0.2,0,0.3-0.1s0.4-0.2,0.5-0.4c-0.1,0.2-0.2,0.4-0.3,0.5c0.9,0.4,0.3-1.2,0.3-1.6&#10;&#9;&#9;c0-0.3,0.1-0.6,0.3-0.8c0.2-0.2,0-0.6,0.3-0.8c0.8-0.6,1,0.7,1.5,0.7c0.3,0,0.5-0.4,0.5-0.7s0.1-0.9,0.1-1s-0.2,0.1-0.3,0.1&#10;&#9;&#9;c-0.1-0.1-0.2-0.2-0.3-0.4c-0.1-0.1-0.2-0.7-0.2-0.8c0.6-0.3,1.2-0.5,1.8-0.5l1.3,0.2c0.6,0.1,0.1-0.1,0.5-0.4s0.6-0.1,0.9-0.2&#10;&#9;&#9;s0.6,0.1,0.8,0.1c-0.1-0.4-1-0.6-1.3-0.7c0.1-0.1,0.1-0.2,0.1-0.3c-1.2,0.2-2.5,0.5-3.8,0.8c-0.1,0-0.7,0.2-0.7,0.1&#10;&#9;&#9;c-0.1-0.3-0.4-0.5-0.7-0.6c-0.5-0.2-0.5-0.1-0.4-0.7c0.1-0.3,0.1-0.6,0-0.9c-0.2-0.4-0.3-0.8-0.3-1.1c0-0.2,0.6-0.6,0.7-0.8&#10;&#9;&#9;c0.4-0.5,0.9-0.8,1.3-1.2c0.2-0.2,0.5-0.8,0.8-0.9s0.6,0.1,0.5-0.4c-0.1-0.6-0.7-1-1.3-0.9c-0.9,0-0.9-0.1-1.5,0.6&#10;&#9;&#9;c-0.4,0.4-0.6,0.8-0.3,1.3s-2.1,1.7-2.3,2c-0.6,0.7-1.6,1.9-0.9,3c0.3,0.5,1,0.4,1.3,1c0.2,0.4-0.5,0.7-0.8,1&#10;&#9;&#9;c-0.5,0.4-0.9,0.6-1,1.2c0,0.6-0.1,1.2-0.3,1.8c-0.3,0.7-0.8,0.7-1.4,0.8c-0.2,0-0.2,0.3-0.3,0.6s-0.2,0.2-0.5,0.2&#10;&#9;&#9;c-0.4,0-0.5,0.1-0.5-0.3c-0.1-0.3-0.1-0.6-0.1-0.8c0.2-0.5-0.5-1-0.8-1.4c-0.1-0.2,0-0.4-0.1-0.6c-0.1-0.2-0.3-0.5-0.4-0.7&#10;&#9;&#9;c-0.1-0.2,0.2-0.7-0.1-0.7s-0.3-0.5-0.4-0.7c-0.2,0.6-0.3,0.7-0.8,1.1c-0.4,0.2-0.6,0.6-1,0.9c-0.6,0.4-2,0.2-2-0.7&#10;&#9;&#9;c0-1.1-0.5-2.1-0.4-3.2c0-0.9,0.1-0.9,0.8-1.5c0.4-0.3,0.8-0.5,1.2-0.7c0.5-0.2,1-0.5,1.4-0.9c0.3-0.4,0.7-0.8,1.1-1.1&#10;&#9;&#9;c0.7-0.8,1.3-1.7,1.8-2.7c0.6-0.9,1.3-1.7,2.1-2.5c0.6-0.9,1.4-1.6,2.3-2.1c1.1-0.5,2.1-0.9,3.2-1.2c0.4-0.1,0.6-0.8,1-1&#10;&#9;&#9;c0.4-0.2,0.9-0.3,1.4-0.2c-0.5,0.4-0.8,1-1,1.6c0.5-0.1,0.9-0.9,1.2-1.3c0.1,0.2,0.1,0.5,0.1,0.7l0.7-0.9c0.1-0.1,0.6,0,0.8,0&#10;&#9;&#9;l-0.4,0.7c0.6,0.4,0.2-0.6,0.7-0.4l1.5,0.6c0.4,0.2-0.4,0.6-0.5,0.6c-0.4,0-0.8,0-1.2-0.1c0.2,0.3,0.6,0.2,0.7,0.6&#10;&#9;&#9;c0,0.1,0.5-0.1,0.7-0.1c0.4,0,0.8,0.2,1.1-0.1c0.1-0.2,0.7,0.2,0.8,0.3c-0.1,0.4-0.5,0.1-0.8,0.1c-0.1,0.8,1.3,0.5,1.7,0.5&#10;&#9;&#9;c0.7,0,1.3,0.2,1.9,0.6c0.6,0.4,1.3,0.7,2,0.9c0.6,0.1,1.2,0.6,1.5,1.1c0.2,0.6,0.2,0.6-0.2,1.1c-0.2,0.3-0.3,0.5-0.6,0.6&#10;&#9;&#9;c-0.6,0.3-1.2,0.3-1.8,0.1c-1.4-0.3-2.7-0.7-4-1.4c0.4,0.4,1.5,1.1,1.5,1.7s-0.1,1.8,0.4,2s1.4,1,2,0.7c0.4-0.1,0.2-0.7-0.2-0.7&#10;&#9;&#9;s-0.5-0.3-0.8-0.6c0.6-0.5,0.6-0.4,1.3-0.2l1.7,0.6c-0.2-0.4-0.3-0.8-0.4-1.3l1.3-0.8c0.2-0.1,0.6-0.6,0.9-0.5l1.3,0.4&#10;&#9;&#9;c0-0.2,0.3-0.7,0.2-1c0-0.1-0.5-0.8-0.5-0.7c0.1-0.4,0.2-0.8,0.3-1.2c0-0.1-0.4-0.6-0.5-0.7l1.6,0.2c0.4,0,0.7,0.7,0.9,1&#10;&#9;&#9;c-0.3,0-1,0-1.2,0.2s0.2,0.7,0.5,1s0.7,0.1,1.1,0.1s0.1-0.4,0.4-0.8c0.1-0.2,0.6-0.3,0.8-0.4l1.5-0.7l2.2-1&#10;&#9;&#9;c0.2,0.7,0.2,0.7,0.9,0.9c0.4,0.1,0.6-0.7,1-0.6c0.5,0.1,0.9,0.1,1.4-0.1c0.4-0.2,0.9-0.3,1.4-0.1l-0.3,0.5&#10;&#9;&#9;c0.7,0.2,0.6,0.2,1.1-0.4s0.1-0.6-0.3-1.2c1.1-0.4,2.3-0.3,3.3,0.1l2,0.8c0.5,0.3,1,0.6,1.4,1c0-0.2,0.3-1.1,0.1-1.2l-1.5-1.1&#10;&#9;&#9;c-0.3-0.2,0.2-0.9,0.3-1.3s-0.6-0.6-0.9-0.7l1.4-1.1c0.3-0.3,0.5-1.2,0.6-1.6s2.5,0,3,0.1c-0.2,0.6-0.4,1.1-0.6,1.7&#10;&#9;&#9;c-0.1,0.3,0.4,1,0.5,1.2c0.2,0.5-0.5,2.7-0.2,3s1,0.4,0.8,1c-0.1,0.3-0.3,1.1-0.6,1.3l-1.5,0.9c-0.2,0.1-0.9-0.1-1.2-0.1&#10;&#9;&#9;c0.6,0.6,1.5,0.9,2.3,0.7c0.8-0.4,1.4-1,2-1.7c0.6-0.6-0.9-1.5,0.3-1.9c0.2-0.1,0.9-0.4,1.1-0.2c0.3,0.4,0.6,0.7,0.9,1.1&#10;&#9;&#9;c-0.1-0.5,0-0.9-0.4-1.2c-0.3-0.3-0.8-0.4-1.2-0.3c-0.1,0-1.4,0.3-1.4,0.2c-0.1-0.3-0.4-0.9-0.2-1.2s0.6-0.9,0.4-1.3&#10;&#9;&#9;s-0.9-0.9-0.6-1.3s0.7-0.5,1.2-0.7s0-1,0-1.2c0.3-0.1,0.8,0.6,0.6,0.9c-0.4,0.7-0.3,0.7,0.1,1.4c0.3,0.5,2.2,0.5,2.6,0.5&#10;&#9;&#9;c-0.7-0.2-1.3-0.5-2-0.8c-0.8-0.4,0.6-0.9,0.9-1c0.8-0.2,1.6-0.1,2.2,0.3c0.3,0.1,0.6,0.3,0.8,0.5c0.3,0.2,0.6,0,0.9,0&#10;&#9;&#9;c-0.1-0.4-0.2-0.7-0.4-1c-0.2-0.2-0.8-0.1-1.1-0.2s-0.4-1.4-0.4-1.8l3.1-0.3l1.8-0.2c0.4,0,0.2-0.4,0.2-0.8c0-0.8,0-0.8,0.6-1.1h0&#10;&#9;&#9;c-29.3-36.7-82.6-43.2-119.9-14.7c0.4-0.1,0.9-0.1,1.3,0c1,0.2,2,0.4,2.9,0.8c-0.8,0.6-1.6,1-2.5,1.3l-3.4,0.2l1.5,0.3l-2.6,0.8&#10;&#9;&#9;l4.3-0.9c-0.1,0.7-1.9,1.2-2.5,1.5c-0.5,0.4-1,0.7-1.5,0.9l-1.7,0.3h1.1c-0.3,0.4-0.7,0.6-1.1,0.8c-0.3,0.2-0.8-0.1-1.1-0.2&#10;&#9;&#9;c0.1,0.2,0.1,0.4,0.2,0.5c-0.9,0.2-1.8,0.3-2.8,0.4l0,0c0.5,0,1.8-0.1,1.7,0.5h-1.6c0.4,0.1,1.6,0.1,1.6,0.7l-1.4,0.2l0.8,0.4&#10;&#9;&#9;c-0.2,0.4-0.6,0.7-1.1,0.8c-0.3,0.1-0.9-0.3-1.1-0.2s0.5,0.4,0,0.8c-0.1,0.1-1,0.7-0.8,1s0.2,0.2,0.5,0s0.3,0,0.6,0.1&#10;&#9;&#9;s0.1,0.5,0.1,0.6s-0.4,0.2-0.5,0.2s-0.3-0.2-0.4-0.1s-0.2,0.3-0.3,0.4l-1.4,0.4c0.1-0.4,0.2-0.5-0.1-0.8s-0.4,0.3-0.7-0.1&#10;&#9;&#9;c0,0.5-0.5,0.4-0.8,0.1c-0.4,0.4-0.8,0.9-1.2,1.4h0.1c0.4-0.2,0.8,0,1.2-0.1c1-0.2,2,0.1,2.6,0.8l-0.6,0.4c0.2,0,0.5,0.1,0.7,0.3&#10;&#9;&#9;c-0.4,0.1-0.6,0.1-0.7,0.6c-0.1,0.2-0.9,0.2-1.1,0.2c-0.3,0-0.6,0-0.9-0.2c-0.4-0.1-0.1-0.7-0.6-0.7c0,0.2,0.1,0.4,0.1,0.6&#10;&#9;&#9;c-0.4,0.1-1.1,0.4-1.2-0.1c-0.1,0.5-0.8,0.4-1,0c0,0.1,0,0.2,0,0.4h-0.4c-0.4,0.6-0.9,1.1-1.3,1.7c0.2-0.1,0.3-0.2,0.5-0.3&#10;&#9;&#9;c0.7-0.3,1.5-0.4,2.2-0.3c-0.1,0.2-0.1,0.4-0.2,0.7c0.6-0.1,1.2-0.4,1.8-0.6c0.3-0.1,0.6-0.1,0.9,0c0.3,0,0.2,0.4,0.4,0.7&#10;&#9;&#9;s0.3,0.2,0.5,0.6s0.2,0.5-0.1,1s0.1,0.4,0.4,0.2c0.4-0.4,0.4-0.4,0.9-0.1c0.1,0.1,0.6-0.4,0.7-0.6s0.7-0.1,0.9-0.2&#10;&#9;&#9;c0.6,0,1.2,0.2,1.6,0.6c0.3,0.3,1,1.4,1.3,1.3c0.5-0.2,1.4-0.3,1.6,0.4c-0.2,0.1-0.9,0.4-0.9,0.6c0.2,0.5,0.7,0.1,0.9-0.3&#10;&#9;&#9;s1.8,0.6,2.2,0.8c-0.1,0.5-0.8,0.5-1.1,0.6c0.3,0.1,0.6,0,0.5,0.4c0.3-0.2,0.7-0.2,0.8-0.7c0.3,0.2,0.7,0.4,0.7,0.8&#10;&#9;&#9;c-0.4-0.1-0.8,0-1.1,0.3c0.2,0.1,0.5,0.2,0.8,0.2c0.5-0.1,0.5-0.1,0.7,0.4l-1-0.2c0,0.2,0.1,0.4,0.1,0.7l-0.7,0.1&#10;&#9;&#9;c0.8,0.4,1.7,0.7,2.5,1c0.3,0.1,0.6,0.3,0.9,0.6c0.4,0.4,0.6,0.4,1.1,0.4c-0.1,0.2-0.2,0.4-0.3,0.5c0.4-0.1,0.9-0.1,1.3,0&#10;&#9;&#9;c0.5,0.2,0.3,0.6,0.3,1.1c-0.2-0.1-0.7-0.2-0.8,0l0.6,0.3c-0.6,0.3-0.8,0.6-1.4,0.2c0.1,0.4,0.1,0.9,0,1.4&#10;&#9;&#9;c-0.6-0.3-1.1-0.7-1.5-1.2c0.3-0.1,0.8-0.2,0.6-0.7c-0.2,0.1-0.6,0.3-0.8,0.3s-0.5-0.6-0.8-0.7s-0.5-0.2-0.7,0.1s0.2,0.4,0.2,0.8&#10;&#9;&#9;l-0.7-0.1c0.1,0.2,0.1,0.4,0.2,0.7c0.3-0.1,0.4-0.3,0.5,0.1s0.2,0.6,0.3,1c0.1-0.5,0.3-0.3,0.6-0.1s0.3,0.3,0.4,0.7&#10;&#9;&#9;s0.4,0.2,0.6,0.5c0.1,0.3,0.1,0.7,0.1,1L204,203c-0.2,0.4,0.4,0.5,0.2,1c-0.1,0-0.2,0-0.3-0.1c0.1,0.2,0.1,0.3,0.2,0.5&#10;&#9;&#9;c-0.2,0.1-0.6-0.5-0.9-0.7l-1.4-0.9c0.1,0.1,0.1,0.3,0.1,0.4l-0.8-0.4l0.5,0.8c0.1,0.2,0.6,0.2,0.7,0.3l0.9,0.6&#10;&#9;&#9;c0.3,0.2,0.2,0.3,0.1,0.7l-2.4-0.6c-0.3-0.1-0.3-0.4-0.4-0.5l-1.2-0.3l0.1-0.2c-0.4,0-0.7-0.2-1-0.4l0.6-0.3&#10;&#9;&#9;c-0.4-0.2-0.8-0.2-1-0.5c-0.4-0.6-0.4-1-1-0.6c0-0.3-0.1-0.4-0.4-0.4c0,0.1-0.1,0.2-0.1,0.4c-0.4-0.1-0.7-0.3-1,0s-0.8,0.2-1.2,0.2&#10;&#9;&#9;s-0.7-0.5-0.5-0.7s0.7-0.4,0.6-0.8c0.6,0.2,1.2,0.2,1.8,0.1c0.1,0,1-0.2,1.1-0.3c0.1-0.3-0.5-0.6-0.7-0.7l1.4-1.5&#10;&#9;&#9;c0.1-0.1,0.4-0.2,0.2-0.4l-0.6-1.1c-0.3-0.6-1-0.4-1.2-0.9s-0.2-0.4-0.6-0.2l-0.9,0.3c0-0.8,0.1-0.6,0.8-0.8&#10;&#9;&#9;c-0.4-0.3-1.1-1.3-1.5-0.8l-0.1-0.6c0-0.2-0.4,0-0.5,0c-0.4-0.2-0.3-0.9-0.8-0.4c0.4,0.1,0.4,0.3,0.6,0.7c-0.8,0.2-1.7,0.1-2.5-0.3&#10;&#9;&#9;l0.7,0.7c-0.3,0.1-0.4-0.3-0.7-0.3c-0.1,0-0.2,0.3-0.3,0.2l-0.6-0.2c-0.6-0.1-1.3-0.2-1.9-0.1c-0.3,0-0.6-0.1-0.9-0.2&#10;&#9;&#9;c-0.3-0.3,0.1-0.5-0.5-0.4c-0.3,0-0.4,0.3-0.8,0.1c-0.5-0.2-0.9-0.6-1.1-1.1l1.8,0.2c-0.6-0.6-1.2-0.6-2-0.6c-0.1,0-0.2-0.9-0.2-1&#10;&#9;&#9;c-0.1-0.3,0.3-0.9,0.4-1.2v-0.1c-0.8,1.1-1.6,2.2-2.3,3.4c0.2,0.3,0.6,0.6,0.8,0.8l-1.1,0.7c0.4,0.1,0.6,0.4,1,0.1s0.6,0.1,1,0.2&#10;&#9;&#9;l-0.5,0.4c0.3,0.3,0.5,0.3,0.4,0.8s-0.2,0.6,0.2,0.8c0.2-0.3,0.4-0.6,0.4-1c0-0.2,0.2-0.8,0.5-0.6s0.8,0.4,0.9,0.6&#10;&#9;&#9;c0.1,0.4,0.3,0.8-0.1,1c0-0.1-0.1-0.2-0.1-0.3c-1,0.6,1.2,2.5,1.3,1.5c0-0.3,0-0.5,0.2-0.7s0.4-0.3,0.4-0.5c0-0.8,0-0.8,0.7-1.1&#10;&#9;&#9;c-0.3-0.4-0.5-0.6-0.4-1.1s0.4-0.4,0.8-0.3s1.1,0,1.3,0.2c0.2,0.3,0.6,0.6,1,0.6c-0.2,0.4,0.1,0.7-0.1,1s-0.7,0.1-0.9,0.1&#10;&#9;&#9;c0.1,0.4,0.4,0.8,0.7,1.1c0.4,0.3,0.5,0.6,0.1,1.1c-0.4,0.3-0.8,0.6-1.2,0.8c-0.3,0.2-0.6-0.2-0.9-0.5l0.4,0.9l-0.6-0.3&#10;&#9;&#9;c0,0.1,0,0.2,0.1,0.3c-0.2,0-0.4-0.1-0.6-0.1s0-0.4-0.2-0.4c-0.3,0-0.8-0.1-0.9,0.2l0.6,0.4c-0.2,0.4-0.4,0.7-0.7,0.9&#10;&#9;&#9;c-0.5,0.3-0.7,0-1.1-0.2c-0.7-0.3-1.5-0.5-2.3-0.4l1.8,0.9c0.5,0.1,1.1,0.2,1.6,0.2c-0.2,0.3-0.5,1.2-0.8,1.4s-0.4,0.3-0.6,0.3&#10;&#9;&#9;s-0.5-0.1-0.7,0c-0.6,0.5-0.7,0.5-1.4,0.3c-0.5-0.1-0.9-0.2-1.4-0.4l0.9,0.4c-0.1,0.1-0.1,0.1-0.2,0.2c0.3-0.1,0.7-0.1,1,0.1&#10;&#9;&#9;c0.2,0.1,0.6,0.5,0.2,0.7c-0.3,0.2-0.7,0.2-1.1,0.2c-0.1,0-0.4,0.5-0.5,0.6c-0.5,0.6-0.9,1.3-1.1,2l-0.5,2.4c0.3,0.1,1,0.1,1.3,0.3&#10;&#9;&#9;s0.4,1.2,0.6,1.6c0.2,0.7,0.4,0.4,1,0.3c0.3-0.1,0.7,0.2,1,0.3c0.9,0.3,1.7,0.7,2.5,1.3c0.3,0.2,0.8,0.7,1.1,0.8l1.4,0.2&#10;&#9;&#9;c0.2,0,1.1,0,1.1,0.2c0,0.7-0.1,1.3-0.1,2c0,0.9,0.9,1.6,1.4,2.3s1.6-0.6,1.5-1.1s-0.2-1.2-0.3-1.8c-0.1-0.3-0.5-0.7-0.6-1&#10;&#9;&#9;c0.6-0.4,1.7-0.8,2.1-1.4c0.4-0.7,0.4-1.6,0-2.4c-0.3-0.3-0.6-0.6-0.9-0.9c-0.4-0.5-0.5-0.5,0-0.9s0.5-0.4,0.4-1.1&#10;&#9;&#9;c-0.2-0.4-0.2-0.8-0.2-1.2c0.2-0.5,0.2-1,0-1.4c-0.1-0.4,0.1-0.6,0.6-0.6c0.8-0.1,1.5,0.6,2.3,0.2c0.5-0.2,0.6,0,1.1,0.4&#10;&#9;&#9;c0.2,0.1,0.8,0.4,0.9,0.7s0.4,0.8,0.8,0.7c0.4,0,0.7,0.1,1,0.3c-0.2,0.4-0.3,0.4-0.3,0.8c0.1,0.4,0.1,0.7,0,1.1c0.1,0,0.2,0,0.3,0&#10;&#9;&#9;c-0.2,0.2-0.7,0.6-0.4,0.9c0.5-1.5,2.3,1.8,2.7-0.2c0.1,0.1,0.2,0.1,0.3,0.2c0.2-0.4,0.5-0.8,0.4-1.3s0.4-1,0.8-0.9l-0.1,0.5&#10;&#9;&#9;c0.8,0,1.3,1.6,1.7,2.3c0.2,0.4,0.8,1.1,0.9,1.5c0,0.2-0.4,0.5-0.3,0.8s0.4,0.3,0.5,0.4s0.5,0.3,0.6,0.5s-0.1,0.5,0.2,0.5&#10;&#9;&#9;c0.5,0,1,0.1,1.3,0.4c0.3,0.2,1,0.6,0.3,0.7c-0.4,0.1-0.8,0.2-1.2,0.4c0.2,0.1,0.6-0.1,0.8-0.2c-0.2,0.3-0.8,0.4-1.1,0.5&#10;&#9;&#9;s-0.2,0.7,0,0.5c0.1-0.2,0.3-0.3,0.5-0.3c0.2-0.1,0.1-0.2,0.2-0.2c0.3-0.2,0.7-0.3,1-0.3c-0.1,0-0.3-0.1-0.4-0.2&#10;&#9;&#9;c0.2,0,0.7,0,0.8,0.3s-0.3,0.3-0.1,0.6c0.3-0.5,0.6-0.2,1-0.1s0.1,0.8,0,0.9c-0.1,0.4,0.3,0.5,0,0.9c-0.3,0.3-0.6,0.5-0.9,0.6&#10;&#9;&#9;c-0.3,0.1-0.6,0-1,0.1c-0.3,0.1-0.6,0.4-0.8,0.6c-0.4,0.5-1.2,0.8-1.9,0.6c-0.8-0.1-1.6-0.1-2.4,0c-0.7,0-1.5-0.2-1.7,0.8&#10;&#9;&#9;c-0.1,0.3-0.8,0.3-1,0.5c-0.3,0.3-0.6,0.6-0.9,0.9c-0.4,0.6-0.8,1.1-1.3,1.6c1-0.5,1.5-1.5,2.5-2c0.7-0.3,2.5-1.4,3-0.1&#10;&#9;&#9;c-0.1,0-0.2-0.1-0.3-0.1c0.5,0.3-0.2,0.6-0.4,0.8s-0.6-0.2-0.9,0c0.1,0,0.5,0.4,0.5,0.4c0.2-0.1,0.5-0.1,0.7,0&#10;&#9;&#9;c-0.1,0.3-0.2,0.5-0.4,0.7c0.1,0,0.3,0,0.4,0c-0.2,0.5,0.4,0.9,0.8,1l-0.1,0.1c0.6,0.3,1.1,0.5,1.6,0.1l0.1,0.3&#10;&#9;&#9;c0.1,0,0.2,0,0.3-0.1c-0.4-0.4,0.3-1.1,0.6-1.4c0.4,0.2,0.2,0.6,0.1,0.9c0.3-0.3,0.8,0.2,0.5,0.4c-0.3,0.2-0.7,0.3-1.1,0.3&#10;&#9;&#9;c0.1,0.1,0.1,0.2,0.2,0.3l-1.4,0.6c-0.2,0.1-0.4,0.1-0.5,0.2c-0.2,0.2-0.2-0.2-0.4-0.1c-0.3,0.2-0.6,0.8-0.9,1.1s-0.5-0.1-0.6-0.1&#10;&#9;&#9;c-0.5-0.7,0.7-1.3,1.1-1.6s0.1,0,0.3,0.1s0.4-0.1,0.7-0.3c-0.3,0-0.7-0.1-1,0.1c0-0.2,0.1-0.3,0.3-0.5c-0.4-0.1-0.8,0.4-1.1,0.6&#10;&#9;&#9;s-0.2-0.2-0.4,0.1s-0.4,0.1-0.5,0.1c0.2,0.8-1,0.5-1.2,0.8l-0.1-0.2c-0.2,0.4-0.4,0.4-0.8,0.6s-0.3,0.3-0.4,0.6s-0.9,1.8,0.1,1.6&#10;&#9;&#9;c0-0.1,0-0.1-0.1-0.2c0.1,0.1,0.2,0.2,0.2,0.2c-0.3,0.2-0.6,0-1,0c-0.2,0-0.1,0.4-0.3,0.4c-0.6,0-1.2,0.2-1.7,0.5&#10;&#9;&#9;c0.4-0.1,0.8-0.3,1.3-0.3l-0.1,0.1c0.1,0,0.2,0,0.4,0c-0.3,0.2-0.5,0.3-0.9,0.3c-0.3,0-0.8-0.1-0.9,0.2c0.7,0.1-0.3,1.4-0.6,1.6&#10;&#9;&#9;c0.2-0.3-0.3-0.5-0.4-0.8c0,0.4,0.5,0.9,0.4,1.3c-0.2,0.4-0.4,0.8-0.6,1.2h-0.1c0-0.3,0.1-0.5,0.2-0.8c-0.2-0.1-0.1-0.5-0.4-0.4&#10;&#9;&#9;c0-0.3,0.1-0.5,0.2-0.8c0-0.1,0.2-0.6,0-0.4c-0.6,0.4-0.4,0.7-0.3,1.4c-0.2-0.1-0.4-0.2-0.6-0.3c0.1,0.2,0.5,0.3,0.6,0.5&#10;&#9;&#9;s-0.1,0.6-0.1,0.8s0.5,0.1,0.4,0.6s-0.3,0.4-0.6,0.5c0.3,0,0.8-0.1,0.7,0.3c0,0.2-0.6,0.2-0.8,0.2c0.1,0,0.2,0.1,0.2,0.2&#10;&#9;&#9;c-0.1,0-0.2,0.1-0.4,0.1c0.1,0.4,0.4,0,0.6,0.2l-0.5,0.3c-0.1,0.1-0.3-0.1-0.4-0.1s-0.4,0.6-0.5,0.8s-0.4,0.1-0.6,0.3&#10;&#9;&#9;c-0.1,0.2-0.3,0.4-0.6,0.6c-0.6,0.3-1.1,0.9-1.3,1.5c-0.2,0.5-0.1,1.1,0.1,1.5c0.3,0.7,0.6,1.4,0.8,2.1c0.1,0.4,0.2,1.4-0.1,1.7&#10;&#9;&#9;s-0.4,0.5-0.6,0.1c-0.1-0.1-0.5-0.5-0.6-0.6c-0.1-0.3-0.2-0.6-0.4-0.8c-0.1-0.3-0.3-0.5-0.2-0.9l-0.2,0.1c-0.1-0.5,0.3-1.1-0.2-1.5&#10;&#9;&#9;s-0.6-0.9-1.1-0.7c-0.3,0.1-0.5,0.3-0.8,0.1c-0.2-0.2-0.5-0.4-0.8-0.5c-0.4-0.1-1.1,0.4-1.3-0.3c-0.1,0.6-1.5,0.2-1.9,0.5&#10;&#9;&#9;c0.3,0,1.4,0.2,0.6,0.5c0.1,0,0.5,0.2,0.5,0.3c0,0.1,0,0.2-0.2,0.3c0,0-0.1,0-0.1,0c0.1-0.3-0.3-0.4-0.5-0.5c0.1,0.2,0,0.3-0.1,0.4&#10;&#9;&#9;c-0.2-0.4-0.4,0-0.6-0.2s-0.5-0.5-0.9-0.4c-0.2,0.1-0.5-0.1-0.7-0.2c-0.4-0.1-1,0.3-1.4,0.5c-0.6,0.3-2.1,1.4-2.1,2.3&#10;&#9;&#9;c0,0.3,0.4,0.6,0.4,0.8c0,0.2-0.1,0.5-0.2,0.7c-0.2,0.5-0.3,1-0.4,1.5c-0.1,1.2,0.2,2.3,0.9,3.3c0.4,0.6,0.6,1.1,1.3,1.3&#10;&#9;&#9;c0.1,0.1,0.4,0.4,0.5,0.4l0.9-0.3c0.2-0.1,0.5-0.2,0.8-0.2c0.2,0,0.4,0.2,0.5,0.2c0.1,0,0.2-0.1,0.4-0.2c0.1-0.1-0.1-0.2,0-0.3&#10;&#9;&#9;c0.2-0.1,0.4-0.4,0.5-0.6c0.2-0.5,0.1-1.2,0.7-1.4c0.4-0.1,0.8-0.2,1.3-0.3c0.3,0,1.3-0.1,1,0.6c-0.1,0.3-0.5,1.1-0.7,1.1&#10;&#9;&#9;c0.1,0.1,0,0.2,0.3,0.1c-0.1,0.1-0.2,0.2-0.2,0.2v0.1l0.1-0.1c-0.1,0.3-0.2,0.7-0.3,1c-0.1-0.2-0.2-0.4-0.2-0.6&#10;&#9;&#9;c-0.1,0.1-0.2,0.2-0.2,0.4c0.4,0-0.1,0.9,0.1,1.2s-0.3,0.8-0.5,1c0.6,0.1,1.3,0.2,1.9,0.2c0.3,0,0.5-0.2,0.7-0.2c0.3,0,0.7,0,1,0.1&#10;&#9;&#9;c0.6,0.2,0.9,0.7,0.8,1.3c-0.1,0.4-0.1,0.9-0.2,1.3c0,0.2-0.2,0.5-0.3,0.7c-0.1,1.2,1.3,3.1,2.3,2.6c0.7-0.3,1-0.5,1.7-0.3&#10;&#9;&#9;c0.6,0.2,1.1,0.6,1.4,1.1c0-0.8,1-2,1.4-2.6c0.1-0.2,0.9-0.3,1.1-0.4l1.7-0.6c0.5-0.2,1.4,0.3,1.9,0.4l4,0.9c0.7,0,1.4,0.3,2,0.7&#10;&#9;&#9;l3.1,3c0.7,0.6,2.1,0.6,2.9,0.8s1.4,1.5,1.9,2.1l1.5,1.9c0.1,0.2,0.4,0.7,0.6,0.7l3.2,1.1l3.2,1.1c0.9,0.5,1.8,1.1,2.6,1.9&#10;&#9;&#9;c0.1,0,1.1,0,1.2,0.1c0.1,0.5,0.2,1,0.3,1.4c0.2,1,0.2,1-0.3,1.8l-2.1,3c-0.3,0.5-0.7,0.8-0.8,1.4c-0.1,1.5-0.2,2.9-0.3,4.4&#10;&#9;&#9;c-0.1,1-1.1,2-1.6,2.7c-0.2,0.3-0.4,0.9-0.8,0.9s-1.3-0.1-1.6,0.1l-2.9,2c-0.2,0.1-0.2,1.6-0.2,1.9s0,0.8-0.2,1.1&#10;&#9;&#9;c-0.8,1-1.6,2.1-2.4,3.1l-2.2,2.8c-0.2,0.2-2.5-0.8-2.8-0.9c-0.2,0.8,1.1,0.9,1.2,1.6c0.2,0.4,0.2,0.9,0.3,1.3&#10;&#9;&#9;c-0.1,0.3-0.5,0.7-0.7,1c-0.5,0.7-1.1,0.7-1.9,0.9c-0.6,0.2-1.3,0.2-1.9,0c0.1,0.5,0.3,0.7,0.1,1.1c-0.1,0.3,0,0.8-0.1,0.9&#10;&#9;&#9;c-0.8,0.5-1.2,0.3-2-0.1c0,0.4,0,0.9,0,1.3c0.1,0.3,0.5,0.8,0.4,1c-0.2,0.5-0.5,1-0.7,1.6s-0.3,0.5-0.9,0.6c-0.1,0-0.1,0.1-0.2,0.1&#10;&#9;&#9;c37.9,29,92,21.8,121-16c4.9-6.4,8.9-13.4,11.8-20.9c-0.7-0.6-1.3-1.3-1.9-1.9c-0.4-0.3-0.7-0.7-0.9-1.1c-0.2-0.6-0.5-1.2-0.8-1.8&#10;&#9;&#9;c-0.2-0.2-0.4-0.1-0.5-0.3s-0.2-0.7-0.3-1.1c-0.2-0.6-0.9-0.5-0.9-1.1s-0.7-0.7-1-1c-0.1-0.1-1-1.1-0.8-1.4s1.1,0.2,1.3,0.3&#10;&#9;&#9;c0.7,0.1,0.6,0.3,0.9,0.9c0.4,0.4,0.7,0.7,1.1,1c0.4,0.4,0.9,0.5,1.2,1c0.2,0.2,0.4,0.2,0.6,0.3c0.5,0.1,0.1,0.1,0.4,0.4&#10;&#9;&#9;s0.4,0,0.4,0.4c0,0.2,0.5,0.2,0.5,0.5s-0.2,0.3-0.2,0.7s0.5,0.3,0.6,0.3s0.2,0.6,0.2,0.8s0.4,0.3,0,0.6c0.2-0.2,0.5-0.3,0.8-0.1&#10;&#9;&#9;c0-0.1,0.1-0.2,0.1-0.3s-0.1-0.1-0.1-0.1c-0.1,0-0.3,0-0.4-0.1c0.2-0.2,0.3-0.6,0.5-0.2c0-0.1,0-0.1,0-0.2c0.1,0,0.2,0,0.2,0.1&#10;&#9;&#9;c2.3-6.5,3.7-13.3,4.4-20.2l-0.7,0.3C340.1,247.9,340.2,247.9,340.3,248.2z M279.6,234.9c0.1-0.2,0.7-0.1,0.9-0.1s0.6-0.2,0.9-0.4&#10;&#9;&#9;c-0.2,0.2-0.6,0.4-0.4,0.7C280.8,235.2,279.2,235.7,279.6,234.9z M273,234.4c0.3,0.3,0.7,0.4,1.1,0.3c0.3,0,0.8,0.1,0.8,0.4&#10;&#9;&#9;c-0.7,0-1.4,0-2.1-0.3C272.8,234.7,272.9,234.5,273,234.4L273,234.4z M261.1,227.9c0.2-0.1,0.4-0.3,0.5-0.4&#10;&#9;&#9;c0.1-0.2-0.1-0.4,0.2-0.4c0.1,0.5,0,1.1-0.2,1.6C261.4,228.7,260.9,228.2,261.1,227.9z M260.8,229.2c0.1,0,0.2,0.1,0.2,0.1&#10;&#9;&#9;c0.2-0.1,1.1-0.6,1,0.2l-0.1,1.2c0,0.4-0.4,0.2-0.4,0.4c0,0.4-0.3,0.3-0.5,0.1s0-0.3,0.1-0.7c0-0.1-0.2-0.2-0.2-0.2&#10;&#9;&#9;s0.2-0.3,0.2-0.5C261.1,229.5,260.7,229.7,260.8,229.2L260.8,229.2z M257.3,230.6l-0.4,0.4l-0.5-0.4&#10;&#9;&#9;C256.8,230.3,257,230,257.3,230.6L257.3,230.6z M262.7,213.8c-0.2,0-0.5-0.4-0.5-0.6c0.2-0.1,0.5-0.2,0.5,0.1&#10;&#9;&#9;c0.1,0,0.2,0.2,0.2,0.3C262.8,213.7,262.8,213.8,262.7,213.8L262.7,213.8z M272.7,209.6c-0.4,0.2-0.9,0.3-1.1,0.7&#10;&#9;&#9;c0.1-0.3,0-0.5-0.2-0.7C271.8,209.4,272.3,209.4,272.7,209.6L272.7,209.6z M270.2,207.4h-0.1c0,0.1,0,0.2,0,0.3&#10;&#9;&#9;C269.5,207.3,270.2,206.9,270.2,207.4L270.2,207.4z M269.4,210.3c-0.2,0.2-0.4,0.4-0.2,0.7c-0.3,0.1-0.5,0.3-0.6,0.5&#10;&#9;&#9;C268.5,210.9,268.6,210.1,269.4,210.3L269.4,210.3z M263.1,213.1c0.2-0.1,0.2-0.2,0.2-0.4c0.1,0,0.2,0,0.3,0&#10;&#9;&#9;c-0.1,0.2,0,0.3,0.2,0.3c-0.5-1,1.2-0.1,0.1,0.2c0.1,0.1,0.1,0.2,0.2,0.2c-0.4,0-0.4,0.4-0.4,0.8c-0.1-0.3,0-0.6-0.3-0.6&#10;&#9;&#9;S263.1,213.3,263.1,213.1L263.1,213.1z M292.3,195.5c-0.5-0.5-0.4-0.8,0.2-1.1c0.4,0.1,0.7,0.2,1,0.5&#10;&#9;&#9;C293.3,195.1,292.5,195.8,292.3,195.5L292.3,195.5z M301.4,194.1c-0.4,0.3-1.3-0.5-1.5-0.8l0.4-0.3&#10;&#9;&#9;C300.5,193.1,301.7,193.8,301.4,194.1L301.4,194.1z M309.2,188.1c0.4-0.1,0.8,0.2,0.9,0.6l-1.3,0.2&#10;&#9;&#9;C308.8,188.4,308.7,188.2,309.2,188.1L309.2,188.1z M304.2,174.6c0.1-0.1,0.1-0.4,0.3-0.6s0.6,0,0.8-0.1c0,0.5,0.2,0.7-0.3,0.8&#10;&#9;&#9;l-1.5,0.3c-0.1-0.1-0.2-0.2-0.3-0.3C303.5,174.2,303.9,174.8,304.2,174.6L304.2,174.6z M302.8,175.2c-0.3,0.3-1.1,0.9-1.4,0.5&#10;&#9;&#9;c-0.2-0.2-0.3-0.1-0.6-0.1s-0.3-0.3-0.4-0.6c0.5-0.3,1.1-0.5,1.6-0.6C302.4,174.3,303.1,174.9,302.8,175.2L302.8,175.2z M300,176.2&#10;&#9;&#9;c-0.5,0.1-1.9,0.5-2-0.1s1.8-0.6,2-0.6l0.6,0.3l-0.7,0.1C299.9,176,299.9,176.1,300,176.2L300,176.2z M301,176.5l-0.4,0.2&#10;&#9;&#9;c-0.1-0.1-0.3-0.2-0.4-0.3C300.5,176.4,300.9,176.1,301,176.5L301,176.5z M299,173.1c0.6-0.4,0.9-0.3,1.5-0.1l-1.2,0.3l0.6,0.5&#10;&#9;&#9;l-1,0.4l-1.3-0.2C298.1,173.7,298.6,173.4,299,173.1L299,173.1z M298,174.4c0.5,0,1.1,0.1,1.6,0.4c-0.5,0.3-1,0.6-1.6,0.6l-1.5-0.4&#10;&#9;&#9;C296.9,174.3,297.2,174.4,298,174.4z M296.7,175.8l-0.6,0.5l-1-0.1C295.8,175.6,295.8,175.5,296.7,175.8L296.7,175.8z M295.3,189.9&#10;&#9;&#9;c0.2-0.5-0.2-0.5,0.3-0.9c0.1-0.1,0.9-0.5,0.9-0.7c-0.1-0.4-0.2-0.6,0-0.9l1.1-1.2c0.5-0.5,1.1-1.1,1.6-1.6&#10;&#9;&#9;c0.6-0.4,1.3-0.7,2.1-0.9c0.7-0.3,1.4-0.4,2.2-0.4c0.9-0.2,1.8-0.5,2.5-1c0.3-0.3,2.2-0.7,2.1,0.3c-0.1,0.8-1.9,1.1-2.4,1.3&#10;&#9;&#9;c-0.9,0.3-1.8,0.6-2.8,0.9c-0.7,0.3-1.3,0.7-1.9,1.2c-0.4,0.2-0.9,0.5-1.2,0.8c-0.3,0.4-0.6,0.8-0.9,1.1c-0.5,0.6-1.4,1.4-1.4,2.3&#10;&#9;&#9;c0,1.2,0.7,1.7,1.5,2.2c-0.5,0.4-1.8,0.1-2.4,0c-0.7-0.1-1.3-0.4-1.7-0.9c-0.4-0.5-0.5-0.5-0.5-1.1&#10;&#9;&#9;C294.6,190.1,295.1,190.3,295.3,189.9L295.3,189.9z M292.1,174.9c0.5,0,0.9,0,1.4-0.2c0.5-0.1,0.8,0.1,1.1,0.4l-2.2,0.5&#10;&#9;&#9;c0.1,0.2,0.1,0.4,0.2,0.6c-0.6,0-1.2-0.1-1.8-0.3l1.1-0.8l-1.4,0.4l-1-0.3C290.3,174.9,291.2,174.8,292.1,174.9L292.1,174.9z&#10;&#9;&#9; M266,197.4c0.1-0.1,0.1-0.2,0.2-0.3c-0.1-0.1-0.1-0.1-0.2-0.2c0.3,0,0.5-0.1,0.5-0.5C266.5,197,266.3,197.1,266,197.4z&#10;&#9;&#9; M266.5,196.7c0-0.1,0-0.3,0-0.4c0.1,0,0.2,0,0.3,0c0.1-0.2,0.2-0.4,0.5-0.4L266.5,196.7z M272.2,192.6c0.3,0.1,0.3-0.1,0.5-0.2&#10;&#9;&#9;c0,0.2-0.2,0.3-0.4,0.5c-0.4,0-0.7,0.1-0.8-0.3C271.8,192.6,272,192.6,272.2,192.6z M271.5,193.1c0.3,0,0.6,0,0.9-0.1&#10;&#9;&#9;c0.3-0.1,0.3-0.4,0.6-0.4c-0.4,0.5-1.1,0.9-1.7,0.9C271.5,193.4,271.6,193.3,271.5,193.1L271.5,193.1z M270.7,193.4&#10;&#9;&#9;c0,0.3-0.1,0.4-0.3,0.2c0-0.1-0.1-0.2-0.1-0.2C270.4,193.4,270.6,193.4,270.7,193.4L270.7,193.4z M270.4,193.8l-0.7,0.3l-0.5,0.1&#10;&#9;&#9;C269.5,194,270,193.6,270.4,193.8z M269.8,193.7c-0.1,0.2-0.2,0.3-0.4,0.3c-0.1,0-0.2-0.1-0.3-0.1&#10;&#9;&#9;C269.2,193.5,269.6,193.6,269.8,193.7L269.8,193.7z M269.1,193.9c0.4,0.1,0.2,0.3,0,0.5h-0.5C268.7,194.2,268.9,194,269.1,193.9&#10;&#9;&#9;L269.1,193.9z M268.1,194.4c0.2-0.1,0.4-0.2,0.6,0.1c-0.2,0.1-1,1-1,0.4C267.7,194.5,267.6,194.5,268.1,194.4L268.1,194.4z&#10;&#9;&#9; M267.8,195.3l0.6-0.5l-0.9,0.9C267.4,195.5,267.5,195.3,267.8,195.3L267.8,195.3z M267.4,195.8c-0.2-0.1-0.4,0-0.5,0.2&#10;&#9;&#9;c-0.2,0.3-0.3,0.2-0.6,0.1c0.2-0.2,0.1-0.1,0.2-0.4h0.2c-0.1-0.3,0-0.5,0.3-0.5c0,0.2-0.1,0.4-0.1,0.6c0.3-0.1,0.2-0.4,0.3-0.5&#10;&#9;&#9;S267.5,195.6,267.4,195.8L267.4,195.8z M267.1,194.8c0,0.1,0,0.1-0.1,0.2c-0.1,0.1-0.3,0.2-0.4,0.4&#10;&#9;&#9;C266.5,195,266.8,195,267.1,194.8L267.1,194.8z M266.2,195.2c0.3,0.2,0.3,0.4,0,0.7l-0.5-0.1C265.8,195.6,266,195.4,266.2,195.2&#10;&#9;&#9;L266.2,195.2z M266.3,196l-0.6,0.4C265.6,195.9,265.9,196,266.3,196L266.3,196z M265.1,196.4c0.1-0.1,0.3-0.2,0.4,0&#10;&#9;&#9;c-0.1,0.2-0.3,0.3-0.4,0.2C265.1,196.5,265.1,196.4,265.1,196.4L265.1,196.4z M252.2,208.9l-0.1,0.1c0.1,0,0.2,0,0.3,0&#10;&#9;&#9;c-0.2,0.1-0.2,0.1-0.4,0.1c0,0.1,0,0.1,0,0.1l-0.1-0.2C251.9,209,251.9,208.7,252.2,208.9L252.2,208.9z M250,210.7l0.2,0.1&#10;&#9;&#9;c-0.1-0.1-0.1-0.3-0.1-0.4c0.2-0.1,0.4-0.1,0.5,0c-0.1-0.1-0.2-0.2-0.3-0.3l0.1-0.2h0.2c-0.1-0.3,0.2-0.6,0.2-0.2&#10;&#9;&#9;c0.2-0.1,0.1-0.1,0.2,0c0.3-0.2,0.7-0.3,1.1-0.2c-0.1,0.5-0.7,0.6-0.8,0.9h-0.3c0.1,0,0.3,0.1,0.4,0.1c-0.1,0.1-0.2,0.2-0.3,0.3&#10;&#9;&#9;l0.1,0.1c0.1-0.3,1.6-0.5,1.8-0.2c0.3,0.5-0.9,1.2-0.6,1.7c-0.2-0.1-0.4,0-0.6,0.2c0.9,0.1,1.3,0.2,1.6,1.2c0.2,0.7,1,0.8,1.1,1.7&#10;&#9;&#9;c-0.1-0.2-0.3-0.3-0.6-0.2c0.4,0,1.1,0.6,0.6,0.9c0.1,0.1,1.3-0.4,1.2,0.4s-0.4,0.9-0.9,1.3c0.2,0,1.2,0.2,0.6,0.5&#10;&#9;&#9;c-0.4,0.1-0.9,0.3-1.4,0.3c-0.3,0.1-0.4-0.2-0.6-0.2s-0.6,0.3-0.8,0.4c-0.6,0.3-0.7-0.4-1.1,0.5c-0.6-0.4-1.1,0.4-1.5,0.1&#10;&#9;&#9;c0.2-0.3,0.8-0.5,0.9-0.9c0.2-0.6,0.7-0.4,1.2-0.3c0-0.2,0.2-0.4,0.4-0.6l-0.8,0.3c0,0-0.4-0.2-0.6-0.2l0.1-0.1&#10;&#9;&#9;c-0.3-0.2-0.6,0.3-0.9-0.1c0-0.1,0-0.1,0-0.2c0.2-0.1,0.7-0.2,0.9-0.4c0.2-0.3,0-0.4,0.1-0.8l-0.5,0.1c0.3-0.2,0.4-0.4,0.1-0.7&#10;&#9;&#9;c0.1-0.1,0.3,0,0.4,0.1c0,0,0,0,0,0.1c0.2-0.2,0.5-0.1,0.7,0c0-0.1,0-0.1,0-0.2c0.1,0.1,0.1,0,0.2,0.1h0.1c-0.2-0.3-0.3-0.7-0.1-1&#10;&#9;&#9;c-0.4,0.3-0.8-0.8-0.1-0.9c-0.4-0.1-0.8,0.3-1.1,0.1c0.1,0.3-0.2,0.1-0.4,0c0,0.1,0,0.2,0,0.3c-0.4-0.3-0.1-0.4,0.1-0.7&#10;&#9;&#9;s0.1-0.2,0-0.6s-0.1-0.3,0.1-0.3c0-0.1,0-0.2-0.1-0.3c-0.2,0.6-0.6,0.2-0.2-0.1c-0.3,0.1-0.3,0.4-0.4,0.7s0,0.7-0.2,0.5&#10;&#9;&#9;s0-0.2,0.1-0.3s0-0.3,0-0.5s0.1-0.7,0.4-0.9l-0.1-0.1c-0.2,0.2-0.4,0.5-0.6,0.3c0.4,0.3-0.1,0.5-0.3,0.3c0.3-0.1,0.3-0.2,0-0.3&#10;&#9;&#9;c0.1-0.1,0.4-0.2,0.4-0.3c0-0.2,0.1-0.4,0.3-0.5L250,211c0,0,0.1,0,0.1-0.1C250,210.9,249.9,210.9,250,210.7z M250.4,213&#10;&#9;&#9;c0.2,0,0.2,0.2,0.1,0.4C250.4,213.2,250.4,213.1,250.4,213L250.4,213z M250.8,215c0-0.2,0.1-0.3,0.3-0.4c0.1,0.2,0,0.4-0.1,0.4&#10;&#9;&#9;c0,0,0,0,0,0L250.8,215z M249.9,212.9c-0.1-0.3,0-0.4,0.2-0.4C250,212.7,249.9,212.8,249.9,212.9L249.9,212.9z M249.5,212.9&#10;&#9;&#9;c0.1-0.1,0.2-0.1,0.3-0.2c0.1,0.2,0.1,0.4-0.1,0.4C249.5,213,249.7,212.9,249.5,212.9L249.5,212.9z M249.5,211.4l0.1-0.1&#10;&#9;&#9;c0.1,0.1,0,0.1,0,0.2L249.5,211.4z M250.1,211.1c-0.2,0.5-0.7-0.1-0.9-0.3c0,0,0.1-0.1,0.1-0.2l0.2,0.2c0-0.1,0-0.1,0-0.2&#10;&#9;&#9;c0.1,0,0.1,0.1,0.2,0.2C249.7,211,249.8,211.1,250.1,211.1L250.1,211.1z M249.6,209.6c0.1-0.1,0.2,0.4-0.1,0.4l0.1,0.1&#10;&#9;&#9;c-0.2,0.1-0.3,0.2-0.5,0.3l-0.1-0.2l0.1-0.1C248.7,209.9,249.3,209.7,249.6,209.6L249.6,209.6z M249,210.7&#10;&#9;&#9;c-0.1,0.2-0.2,0.4-0.1,0.7c-0.2-0.2-0.1-0.5-0.1-0.6s-0.1,0-0.1-0.1C248.8,210.6,248.9,210.6,249,210.7L249,210.7z M246.4,217.1&#10;&#9;&#9;c0.2,0,0.4-0.1,0.5-0.3c0.1-0.2,0.6-0.2,0.8-0.2c-0.3-0.1-0.6,0-0.9,0.1c0.2-0.3,0.5-0.5,0.7-0.8c-0.3,0-0.6-0.1-0.9-0.3&#10;&#9;&#9;c0.1-0.1,0.4-0.3,0.3-0.4c-0.1-0.4-0.2-0.4,0.1-0.6s0.4,0,0.6,0.1s0.4-0.1,0.6-0.3l-0.5-0.2c0.3-0.4,0.8-1.1,1.4-0.7l-0.1,0.2&#10;&#9;&#9;c0.2-0.1,0.6-0.2,0.7-0.1s0.2,0.7,0.5,0.6c-0.1,0.6-0.2,0.6-0.7,1c0.2,0.3,0.4,0.6,0.3,1l-0.2,0.8c-0.1,0.3-0.3,0.1-0.5,0.1&#10;&#9;&#9;c-0.7,0.2-1.7,1.3-2.4,0.7c0.1-0.1,0.1-0.2,0.2-0.2l-0.5-0.1c0.1-0.1,0.3-0.1,0.4-0.2C246.7,217.2,246.6,217.1,246.4,217.1&#10;&#9;&#9;L246.4,217.1z M194.2,189.1c-0.3,0.1-1.1,0.4-1.4,0.3s-0.4-0.2-0.5-0.3s0.1-0.4-0.3-0.6c-0.3-0.1-0.4-0.4-0.3-0.7&#10;&#9;&#9;c0.1-0.2,0.2-0.3,0.4-0.3l0.9,0.3c0.2,0.1,0.6-0.1,0.8,0c0.6,0.3,1.2,0.7,1.6,1.3C195,189.1,194.6,189.1,194.2,189.1L194.2,189.1z&#10;&#9;&#9; M196.5,196.7c0.2-0.2,0.6-0.2,0.8,0c0.1,0.1,0.2,0.2,0.2,0.4C197.4,197.1,196.2,197.1,196.5,196.7L196.5,196.7z M196.2,196.5&#10;&#9;&#9;c-0.2,0.5,0,0.7-0.2,1.2s-1.1,0-1.3-0.2C194,196.9,195.6,195.6,196.2,196.5L196.2,196.5z M189.5,204.9c-0.1,0-0.1-0.3-0.2-0.4&#10;&#9;&#9;c-0.1-0.3,0-0.3,0.2-0.4c0.3-0.2,0.6-0.3,1-0.4h0.5C190.9,204.4,190.2,205,189.5,204.9L189.5,204.9z M191.5,203.1&#10;&#9;&#9;c-0.4-0.1-1.7-0.3-1.6-1c-0.5,0.2-0.4,0.6-0.9,0.7c-0.3,0.1-0.5,0.5-0.8,0.8s-0.3-0.8-0.4-0.9c-0.4,0-0.8,0.1-1.1,0.2&#10;&#9;&#9;c0.1-0.2,0.7-0.6,0.8-0.8s-0.1-0.4-0.1-0.6c0-0.2,0.1-0.5,0.1-0.7c0.1-0.6,0.1-1,0.6-1.2s0.7,0.6,0.1,0.7c0,0.1,0.1,0.2,0.2,0.3&#10;&#9;&#9;c0.3-0.4,0.4-0.3,0.6,0s0.5,0.1,0.7,0.3s1.7,0.9,1.1,1.4c0.4-0.1,0.9,0,1.2,0.3L191.5,203.1z M192.5,205.7&#10;&#9;&#9;c-0.2-0.2-0.4-0.3-0.3-0.6s0.3-0.6,0.6-0.5C193.4,204.8,192.7,205.4,192.5,205.7L192.5,205.7z M205.5,223.9c-0.5-0.2-1.1-0.3-0.8-1&#10;&#9;&#9;c0.1,0.2,0.1,0.3,0.2,0.5l1.5,0.1C206.1,223.8,206,224.1,205.5,223.9L205.5,223.9z M204.5,219.7c0.8-0.1,1.6,0.2,2.2,0.8&#10;&#9;&#9;c-0.7,0.5-1.8-0.4-2.3-0.8L204.5,219.7z M194.6,251c-0.3-0.1-0.6-0.3-0.9-0.5c0.3-0.5,1-0.1,1.4,0c0.1,0.1,0.1,0.2,0.2,0.3&#10;&#9;&#9;C195,250.8,194.8,251.1,194.6,251z M195.9,249.1c-0.6,0-1.2,0-1.8,0c0.1-0.1,0.5-0.4,0.5-0.5c0-0.3-0.5-0.2-0.6-0.3&#10;&#9;&#9;c-0.5-0.2-0.5-0.7-0.9-0.8s-0.9-0.4-1.3-0.4c-0.3,0-0.3-0.2-0.5-0.1c-0.2,0-0.4,0-0.6-0.2c0.1,0,0.3,0,0.4-0.1&#10;&#9;&#9;c-0.8-0.8-1.7,1-2.5,0.6c0.4-0.3,0.5-0.7,1-0.9c0.6-0.2,1.2-0.3,1.8-0.2c1.1,0.2,2.1,0.6,3,1.3l0.1-0.1c0.3,0.4,0.8,0.6,1.3,0.6&#10;&#9;&#9;c0.1,0,0.2,0.3,0.4,0.4c0.3,0.1,0.5,0.2,0.8,0.4C196.6,248.9,196.2,249,195.9,249.1L195.9,249.1z M200.9,250.4&#10;&#9;&#9;c-0.5,0-0.8,0.1-1.2,0.1c-0.1,0-0.1-0.2-0.4-0.1s-0.1,0.6-0.3,0.6c-0.3,0.1-0.3-0.4-0.4-0.5s-0.4,0-0.6,0c-0.6-0.1-0.8,0.2-1.3-0.2&#10;&#9;&#9;c-0.2-0.5,1.3,0.1,1.6-0.2c-0.4-0.5-0.3-0.7-0.9-1c0.6-0.2,0.7-0.1,1.3-0.1c0.2,0,0.3-0.1,0.5-0.1c0.2-0.1,0.5,0.1,0.7,0.2&#10;&#9;&#9;s0.3-0.1,0.4,0.2s0.2,0.4,0.6,0.5c0.2,0,0.5,0.2,0.4,0.4C201.1,250.7,201.2,250.4,200.9,250.4L200.9,250.4z M202.4,250.7&#10;&#9;&#9;c-0.3-0.6,0.7-0.4,1-0.3l0.1,0.1C203.3,250.8,202.6,251.2,202.4,250.7L202.4,250.7z M213.5,223c-0.2,0.3-0.3,0.3-0.6,0.2&#10;&#9;&#9;s-0.4-0.2-0.3-0.7c-0.7,0.1-0.8,0.5-1.5,0.6c0-0.2,0.1-0.5,0.4-0.5c-0.7-0.3-1.4-0.4-2.2-0.3c-0.2,0-0.8,0.1-1-0.2&#10;&#9;&#9;c-0.1-0.3,0-0.7,0.1-1c0.6-0.6,1.1-1.3,1.4-2.1c0.2-0.6,0.9-1.4,1.6-1.2c-0.1,0.2-0.2,0.4-0.3,0.7c-0.4,0.3-0.5,0.4-0.5,0.9&#10;&#9;&#9;c0,0.2,0.3,0.2,0.4,0.3s0.1,0.4,0.1,0.6c0.3-0.1,1.2-0.4,1.4-0.2s0.3,0.3,0.3,0.8c0,0.1,0.4,0.3,0.5,0.5S213.7,222.6,213.5,223z&#10;&#9;&#9; M231.3,196.4l-1.9,0.5c-0.4,0.1-0.5,0.3-0.8,0.7c-0.3,0.5-0.7,1-1.1,1.4c-0.4,0.2-0.9,0.4-1.4,0.5l-2,0.6&#10;&#9;&#9;c-0.5,0.2-0.5,0.2-0.7,0.7c-0.4,1-0.7,2-1.1,3.1l-1.2,3.9c0,0.1-0.9,0.1-1.1,0l-2-0.7c-0.3-0.1-0.9-0.2-1.1-0.5l-1.2-2&#10;&#9;&#9;c-0.8-1-1.4-2.2-1.9-3.4l-0.8-2.3c-0.1-0.7,0-1.4,0.2-2c0-0.1,0-0.6,0.1-0.7c0.4-0.1,0.8-0.3,1.1-0.5c0.1,0,0.6-0.2,0.6-0.3&#10;&#9;&#9;c0.1-0.4,0.1-0.8,0.2-1.2l-1.6,0.5c-0.7,0.2-0.7,0.2-1.3-0.4s-0.2-0.9,0-1.5s-0.4-0.9-0.8-1.4s-0.1-0.8,0.1-1.4s0.1-0.7-0.1-1.3&#10;&#9;&#9;c-0.4-1.1-1-2.2-1.6-3.2c-0.2-0.2-0.7-1.2-1-1.3l-1.6-0.3c-1-0.2-2.1-0.3-3.1-0.3l-1.8,0.2c-0.3,0-1.1-0.6-1.3-0.8l-1.6-0.9&#10;&#9;&#9;c-0.4-0.2-0.7-1-1-1.3c-0.1-0.1-0.5-0.5-0.5-0.7s0.1-0.8,0.3-0.8l2.7-0.8c0.6-0.2,1.3-0.3,2-0.4c0.5,0,0.6,0.1,0.8-0.4&#10;&#9;&#9;s0.4-0.9,0.5-1.3c-0.8-0.1-1.5,0-2.1-0.6l4.6-2.4l1.9-1c0.5-0.2,1.1-0.2,1.7-0.2l3.3-0.4c0.6-0.1,1.1-0.2,1.7-0.2&#10;&#9;&#9;c1.6,0.3,3.1,0.8,4.6,1.4c-0.6-0.8-1.4-1.5-2.4-1.9l2.7-1.2c0.6-0.3,1.4,0.1,2.1,0.2l1.6,0.3c0.4,0.1,0.5-0.7,0.8-0.9&#10;&#9;&#9;c0.3-0.1,0.6-0.1,0.9-0.1l2-0.2c1.9-0.1,3.7,0.1,5.6,0.4c1.6,0.3,3.2,0.9,4.7,1.6l-2.4,0.9c0.5,0.4,1.1,0.3,1.7,0.3&#10;&#9;&#9;s-0.3,1.6-0.4,1.7c0.5-0.2,1.5-0.9,2.1-0.8l1.4,0.2c0.4,0.1,0.6-0.4,0.8-0.7c0.4-0.5,1.5-0.4,2-0.2c0.8,0.2,1.5,0.5,2.3,0.9l-2,1.1&#10;&#9;&#9;c-0.6,0.2-1.2,0.4-1.8,0.4l0.5,0.4c-0.4,0.5-0.9,0.9-1.5,1.3c-0.6,0.3-1.1,0.7-1.5,1.1c-0.3,0.5-1.1,1.3-0.8,1.9&#10;&#9;&#9;c0.3,0.8,0.8,0.9,1.4,1.4l-1.8,1.9l1.3,0.9c0.4,0.2,0.3,0.9,0.4,1.3c0,0.2,0.3,1.3,0.2,1.4l-1.3,1.4c-0.6,0.9-0.9,1.8-1.1,2.8&#10;&#9;&#9;c-0.1,0.4,0.2,1.2,0.3,1.6c0.2,0.7,0.1,0.7-0.4,1.3l-3.1,1.9C233.2,196,232.3,196.2,231.3,196.4L231.3,196.4z M240.4,203.1&#10;&#9;&#9;c-0.3,0.2-0.7,0.2-1.1,0.1c-0.2,0-0.4-0.1-0.6-0.1c-0.1-0.1-0.2-0.4-0.4-0.4l-1.4,0.2c-0.2-0.5,0.6-0.4,0.7-0.8h-0.2v-0.2&#10;&#9;&#9;c-0.2,0-0.4-0.1-0.2-0.3c-0.3,0-1.3,0.2-1.4-0.2c0.6,0,1.1-0.2,1.8-0.2c0-0.1,0-0.1,0-0.2c-0.2,0.1-0.4,0.1-0.6,0l0.6-0.3&#10;&#9;&#9;c-0.2-0.1-0.8-0.3-1-0.2c-0.5,0.2-0.6,0.3-1.1,0.1c0.2-0.1,0.1-0.2,0.4-0.1c0-0.1,0-0.2,0-0.2c0.1,0.1,0.4,0.2,0.5,0.1&#10;&#9;&#9;s-0.4-0.2-0.1-0.5s1,0.6,0.9-0.2c-0.3,0-0.5,0-0.5-0.3c0.6,0,0.6,0.1,1,0.5c0.1,0.1,0.4,0.1,0.4,0.3c0,0.1-0.1,0.3-0.2,0.3&#10;&#9;&#9;c0,0-0.1,0-0.1,0c0.1,0.3,0.3,0.5,0.5,0.8c0.1-0.2,0.2-0.5,0.3-0.7c0.2-0.3,0.5,0,0.2-0.6c0.3-0.1,0.5,0.3,0.7,0.6&#10;&#9;&#9;c-0.1-0.3,0-0.6,0.3-0.6s0.5,0.3,0.7,0.6c0-0.2-0.1-0.4-0.1-0.7c0.6,0.3,0.8,0,1.4,0c-0.4-0.9,1.7-0.1,1.3,0.6&#10;&#9;&#9;c0.4-0.1,0.6,0.1,0.9,0.3s-0.1,0.5,0.2,0.7c-0.2,0.2-0.4,0.6-0.8,0.4c0,0.5-0.2,0.8-0.7,0.7c-0.3-0.1-0.9,0.5-1.1,0.6l-0.7,0.1&#10;&#9;&#9;C240.6,202.8,240.6,202.9,240.4,203.1L240.4,203.1z M293.4,280.1l-0.4-0.4c0.1,0.9,0,1.8-0.3,2.6c-0.5,1.5-0.9,3.1-1.4,4.7&#10;&#9;&#9;c-0.1,0.4-0.3,0.9-0.4,1.3c0,0-1,0.4-1.1,0.4s-1.1-0.3-1.2-0.5c-0.1-0.6-0.2-1.1-0.3-1.7c-0.2-0.5-0.2-1.1-0.1-1.6&#10;&#9;&#9;c0.2-0.5,0.8-1,0.8-1.6c-0.1-0.6-0.2-1.2-0.4-1.7c-0.1-0.3,0.2-1.3,0.4-1.3c0.5-0.1,1.1-0.3,1.5-0.6c0.5-0.3,0.7-0.7,1.1-1.1&#10;&#9;&#9;s0.7-0.5,0.7-1.3c0-1,0.7,0,0.9,0.3l0,0C293.6,278.4,293.6,279.3,293.4,280.1L293.4,280.1z M340.7,249.5c-0.3,0-0.3,0.4-0.4,0.6&#10;&#9;&#9;s-0.4,0.3-0.6,0.4s0.1,0.2-0.1,0.2c-0.2,0-0.3,0-0.4-0.1c-0.4-0.2-0.3-0.3-0.3-0.8c0.5-0.3,0.8-1,1.5-0.6c0-0.1,0-0.1,0-0.2&#10;&#9;&#9;C340.7,248.9,340.8,249.1,340.7,249.5L340.7,249.5z"/>
	<path class="st3_network-1-19" d="M296.5,228.7c-0.1-0.1-0.1-0.5-0.3-0.6c-0.6-0.4-0.7,0.6-0.8,1c-0.4-0.4-0.4-1.1-0.1-1.6&#10;&#9;&#9;c-0.3-0.1-0.9-0.2-1-0.5c-0.1-0.4-0.2-0.7-0.2-1.1c0,0-0.9-0.4-0.5-0.5s0.5,0.4,0.9,0.1c-0.3-0.2-0.5-0.3-0.3-0.6&#10;&#9;&#9;c0.1-0.2,0.4-0.3,0.6-0.2c0.5,0,1,0.1,1.5,0.2c-0.3,0.1-0.5,0.5-0.5,0.8c0.3-0.4,0.4-0.6,0.9-0.7c-0.2-0.8-0.4-0.3-1-0.5&#10;&#9;&#9;c0.1-0.3,0.3-0.7,0.1-1c-0.1-0.1-0.4-0.8-0.6-0.5s-0.6,0-0.9-0.1s-0.6,0.3-0.9,0.4c-0.6,0.1-0.6-0.2-0.8,0.6&#10;&#9;&#9;c-0.1,0.2-0.8,0.4-1,0.5c-0.4,0.2-0.4,0.2-0.5,0.7c0,0.2-0.4,0.5-0.6,0.7c0.4,0,0.8,0.4,0.8,0.8c0,0.5,0.1,1.1,0.4,1.6&#10;&#9;&#9;c0.2,0.4,0.6,0.5,0.8,0.9c0.2,0.5,0.5,0.8,1,1c-0.5,0.1-0.5,0.1-0.7,0.6c-0.1,0.3-0.2,0.6-0.3,0.9c-0.1,0.3-0.1,0.7-0.1,1&#10;&#9;&#9;c0,0.4,0.2,0.4,0.6,0.5s0.4,0.3,0.6,0.4l1,0.3c0.6,0,1.1,0,1.6-0.2c-0.1-0.5-0.1-1.1-0.1-1.6c0.2-0.8-0.2-0.4-0.5-1&#10;&#9;&#9;c0.1,0,0.2,0,0.3,0c0-0.1-0.1-0.4-0.2-0.5s-0.4,0-0.5-0.1c-0.2-0.3-0.1-0.6,0-0.8c0.5,0.1,1,0.1,1.5,0.1&#10;&#9;&#9;C297.1,229,296.8,228.9,296.5,228.7z"/>
	<path class="st4_network-1-19" d="M181,195.4c0.1-0.2,0.2-0.3,0.3-0.5C181.1,195,181,195.2,181,195.4z"/>
	<path class="st4_network-1-19" d="M185,189.3l0.8-1C185.4,188.5,185.2,188.9,185,189.3z"/>
	<path class="st4_network-1-19" d="M266,197c0.1,0.1,0.1,0.1,0.2,0.2c0,0.1-0.1,0.2-0.2,0.3c0.3-0.3,0.5-0.4,0.4-0.9&#10;&#9;&#9;C266.4,196.9,266.2,196.9,266,197z"/>
	<path class="st4_network-1-19" d="M249.9,212.9c0.1-0.1,0.1-0.2,0.2-0.4C249.9,212.5,249.7,212.6,249.9,212.9z"/>
	<path class="st4_network-1-19" d="M251.1,214.5c-0.2,0.1-0.3,0.2-0.3,0.4h0.2C251.1,214.8,251.2,214.7,251.1,214.5z"/>
	<path class="st4_network-1-19" d="M246.9,217.6c-0.1,0-0.1,0.2-0.2,0.2c0.7,0.6,1.7-0.5,2.4-0.7c0.2-0.1,0.4,0.1,0.5-0.1l0.2-0.8&#10;&#9;&#9;c0.1-0.4-0.1-0.7-0.3-1c0.5-0.3,0.6-0.4,0.7-1c-0.2,0.1-0.3-0.4-0.5-0.6s-0.6,0.1-0.7,0.1l0.1-0.2c-0.6-0.3-1.1,0.3-1.4,0.7&#10;&#9;&#9;l0.5,0.2c-0.2,0.2-0.3,0.4-0.6,0.3s-0.4-0.2-0.6-0.1s-0.2,0.2-0.1,0.6c0.1,0.2-0.2,0.3-0.3,0.4c0.3,0.2,0.6,0.2,0.9,0.3&#10;&#9;&#9;c-0.3,0.2-0.5,0.5-0.7,0.8c0.3-0.1,0.6-0.2,0.9-0.1c-0.2,0.1-0.6,0-0.8,0.2c-0.1,0.2-0.3,0.3-0.5,0.3c0.1,0,0.2,0.1,0.4,0.1&#10;&#9;&#9;c-0.1,0.1-0.3,0.1-0.4,0.2L246.9,217.6z"/>
	<path class="st4_network-1-19" d="M250.2,211c0,0-0.1,0-0.1,0.1l0.2,0.1c-0.1,0.1-0.2,0.3-0.3,0.5c0,0.1-0.3,0.2-0.4,0.3c0.3,0.1,0.3,0.2,0,0.3&#10;&#9;&#9;c0.2,0.2,0.7,0,0.3-0.3c0.3,0.2,0.4-0.1,0.6-0.3l0.1,0.1c-0.3,0.2-0.4,0.5-0.4,0.9s0.1,0.2,0,0.5s-0.2,0.2-0.1,0.3s0.2-0.3,0.2-0.5&#10;&#9;&#9;s0-0.6,0.4-0.7c-0.4,0.3-0.1,0.6,0.2,0.1c0,0.1,0.1,0.2,0.1,0.3c-0.2,0-0.2,0.1-0.1,0.3s0.1,0.2,0,0.6s-0.4,0.4-0.1,0.7&#10;&#9;&#9;c0-0.1,0-0.2,0-0.3c0.2,0.1,0.5,0.3,0.4,0c0.3,0.2,0.7-0.2,1.1-0.1c-0.7,0.2-0.3,1.3,0.1,0.9c-0.2,0.3-0.2,0.7,0.1,1h-0.1&#10;&#9;&#9;c-0.1-0.2-0.1-0.1-0.2-0.1c0,0.1,0,0.1,0,0.2c-0.3,0-0.5-0.2-0.7,0c0-0.2-0.2-0.3-0.4-0.2c0,0,0,0-0.1,0c0.3,0.2,0.1,0.5-0.1,0.7&#10;&#9;&#9;l0.5-0.1c-0.1,0.4,0.1,0.4-0.1,0.8c-0.1,0.2-0.6,0.3-0.9,0.4c0,0.1,0,0.1,0,0.2c0.2,0.4,0.5-0.1,0.9,0.1l-0.1,0.1&#10;&#9;&#9;c0.1,0,0.5,0.2,0.6,0.2l0.8-0.3c-0.2,0.1-0.3,0.3-0.4,0.6c-0.5-0.1-1-0.3-1.2,0.3c-0.1,0.3-0.6,0.6-0.9,0.9&#10;&#9;&#9;c0.4,0.3,0.9-0.6,1.5-0.1c0.3-0.9,0.5-0.2,1.1-0.5c0.2-0.1,0.6-0.4,0.8-0.4s0.3,0.3,0.6,0.2c0.5-0.1,0.9-0.2,1.4-0.3&#10;&#9;&#9;c0.7-0.3-0.4-0.5-0.6-0.5c0.5-0.4,0.9-0.6,0.9-1.3s-1.1-0.2-1.2-0.4c0.5-0.3-0.2-0.9-0.6-0.9c0.2-0.1,0.4,0,0.6,0.2&#10;&#9;&#9;c-0.1-0.9-0.9-1-1.1-1.7c-0.3-1-0.7-1-1.6-1.2c0.1-0.2,0.3-0.3,0.6-0.2c-0.3-0.6,1-1.2,0.6-1.7c-0.2-0.3-1.6-0.1-1.8,0.2l-0.1-0.1&#10;&#9;&#9;c0.1-0.1,0.2-0.2,0.3-0.3c-0.1-0.1-0.2-0.1-0.4-0.1h0.3c0.1-0.3,0.7-0.4,0.8-0.9c-0.4-0.1-0.8,0-1.1,0.2c-0.2-0.1,0-0.1-0.2,0&#10;&#9;&#9;c-0.1-0.4-0.4-0.1-0.2,0.2h-0.2l-0.1,0.2c0.1,0.1,0.2,0.2,0.3,0.3c-0.2-0.1-0.4-0.1-0.5,0c0.1,0.1,0.1,0.3,0.1,0.4l-0.2-0.1&#10;&#9;&#9;C249.9,210.9,250,210.9,250.2,211z"/>
	<path class="st4_network-1-19" d="M197.6,177.5c-0.1-0.2-0.1-0.4-0.2-0.5c0.4,0.1,0.8,0.4,1.1,0.2c0.4-0.2,0.8-0.5,1.1-0.8h-1.1l1.7-0.3&#10;&#9;&#9;c0.5-0.2,1-0.5,1.5-0.9c0.6-0.4,2.5-0.8,2.5-1.5l-4.3,0.9l2.6-0.8l-1.5-0.3l3.4-0.2c0.9-0.3,1.8-0.7,2.5-1.3&#10;&#9;&#9;c-1-0.3-1.9-0.6-2.9-0.8c-0.4-0.1-0.9-0.1-1.3,0c-2.8,2.1-5.4,4.4-7.9,6.9C195.7,177.8,196.7,177.7,197.6,177.5z"/>
	<path class="st4_network-1-19" d="M249.6,211.3l-0.1,0.1l0.1,0.1C249.6,211.4,249.6,211.4,249.6,211.3z"/>
	<path class="st4_network-1-19" d="M249,210.3l0.1,0.2c0.2-0.2,0.3-0.3,0.5-0.3l-0.1-0.1c0.3,0,0.3-0.5,0.1-0.4s-0.9,0.3-0.5,0.7L249,210.3z"/>
	<path class="st4_network-1-19" d="M248.8,210.7c0,0.1-0.1,0.4,0.1,0.6c0-0.2,0-0.5,0.1-0.7C248.9,210.6,248.8,210.6,248.8,210.7&#10;&#9;&#9;C248.7,210.7,248.7,210.7,248.8,210.7z"/>
	<path class="st4_network-1-19" d="M249.5,210.6c0,0.1,0,0.1,0,0.2l-0.2-0.2c0,0.1-0.1,0.1-0.1,0.2c0.2,0.2,0.6,0.8,0.9,0.3&#10;&#9;&#9;c-0.3,0-0.4-0.1-0.4-0.3C249.7,210.6,249.7,210.6,249.5,210.6z"/>
	<path class="st4_network-1-19" d="M249.6,213.1c0.2-0.1,0.2-0.2,0.1-0.4c-0.1,0-0.2,0.1-0.3,0.2C249.7,212.9,249.5,213,249.6,213.1z"/>
	<path class="st4_network-1-19" d="M266.8,195.9c0-0.2,0.1-0.4,0.1-0.6c-0.2,0-0.4,0.2-0.3,0.5h-0.2c0,0.3,0,0.2-0.2,0.4c0.3,0.1,0.4,0.2,0.6-0.1&#10;&#9;&#9;c0.1-0.2,0.3-0.3,0.5-0.2c0.1-0.2,0-0.6-0.2-0.5S267.1,195.7,266.8,195.9z"/>
	<path class="st4_network-1-19" d="M268.6,194.5c-0.2-0.3-0.3-0.2-0.6-0.1s-0.4,0.1-0.4,0.5C267.6,195.5,268.4,194.7,268.6,194.5z"/>
	<path class="st4_network-1-19" d="M268.4,194.8l-0.6,0.5c-0.3,0-0.4,0.2-0.3,0.4L268.4,194.8z"/>
	<path class="st4_network-1-19" d="M269.1,193.9c-0.2,0.2-0.3,0.3-0.5,0.5h0.5C269.2,194.1,269.4,194,269.1,193.9z"/>
	<path class="st4_network-1-19" d="M267,195c0-0.1,0.1-0.1,0.1-0.2c-0.3,0.1-0.6,0.1-0.5,0.5C266.7,195.2,266.9,195.1,267,195z"/>
	<path class="st4_network-1-19" d="M252,209.1c0.2,0.1,0.2,0,0.4-0.1C252.3,209,252.2,208.9,252,209.1l0.2-0.2c-0.3-0.2-0.3,0.1-0.3,0.2l0.1,0.2&#10;&#9;&#9;C252,209.2,252,209.1,252,209.1z"/>
	<path class="st4_network-1-19" d="M265.5,196.3c-0.1-0.1-0.3-0.1-0.4,0s0,0.1,0,0.2C265.3,196.6,265.4,196.5,265.5,196.3z"/>
	<path class="st4_network-1-19" d="M265.6,196.4l0.6-0.4C265.9,196,265.6,195.9,265.6,196.4z"/>
	<path class="st4_network-1-19" d="M266.2,195.2c-0.2,0.2-0.3,0.4-0.5,0.6l0.5,0.1C266.5,195.6,266.5,195.4,266.2,195.2z"/>
	<path class="st4_network-1-19" d="M202.4,250.7c0.2,0.4,1,0.1,1.1-0.2l-0.1-0.1C203,250.4,202.1,250.1,202.4,250.7z"/>
	<path class="st4_network-1-19" d="M269.8,193.7c-0.2-0.1-0.5-0.2-0.6,0.1c0.1,0,0.2,0.1,0.3,0.1C269.6,194,269.7,193.9,269.8,193.7z"/>
	<path class="st4_network-1-19" d="M237.5,192.4c-0.1-0.4-0.5-1.2-0.3-1.6c0.2-1,0.6-1.9,1.1-2.8l1.3-1.4c0.1-0.1-0.2-1.2-0.2-1.4&#10;&#9;&#9;c-0.1-0.4,0-1.1-0.4-1.3l-1.3-0.9l1.9-1.8c-0.7-0.4-1.1-0.6-1.4-1.4c-0.2-0.6,0.5-1.4,0.8-1.9c0.4-0.5,0.9-0.9,1.5-1.1&#10;&#9;&#9;c0.5-0.4,1-0.8,1.5-1.3l-0.5-0.4c0.6-0.1,1.2-0.2,1.8-0.4l2-1.1c-0.7-0.4-1.5-0.7-2.3-0.9c-0.5-0.1-1.7-0.2-2,0.2&#10;&#9;&#9;c-0.2,0.3-0.4,0.7-0.8,0.7l-1.4-0.2c-0.5-0.1-1.6,0.6-2.1,0.8c0.1-0.1,1.1-1.7,0.4-1.7s-1.2,0.1-1.7-0.3l2.4-0.9&#10;&#9;&#9;c-1.5-0.8-3.1-1.3-4.7-1.6c-1.8-0.4-3.7-0.5-5.6-0.4l-2,0.2c-0.3,0-0.6,0-0.9,0.1c-0.3,0.2-0.4,0.9-0.8,0.9l-1.6-0.3&#10;&#9;&#9;c-0.7-0.1-1.4-0.4-2.1-0.2l-2.8,1.2c0.9,0.4,1.7,1.1,2.4,1.9c-1.5-0.6-3-1-4.6-1.4c-0.6,0-1.1,0.1-1.7,0.2l-3.3,0.4&#10;&#9;&#9;c-0.6,0-1.1,0.1-1.7,0.2l-1.9,1l-4.6,2.4c0.6,0.6,1.3,0.5,2.1,0.6c-0.2,0.4-0.4,0.9-0.5,1.3s-0.3,0.4-0.8,0.4&#10;&#9;&#9;c-0.7,0.1-1.4,0.2-2,0.4l-2.7,0.8c-0.2,0.1-0.2,0.6-0.3,0.8s0.4,0.6,0.5,0.7c0.3,0.4,0.6,1.1,1,1.3l1.6,0.9c0.3,0.2,1,0.8,1.3,0.8&#10;&#9;&#9;l1.8-0.2c1-0.1,2.1,0,3.1,0.3l1.6,0.3c0.3,0,0.8,1.1,1,1.3c0.7,1,1.2,2.1,1.6,3.2c0.3,0.6,0.4,0.7,0.1,1.3s-0.5,0.9-0.1,1.4&#10;&#9;&#9;s1,0.7,0.8,1.4s-0.4,1,0,1.5s0.5,0.6,1.3,0.4l1.6-0.5c-0.1,0.4-0.1,0.8-0.2,1.2c0,0.1-0.5,0.3-0.6,0.3c-0.4,0.2-0.8,0.3-1.1,0.5&#10;&#9;&#9;c-0.1,0-0.1,0.6-0.1,0.7c-0.2,0.6-0.2,1.3-0.2,2l0.8,2.3c0.5,1.2,1.2,2.3,1.9,3.4l1.2,2c0.2,0.3,0.8,0.4,1.1,0.5l2,0.7&#10;&#9;&#9;c0.2,0.1,1.1,0.1,1.1,0l1.2-3.9c0.3-1,0.7-2,1.1-3.1c0.2-0.6,0.2-0.6,0.7-0.7l2-0.6c0.5-0.1,1-0.2,1.4-0.5c0.4-0.4,0.8-0.9,1.1-1.4&#10;&#9;&#9;c0.3-0.4,0.4-0.6,0.8-0.7l1.9-0.5c1-0.1,1.9-0.4,2.8-0.8l3.1-1.9C237.7,193.1,237.7,193.1,237.5,192.4z"/>
	<path class="st4_network-1-19" d="M212.9,220.8c0.1-0.4,0-0.4-0.3-0.8s-1.1,0.1-1.4,0.2c0-0.2,0-0.5-0.1-0.6s-0.4-0.1-0.4-0.3&#10;&#9;&#9;c0-0.5,0.1-0.6,0.5-0.9c0.1-0.2,0.2-0.4,0.3-0.7c-0.6-0.3-1.3,0.6-1.6,1.2c-0.3,0.8-0.8,1.5-1.4,2.1c-0.1,0.3-0.2,0.7-0.1,1&#10;&#9;&#9;c0.2,0.3,0.7,0.2,1,0.2c0.7-0.1,1.5,0,2.2,0.3c-0.2,0.1-0.4,0.3-0.4,0.5c0.6-0.1,0.8-0.6,1.5-0.6c-0.1,0.5-0.2,0.5,0.3,0.7&#10;&#9;&#9;s0.4,0.1,0.6-0.2s0-1.2-0.1-1.6S212.8,221,212.9,220.8z"/>
	<path class="st4_network-1-19" d="M201,249.9c-0.4-0.1-0.4-0.1-0.6-0.5s-0.2-0.1-0.4-0.2s-0.5-0.3-0.7-0.2c-0.2,0.1-0.3,0.1-0.5,0.1&#10;&#9;&#9;c-0.6,0-0.7-0.2-1.3,0.1c0.6,0.3,0.5,0.5,0.9,1c-0.3,0.3-1.8-0.3-1.6,0.2c0.5,0.4,0.7,0.1,1.3,0.2c0.2,0,0.5-0.1,0.6,0&#10;&#9;&#9;s0.1,0.6,0.4,0.5c0.1,0,0.1-0.6,0.3-0.6s0.3,0.1,0.4,0.1c0.4,0,0.7-0.1,1.2-0.1s0.3,0.3,0.5-0.1C201.5,250.1,201.1,249.9,201,249.9&#10;&#9;&#9;z"/>
	<path class="st4_network-1-19" d="M293.3,277.6c-0.2-0.3-0.9-1.3-0.9-0.3c0,0.8-0.2,0.8-0.7,1.3s-0.5,0.9-1.1,1.1c-0.5,0.3-1,0.5-1.5,0.6&#10;&#9;&#9;c-0.2,0-0.5,1-0.4,1.3c0.2,0.6,0.3,1.1,0.4,1.7c-0.1,0.5-0.6,1-0.8,1.6c-0.1,0.5-0.1,1.1,0.1,1.6c0.1,0.5,0.2,1.1,0.3,1.7&#10;&#9;&#9;c0,0.2,1,0.6,1.2,0.5s1.1-0.4,1.1-0.4c0.1-0.4,0.2-0.9,0.4-1.3c0.5-1.6,0.9-3.1,1.4-4.7c0.3-0.8,0.4-1.8,0.3-2.6l0.4,0.4&#10;&#9;&#9;C293.7,279.3,293.6,278.4,293.3,277.6L293.3,277.6z"/>
	<path class="st4_network-1-19" d="M340.4,249.1c-0.7-0.4-1.1,0.2-1.5,0.6c0,0.5-0.1,0.6,0.3,0.8c0.1,0.1,0.3,0.1,0.4,0.1c0.2,0,0-0.1,0.1-0.2&#10;&#9;&#9;s0.5-0.1,0.6-0.4s0.1-0.6,0.4-0.6c0-0.3,0-0.5-0.3-0.5C340.4,249,340.4,249,340.4,249.1z"/>
	<path class="st4_network-1-19" d="M322.5,185.5L322.5,185.5c-0.6,0.4-0.6,0.4-0.6,1.1c0,0.4,0.1,0.8-0.2,0.8l-1.8,0.2l-3.1,0.3&#10;&#9;&#9;c0.1,0.4,0.1,1.7,0.4,1.8s0.9,0,1.1,0.2c0.2,0.3,0.3,0.6,0.4,1c-0.3,0-0.6,0.2-0.9,0c-0.2-0.2-0.5-0.4-0.8-0.5&#10;&#9;&#9;c-0.7-0.4-1.5-0.5-2.2-0.3c-0.3,0.1-1.6,0.7-0.9,1c0.7,0.3,1.3,0.6,2,0.8c-0.5,0-2.4,0-2.6-0.5c-0.4-0.7-0.4-0.7-0.1-1.4&#10;&#9;&#9;c0.1-0.3-0.4-1-0.6-0.9c0.1,0.2,0.4,1.1,0,1.2s-0.9,0.3-1.2,0.7s0.4,1,0.6,1.3s-0.2,0.9-0.4,1.3s0.1,0.9,0.2,1.2&#10;&#9;&#9;c0,0.1,1.2-0.1,1.4-0.2c0.4-0.1,0.9,0,1.2,0.3c0.4,0.3,0.3,0.7,0.4,1.2c-0.3-0.4-0.6-0.7-0.9-1.1c-0.2-0.2-0.9,0.1-1.1,0.2&#10;&#9;&#9;c-1.2,0.4,0.3,1.3-0.3,1.9c-0.6,0.7-1.2,1.3-2,1.7c-0.8,0.2-1.7-0.1-2.3-0.7c0.3,0,1,0.3,1.2,0.1l1.5-0.9c0.3-0.2,0.5-1,0.6-1.3&#10;&#9;&#9;c0.2-0.6-0.3-0.7-0.8-1s0.4-2.5,0.2-3c-0.1-0.3-0.6-1-0.5-1.2c0.2-0.6,0.4-1.1,0.6-1.7c-0.5-0.1-2.8-0.6-3-0.1s-0.3,1.4-0.6,1.6&#10;&#9;&#9;l-1.4,1.3c0.2,0.1,1,0.4,0.9,0.7s-0.7,1-0.3,1.3l1.5,1.1c0.2,0.1,0,1-0.1,1.2c-0.4-0.4-0.9-0.7-1.4-1l-2-0.8&#10;&#9;&#9;c-1.1-0.5-2.2-0.5-3.3-0.1c0.4,0.6,0.7,0.6,0.3,1.2s-0.4,0.6-1.1,0.4l0.3-0.5c-0.4-0.2-0.9-0.1-1.4,0.1c-0.4,0.2-0.9,0.2-1.4,0.1&#10;&#9;&#9;c-0.4,0-0.6,0.8-1,0.6c-0.6-0.2-0.6-0.1-0.9-0.9l-2.2,1l-1.5,0.7c-0.2,0.1-0.6,0.2-0.8,0.4c-0.3,0.4,0.1,0.7-0.4,0.8&#10;&#9;&#9;s-0.8,0.3-1.1-0.1s-0.7-0.6-0.5-1s0.9-0.2,1.2-0.2c-0.2-0.3-0.5-0.9-0.9-1l-1.6-0.2c0.1,0.1,0.6,0.6,0.5,0.7&#10;&#9;&#9;c-0.1,0.4-0.2,0.8-0.3,1.2c0-0.1,0.5,0.6,0.5,0.7c0.1,0.2-0.1,0.7-0.2,1l-1.3-0.4c-0.3-0.1-0.7,0.4-0.9,0.5l-1.3,0.8&#10;&#9;&#9;c0.1,0.4,0.3,0.9,0.4,1.3l-1.7-0.6c-0.7-0.2-0.7-0.4-1.3,0.2c0.2,0.3,0.4,0.6,0.8,0.6s0.5,0.6,0.2,0.7c-0.6,0.2-1.4-0.5-2-0.7&#10;&#9;&#9;s-0.4-1.4-0.4-2s-1.1-1.3-1.5-1.7c1.3,0.6,2.6,1.1,4,1.4c0.6,0.2,1.2,0.1,1.8-0.1c0.4-0.1,0.4-0.3,0.6-0.6c0.4-0.5,0.4-0.5,0.2-1.1&#10;&#9;&#9;c-0.3-0.6-0.8-1-1.5-1.1c-0.7-0.2-1.4-0.6-2-0.9c-0.6-0.4-1.2-0.6-1.9-0.6c-0.4,0-1.8,0.3-1.7-0.5c0.3,0.1,0.6,0.3,0.8-0.1&#10;&#9;&#9;c-0.2-0.1-0.7-0.5-0.8-0.3c-0.3,0.4-0.7,0.2-1.1,0.1c-0.2,0-0.7,0.1-0.7,0.1c-0.2-0.4-0.5-0.3-0.7-0.6c0.4,0.1,0.8,0.1,1.2,0.1&#10;&#9;&#9;c0.2,0,0.9-0.4,0.5-0.6l-1.5-0.6c-0.5-0.2-0.1,0.9-0.7,0.4l0.4-0.7c-0.2,0-0.7-0.1-0.8,0l-0.7,0.9c0-0.2-0.1-0.5-0.1-0.7&#10;&#9;&#9;c-0.3,0.4-0.7,1.2-1.2,1.3c0.2-0.6,0.5-1.2,1-1.6c-0.5-0.1-0.9,0-1.4,0.2c-0.4,0.2-0.6,0.9-1,1c-1.1,0.3-2.2,0.7-3.2,1.2&#10;&#9;&#9;c-0.9,0.5-1.7,1.3-2.3,2.1c-0.8,0.8-1.5,1.6-2.1,2.5c-0.5,1-1.1,1.9-1.8,2.7c-0.4,0.4-0.8,0.7-1.1,1.1c-0.4,0.4-0.9,0.7-1.4,0.9&#10;&#9;&#9;c-0.4,0.2-0.8,0.4-1.2,0.7c-0.7,0.6-0.7,0.6-0.8,1.5c0,1.1,0.4,2.1,0.4,3.2c0,0.9,1.5,1,2,0.7c0.4-0.2,0.6-0.6,1-0.9&#10;&#9;&#9;c0.5-0.4,0.6-0.4,0.8-1.1c0.1,0.2,0.1,0.6,0.4,0.7s0,0.5,0.1,0.7c0.1,0.3,0.2,0.5,0.4,0.7c0.1,0.2,0,0.5,0.1,0.6&#10;&#9;&#9;c0.3,0.4,1,0.9,0.8,1.4c0,0.3,0,0.6,0.1,0.8c0.1,0.4,0.1,0.4,0.5,0.3c0.3,0,0.4,0.1,0.5-0.2s0-0.5,0.3-0.6c0.6-0.1,1.1-0.1,1.4-0.8&#10;&#9;&#9;c0.2-0.6,0.2-1.2,0.3-1.8c0.1-0.7,0.5-0.8,1-1.2c0.3-0.2,0.9-0.6,0.8-1c-0.2-0.5-1-0.5-1.3-1c-0.6-1.1,0.4-2.3,0.9-3&#10;&#9;&#9;c0.2-0.3,2.5-1.5,2.3-2s-0.1-0.9,0.3-1.3c0.6-0.7,0.7-0.6,1.5-0.6c0.6,0,1.1,0.4,1.3,0.9c0.1,0.5-0.2,0.2-0.5,0.4s-0.6,0.7-0.8,0.9&#10;&#9;&#9;c-0.4,0.5-0.9,0.8-1.3,1.2c-0.2,0.2-0.7,0.6-0.7,0.8c0,0.4,0.1,0.8,0.3,1.1c0.1,0.3,0.1,0.6,0,0.9c-0.1,0.6-0.1,0.5,0.4,0.7&#10;&#9;&#9;c0.3,0.1,0.6,0.3,0.7,0.6c0.1,0.1,0.6-0.1,0.7-0.1c1.3-0.2,2.5-0.6,3.8-0.8c-0.1,0.1-0.1,0.2-0.1,0.3c0.4,0.1,1.2,0.3,1.3,0.7&#10;&#9;&#9;c-0.2,0-0.7-0.2-0.8-0.1s-0.6,0.1-0.9,0.2s0.2,0.4-0.5,0.4l-1.3-0.2c-0.6,0-1.3,0.2-1.8,0.5c-0.1,0,0.1,0.7,0.2,0.8&#10;&#9;&#9;c0.1,0.1,0.2,0.3,0.3,0.4c0.1,0.1,0.2-0.2,0.3-0.1s-0.1,0.8-0.1,1s-0.2,0.7-0.5,0.7c-0.6-0.1-0.8-1.3-1.5-0.7&#10;&#9;&#9;c-0.3,0.2-0.1,0.6-0.3,0.8c-0.2,0.2-0.3,0.5-0.3,0.8c0,0.4,0.5,2-0.3,1.6c0.1-0.1,0.3-0.3,0.3-0.5c-0.1,0.2-0.4,0.3-0.5,0.4&#10;&#9;&#9;s-0.2,0-0.3,0.1s-0.1,0.4-0.2,0.5c-0.3,0.3-1,0.2-1-0.3c0.1,0.1,0.3,0.1,0.3,0.1c-0.7-0.4-1.5-0.2-2,0.4c-0.2,0.3-1.4,0.3-1.8,0.5&#10;&#9;&#9;h0.5c0,0.1,0,0.2,0,0.3c-0.3-0.1-0.5-0.2-0.6-0.5c-0.2-0.2-0.4-0.4-0.7-0.4c-0.5,0.1-0.9,0.8-1.5,0.5c0.1-0.2,0.1-0.3,0.2-0.5&#10;&#9;&#9;c-0.6,0.3-1.1-0.2-1.2-0.9c-0.1-0.8,0.6-1,1-1.6c-0.7-0.2-0.5-1.1-0.2-1.6c-0.4,0.2-0.8,0.7-1.3,0.7s-0.7,0.7-0.7,1.2&#10;&#9;&#9;c0,0.4,0,0.5,0.2,0.7s0.1,0.4,0.2,0.8s0.4,0.3,0.1,0.6s0.2,0.5,0.4,0.6c-0.3,0-0.6-0.1-0.5,0.3c-0.2-0.1-0.4-0.1-0.6-0.1l-0.4,0.1&#10;&#9;&#9;c-0.1,0,0,0.3-0.1,0.3c-0.5,0.2-0.9-0.1-1.3,0.4c-0.1,0.1-0.5,0.1-0.5,0.3c0,0.3-0.2,0.7-0.4,0.9c-0.1,0.1,0,0.3-0.1,0.3&#10;&#9;&#9;s-0.4,0.1-0.4,0.1s0.4,0.2,0.5,0.3c-0.3-0.1-0.7,0-1,0.1c-0.2,0.1-0.9,0.3-1,0.4c-0.2,0.4,0.3,0.7-0.2,0.9c-0.4,0.1-0.7,0.3-1,0.6&#10;&#9;&#9;c0.1,0,0.2,0.1,0.3,0.1c-0.3,0.2-0.7,0.2-1.1,0.1c-0.2,0-0.2,0-0.3-0.3s-0.4-0.1-0.5-0.1c0.1,0.3,0.3,0.6,0.3,0.9&#10;&#9;&#9;c0,0.2-0.7,0.3-0.9,0.4c-0.4,0.1,0-0.7-0.6-0.2c-0.3,0.1-0.7,0.2-1,0.2c0,0.2,0.1,0.4,0.3,0.5c-0.1,0-0.2,0.1-0.2,0.1&#10;&#9;&#9;c0.1,0.2,0.3,0.3,0.5,0.2c0.3,0,0.4,0.1,0.6,0.3c0.1,0,0.4,0.1,0.6,0.1s0,0.2,0.3,0.2c-0.1,0.2,0,0.8,0.3,0.9&#10;&#9;&#9;c0.6,0.2,0.5,0.4,0.5,1s0.1,2.2-0.7,2.4c-0.4,0-0.8,0-1.1-0.1c-0.4-0.1-0.8,0.1-1.2-0.1c-0.5-0.2-0.9-0.2-1.4,0&#10;&#9;&#9;c-0.4,0.1-0.6-0.5-1.1,0c0,0,0.1,0.1,0.1,0.2c-0.2,0-0.7,0-0.8,0.3s0.1,0.7,0.4,0.5c-0.1,0.5-0.1,1,0,1.4c0.2,0.5-0.2,1.3-0.3,1.8&#10;&#9;&#9;s-0.4,0.6,0,1.1c0.1,0.1,0.2-0.1,0.2,0.1s0,0.3,0,0.5c0,0.3,0,0.6-0.1,0.9c0.4-0.3,0.7,0.1,1.1-0.1s0.7,0.4,1.1,0.2&#10;&#9;&#9;c-0.4,0.3,0.2,1,0.5,0.9s0.6-0.7,1.1-0.6c0.5,0,1,0,1.5,0c0.2,0,0.4-0.5,0.4-0.6s0.5-0.2,0.7-0.2c-0.1-0.3,0.3-0.7,0.5-1&#10;&#9;&#9;c0.3-0.4-0.3-0.6-0.2-0.9c0.5-0.8,0.7-1.5,1.5-1.9c0.3-0.1,0.9-0.3,1.1-0.6s-0.1-1,0-1.1s0.6-0.7,0.8-0.6l1.5,0.5&#10;&#9;&#9;c0.7-0.3,1.3-0.7,1.8-1.2c0.2-0.3,0.6-0.1,0.9,0c0.5,0.3,0.5,0.3,0.7,1s0.9,1,1.4,1.5c0.3,0.3,0.5,0.7,0.9,0.6&#10;&#9;&#9;c0.2,0,0.8,0.4,0.7,0.6c0.2-0.1,0.5,0,0.5,0.3s0.3,0.2,0.5,0.3s0.6,1.2,0.4,1.3s0,0.3-0.3,0.5c-0.3,0.1-0.7,0.2-1,0.2&#10;&#9;&#9;c-0.5,0-0.9,0-1.4-0.1c-0.7,0.8,1.1,0.8,1.3,1.3c0.1,0.3,0.9,0.2,0.7-0.2c-0.2-0.4-0.1-0.9,0.3-1.1c0,0.6,0.8-0.1,0.7-0.4&#10;&#9;&#9;s0.9-0.4,0.4-0.8c-0.2-0.2-0.4-0.1-0.3-0.4c0-0.2,0.2-0.5,0.4-0.6c0.2-0.2,0.8,0.6,1,0.7c0.5-0.7-1.5-1.5-1.9-1.8&#10;&#9;&#9;c0.4-0.4,0-0.3-0.3-0.4s-0.6-0.3-0.9-0.6s-0.2-0.7-0.5-1c-0.3-0.3-0.6-0.5-0.9-0.7c-0.3-0.2,0-0.7-0.1-0.9c-0.3-0.5,0-0.6,0.5-0.7&#10;&#9;&#9;s0.4-0.2,0.5,0.2s0.3,0.8,0.5,0.1c0.4,0.3,0.6,0.7,0.7,1.1c0.1,0.2,0.5,0.8,0.7,0.8c0.8,0.2,1.4,0.7,2,1.2c0.5,0.4,0.6,0.4,0.6,1&#10;&#9;&#9;s-0.2,1,0.2,1.4c0.3,0.2,0.4,0.8,0.6,1.1c0.4,0.6,0.4,0.6,1,0.6c-0.7,0.5-0.5,0.6-0.2,1.5c0.2-0.2,0.4-0.3,0.5,0s0.4,0.3,0.7,0.3&#10;&#9;&#9;c-0.1-0.4-0.3-0.5,0-0.7s0.2-0.4-0.1-0.5c0.3-0.4,0.5-0.1,0.8,0.1c0.1-0.7-0.4-0.8-0.9-1.2c0.4-0.4,0.4-0.3,0.1-0.8&#10;&#9;&#9;c-0.2-0.3-0.5-0.6-0.2-1c0.3,0.2,0.5,0.4,0.8,0.2c0.1-0.1-0.1-0.4,0-0.4s0.4-0.2,0.6-0.2c0.3,0,0.7,0.1,1,0.1&#10;&#9;&#9;c0.3,0.1,0.5,0.1,0.7,0.2c-0.3,0.2-0.5,0.2-0.5,0.7l1.2-1.1c0.2-0.2,1,0.2,1.1-0.1c0-0.1-0.7-0.5-0.9-0.8c-0.2-0.5-0.4-1,0.1-1.4&#10;&#9;&#9;s0.5-0.8,0.6-1.4c0-0.2,0.5-0.2,0.6-0.3c0.1-0.3,0.1-0.5,0.1-0.8c0.1-0.4,0.7-0.9,0.9-1.1s1.1,0.2,1.4,0c-0.2,0.4-0.6,0.2-0.9,0.2&#10;&#9;&#9;c0.1,0.1,0.4,0.4,0.6,0.4c0.3-0.1,0.5-0.1,0.8,0c0.8,0.3-0.4,0.7-0.6,0.8c0.6,0.3,0.9,0.2,0.7,0.9c0.4,0.3,1.2-0.3,1.6-0.6&#10;&#9;&#9;s0.8,0.3,1.1-0.4c-0.5,0-0.9,0.2-1.2-0.2s-0.5-1,0.1-0.9c0,0.1-0.1,0.1-0.1,0.2c0.3-0.3,0.8-0.6,1.2-0.6v0.2&#10;&#9;&#9;c0.4-0.4,0.9-0.6,1.4-0.6c0.1,0,0.6-0.2,0.5,0.2s-0.7-0.1-0.5,0.4h-0.6c0.1,0.3,0.4,0.4,0.6,0.6c-0.5,0-0.9,0.2-0.7,0.8l-0.6-0.1&#10;&#9;&#9;c-0.1,0.1-0.1,0.2-0.2,0.2c0.2,0.1,0.4,0.3,0.6,0.5c0.2,0.1,0.4,0.2,0.5,0.3c0.5,0.1,0.9,0.6,1.3,0.9s0.8,0.4,1.2,0.8&#10;&#9;&#9;s0.5,1,0.1,1.2c-0.4,0.3-0.9,0.5-1.4,0.4c-0.5-0.1-0.8,0.2-1.3,0c-0.3-0.1-1.2-0.3-1.3-0.4c-0.3-0.5-0.2,0-0.5-0.2&#10;&#9;&#9;s-0.4-0.3-0.3-0.5c-0.5,0.1-0.9,0.1-1.4,0c-0.4,0.1-0.8,0.2-1.1,0.5c-0.5,0.3-0.5,0.5-1.1,0.4c-0.3,0-1-0.2-1.2,0.1l0.6,0.3&#10;&#9;&#9;c-0.5,0.3-1.1,0.4-1.7,0.4c-0.4,0-1.3,0.2-1.2,0.9l0.6-0.1c-0.6,0.7,0.4,2.4,0.9,2.7c0.3,0.2,0.9,0.7,1.3,0.6s0.4-0.1,0.5-0.5&#10;&#9;&#9;s0.4-0.2,0.7-0.1c0.5,0.1,0.7,0.6,1.2,0.6c0.3,0,0.5,0,0.8,0c0.2-0.1,0.4-0.6,0.6-0.6s0.4,0.3,0.5,0.2s0.4-0.4,0.5-0.2&#10;&#9;&#9;s-0.5,1-0.2,1.4c0.4,0.6-0.7,2.6-0.9,3.2c-0.4,0.8-1.4,1.2-2.3,0.8c0,0-0.1,0-0.1,0c-0.7-0.3-0.7-0.2-1.4,0.1&#10;&#9;&#9;c-0.4,0.3-0.9,0.3-1.3,0.1l-1.7-0.5c-0.1,0-0.4,0.3-0.5,0.1s-0.2-0.4-0.5-0.5l-1.1-0.2c-0.2,0-0.1-0.4-0.2-0.4&#10;&#9;&#9;c-0.7-0.2-1.4-0.1-2,0.1c-0.2,0.1-0.3,0.6-0.4,0.7s0.2,0.5,0.1,0.7c-0.5,0.9-0.8,0.8-1.5,0.3c-0.5-0.4-1-0.3-1.5-0.5&#10;&#9;&#9;s-0.4-0.9-1.1-1.1l-2.4-0.6c-0.5-0.1-0.9-0.7-1.3-1.1c0.2-0.2,0.9-0.8,0.8-1.1c-0.4-0.7-0.3-0.8,0-1.5c-0.5-0.2-0.9-0.6-1.3-0.3&#10;&#9;&#9;c-0.5,0.2-1.1,0.3-1.6,0.2c-0.2,0-0.4,0-0.7,0c-0.2,0-0.5,0.3-0.7,0.3c-0.3,0-0.5-0.1-0.7-0.2c-0.3,0-0.6,0-0.9,0.1&#10;&#9;&#9;c-1,0.2-2,0.5-2.9,0.9c-0.5,0.2-0.9,0.6-1.4,0.8c-0.1,0.1-0.5-0.3-0.6-0.3s-0.7,0.1-0.9,0.2c-0.5,0.1-0.9-0.7-1-0.6&#10;&#9;&#9;c-0.6,0.2-0.7,1-0.9,1.6c-0.3,0.8-2,1-2.1,1.8l-0.3,2.2c-0.1,0.6-0.3,0.6-0.8,0.9c-0.9,0.4-1.6,1-2.1,1.8c-0.8,1.4-1.5,2.7-2.3,4.1&#10;&#9;&#9;c-0.2,0.3-0.4,0.6-0.5,0.9c0.1,0.6,0.2,1.1,0.4,1.7c0.1,0.7,0.3,1.3,0.4,2c0.1,0.4-0.3,1.1-0.4,1.4c-0.1,0.2-0.5,1-0.4,1.2l0.8,1.3&#10;&#9;&#9;l2.4,4.1c0.4,0.7,1,1.3,1.7,1.7l1.9,1.3c0.2,0.2,0.6,0.6,0.9,0.5l1.9-0.7c0.5-0.1,0.9-0.1,1.4,0.1c0.5,0.1,0.7,0.2,1.2,0l1.8-0.9&#10;&#9;&#9;c1-0.3,2-0.4,3-0.3l1.2,1.5c0.3,0.4,1.1,0.1,1.5,0.1c0.7,0,0.7,0,1.1,0.6s0.4,0.6,0.3,1.2s-0.2,1.5-0.3,2.3c0,0.4-0.2,0.8,0,1.1&#10;&#9;&#9;l1.3,1.7c0.2,0.3,0.7,0.7,0.8,1.1l0.9,3.7c0.3,1.1,0.6,2,0,3.1c-0.5,1.2-0.8,2.5-0.9,3.8c0,0.3-0.2,0.8-0.1,1l0.9,1.8&#10;&#9;&#9;c0.5,0.9,0.9,1.8,1.1,2.8l0.4,2.3c0,0.3,0,1.2,0.2,1.4s0.8,0.6,1,1l0.8,2c0.1,0.3,0.5,1,0.5,1.3c-0.1,0.9-0.1,0.9,0.5,1.5&#10;&#9;&#9;c0.2,0.2,0.7,0.9,1,0.8l1.6-0.3l3.5-0.7c0.3-0.1,0.8-0.7,1.1-0.9c0.5-0.4,0.9-0.8,1.4-1.2c0.7-0.9,1.4-1.9,2-2.9&#10;&#9;&#9;c0.1-0.5,0.2-1.1,0.2-1.6c0.1-0.7,0-0.9,0.5-1.2c0.3-0.2,1.3-0.4,1.5-0.7c0.2-0.6,0.2-1.2,0.2-1.9c0-0.4-0.5-1.2-0.6-1.5&#10;&#9;&#9;c-0.2-0.5,0.2-0.7,0.5-1.1l1.2-1.4c0.3-0.4,1.1-0.5,1.5-0.7c0.8-0.5,1.4-1.3,1.4-2.3c-0.1-1.2,0.2-2.7-0.5-3.7&#10;&#9;&#9;c-0.4-0.4-0.6-0.9-0.5-1.5c0.1-0.6,0-1.3-0.4-1.7c-0.3-0.4,1.4-2.7,1.7-3.2c1.2-2,3-3.6,4.6-5.2c0.6-0.7,1-1.5,1.4-2.3&#10;&#9;&#9;c0.6-0.9,1.1-1.9,1.5-3c0.1-0.3,0.5-1.5,0.4-1.7s-0.9-0.1-1.1,0l-3.9,1.1c-0.4,0.1-0.9-0.9-1.4-1c0.7-0.7-0.2-1.3-0.7-1.8l-0.8-1&#10;&#9;&#9;c-0.2-0.2-0.9-0.2-1-0.4c-0.2-0.8-0.5-1.6-0.9-2.4c-0.3-0.3-0.6-0.6-0.9-0.9c-0.2-0.2-0.2-0.8-0.2-1.1c-0.1-0.5-0.2-1-0.2-1.5&#10;&#9;&#9;c0-0.3-0.5-0.6-0.7-0.8c-0.4-0.5-0.3-1.1-0.6-1.7l-1.5-3c-0.2-0.5-1-1.4-0.6-1.9c0.3,0.7,0.8,1.4,1.3,2c0.2-0.5,0.4-1.1,0.5-1.6&#10;&#9;&#9;l-0.2,1.3c0.5-0.1,0.6,0.5,0.8,0.9l1.2,2.1c0.2,0.3,0.5,0.5,0.7,0.8c0.3,0.5,0.6,1,0.7,1.6c0.1,0.4,0.1,1.5,0.4,1.6&#10;&#9;&#9;c0.6,0.2,0.7,0.4,1,1c0.7,0.9,1.1,1.9,1.4,3c0.1,0.8,0.3,1.5,0.4,2.3s0.2,0.6,0.9,0.6c0.5,0,0.5-0.5,1-0.6s1.1-0.3,1.7-0.4&#10;&#9;&#9;c0.3-0.1,0.5,0,0.6-0.3s0.2-0.3,0.4-0.4l2-0.7c0.4-0.1,0.3-0.7,0.7-0.9l0.9-0.4c0.2-0.1,0.5,0.2,0.7,0.1s0.2-0.8,0.5-0.9l1.2-0.6&#10;&#9;&#9;c0.4-0.2,0.6-0.1,0.6-0.6c0-0.4,0.1-0.9,0.3-1.3c0,0.1,0.1,0.2,0.1,0.4c0.3-0.3,1.1-1,1.1-1.4s0.2-0.7-0.2-0.7&#10;&#9;&#9;c-0.2,0-0.4-0.6-0.5-0.8s-0.5-0.2-0.7-0.3c-0.3-0.2-0.6-0.4-0.8-0.6c-0.5-0.3-0.3-1.2-0.4-1.7c-0.4,0.7-1,1.3-1.6,1.8&#10;&#9;&#9;c-0.7,0.3-1.5,0.4-2.3,0.3c0.1-0.7,0-1.4-0.3-2l-0.2,1.3c-0.5-1-1-1.9-1.5-2.9c-0.2-0.3-0.9-1.1-0.7-1.4c0.6-0.7,0.6-0.8,1.5-0.6&#10;&#9;&#9;c0.5,0.1,0.6,0.7,0.8,1.2c0.1,0.5,0.6,1,1.1,1.1c0.4,0.2,0.6,0.7,1.1,0.8c0.6,0.2,1.2,0.2,1.7,0c0.8-0.3,0.7-0.1,1.1,0.7&#10;&#9;&#9;c0.2,0.4,0.7,0.4,1.1,0.5c0.9,0.3,1.9,0.5,3,0.5c0.4,0,3.1-0.6,3.3-0.3s0.4,1.2,0.7,1.3c0.5,0.4,1,0.7,1.5,0.9c0.2,0,0.4,0,0.6-0.1&#10;&#9;&#9;c-0.1,0.5-0.8,0.4-1.1,0.5c0.4,0.4,0.9,1.3,1.4,1.3s0.5,0.1,0.7-0.3s0.5-0.7,0.8-1.1l0.1,3.8c0,0.4,0,0.9,0,1.3&#10;&#9;&#9;c0.2,0.6,0.4,1.1,0.7,1.6c0.9,2,1.7,3.9,2.7,5.8l1.1-0.7c0.3-0.2,0.3-0.6,0.3-1.1c0.4,0.4,0.6,0.5,0.6,1.1c0,0.6,0,1.2,0.1,1.8&#10;&#9;&#9;c0.1,1.4,1.8,0.5,1.4-0.5c-0.2-0.5-0.5-1-0.8-1.5c-0.4-0.4-0.6-1-0.7-1.5c0-0.5,0.1-1.1,0.4-1.6c0.1-0.5,0.1-1.1,0-1.6&#10;&#9;&#9;c0-0.6-0.2-0.9,0.3-1.1c0.5-0.1,0.9-0.4,1.3-0.6l2.6-2.7l0.9-1c0.1-0.1-0.1-0.6,0-0.7s0.5-0.1,0.5-0.1l1.9-0.3&#10;&#9;&#9;c0.4,0,0.8-0.5,1.1-0.7c0.2,0.8,0.6,1.5,1.1,2.1c0.6,0.6,1,1.3,1.2,2.1c0.1,0.2-0.1,0.9-0.1,1.2c-0.1,0.6-0.1,0.5,0.4,0.7&#10;&#9;&#9;s0.5,0.1,0.8-0.3l0.8-1c0.5,1.2,0.8,2.5,0.9,3.8c0.1,0.7,0.2,1.4,0.1,2.2c0,0.4-0.4,1.7-0.1,2l1.5,1.6c0.3,0.6,0.5,1.3,0.7,2&#10;&#9;&#9;c0.2,0.7,0.3,1,0.8,1.4c0.5,0.5,1.1,0.8,1.7,1c-0.2-0.5-0.4-1-0.6-1.5c-0.1-0.5,0.1-1.2-0.1-1.7c-0.2-0.4-0.6-0.7-0.9-1&#10;&#9;&#9;c-0.3-0.2-1.1-0.6-1.2-1c-0.1-0.2-0.3-1.6-0.5-1.6c-0.4,0-0.4,0.1-0.5-0.4c-0.1-0.2-0.1-0.5,0-0.7c0.2-0.5,0.4-1,0.5-1.6&#10;&#9;&#9;c0.1-0.9-0.1-1,0.8-1.1c0,0.2,0,0.4-0.1,0.6c0.8,0.1,1.5,0.5,2,1.1l1.1,1.2c0.3,0.3-0.2,0.8,0.1,1.2c1.1-0.8,2.1-1.7,3.2-2.7&#10;&#9;&#9;c0.4-0.3,0.1-1.5,0.1-2c0-0.8-0.3-1-0.8-1.6s-0.8-1-1.1-1.5c-0.2-0.4-0.5-0.8-0.7-1.1c-0.1-0.1,0.2-0.8,0.3-1&#10;&#9;&#9;c0.2-0.5,1.1-1,1.5-1.3c0.5-0.3,1.2-0.2,1.6,0.2c-0.1,0-0.2,0.1-0.4,0.2c0,0.1,0.2,0.7,0.3,0.8c0.4,0.2,0.4-0.3,0.4-0.5&#10;&#9;&#9;s-0.1-0.4,0.2-0.5l0.7-0.3c0.2-2.6,0.4-5.3,0.4-8C341.6,219.9,334.9,200.8,322.5,185.5z M295.5,229.3c-0.1,0.3-0.3,0.5,0,0.8&#10;&#9;&#9;c0.1,0.1,0.4,0,0.5,0.1s0.1,0.4,0.2,0.5c-0.1,0-0.2,0-0.3,0c0.3,0.6,0.7,0.2,0.5,1c-0.1,0.5,0,1.1,0.1,1.6&#10;&#9;&#9;c-0.5,0.2-1.1,0.2-1.6,0.2l-1-0.3c-0.3-0.1-0.3-0.3-0.6-0.4s-0.5,0-0.6-0.5c-0.1-0.3,0-0.7,0.1-1c0.1-0.3,0.2-0.6,0.3-0.9&#10;&#9;&#9;c0.1-0.5,0.2-0.5,0.7-0.6c-0.5-0.2-0.8-0.5-1-1c-0.2-0.4-0.6-0.5-0.8-0.9c-0.3-0.5-0.4-1-0.4-1.6c0-0.4-0.4-0.8-0.8-0.8&#10;&#9;&#9;c0.1-0.2,0.5-0.4,0.6-0.7c0.1-0.5,0.1-0.5,0.5-0.7c0.2-0.1,0.9-0.2,1-0.5c0.2-0.8,0.1-0.4,0.8-0.6c0.2,0,0.6-0.4,0.9-0.4&#10;&#9;&#9;s0.7,0.4,0.9,0.1s0.5,0.4,0.6,0.5c0.2,0.3,0,0.7-0.1,1c0.6,0.2,0.8-0.3,1,0.5c-0.5,0.1-0.6,0.3-0.9,0.7c0-0.4,0.2-0.7,0.5-0.8&#10;&#9;&#9;c-0.5-0.1-1-0.2-1.5-0.2c-0.2,0-0.5,0.1-0.6,0.2c-0.2,0.3,0,0.4,0.3,0.6c-0.4,0.3-0.5-0.2-0.9-0.1s0.5,0.4,0.5,0.5&#10;&#9;&#9;c0,0.4,0.1,0.8,0.2,1.1c0.2,0.2,0.8,0.4,1,0.5c-0.3,0.5-0.2,1.1,0.1,1.6c0-0.4,0.1-1.4,0.8-1c0.1,0.1,0.1,0.5,0.3,0.6&#10;&#9;&#9;s0.5,0.4,0.5,0.7C296.5,229.4,296,229.4,295.5,229.3L295.5,229.3z"/>
	<path class="st4_network-1-19" d="M242.6,202c0.4,0.1,0.7-0.2,0.7-0.7c0.4,0.2,0.5-0.1,0.8-0.4c-0.3-0.2-0.1-0.6-0.2-0.7s-0.5-0.4-0.9-0.3&#10;&#9;&#9;c0.4-0.7-1.6-1.5-1.3-0.6c-0.6-0.1-0.8,0.2-1.4,0c0,0.2,0.1,0.4,0.1,0.7c-0.2-0.3-0.3-0.6-0.7-0.6s-0.4,0.3-0.3,0.6&#10;&#9;&#9;c-0.2-0.2-0.4-0.6-0.7-0.6c0.3,0.6-0.1,0.3-0.2,0.6c-0.1,0.2-0.2,0.5-0.3,0.7c-0.2-0.2-0.3-0.5-0.5-0.8c0.1,0,0.3,0,0.3-0.2&#10;&#9;&#9;c0,0,0-0.1,0-0.1c0-0.2-0.4-0.2-0.4-0.3c-0.4-0.4-0.4-0.5-1-0.5c0.1,0.3,0.3,0.2,0.5,0.3c0.1,0.8-0.7-0.1-0.9,0.2s0.2,0.4,0.1,0.5&#10;&#9;&#9;s-0.3,0-0.5-0.1c0,0.1,0,0.2,0,0.2c-0.2,0-0.2,0-0.4,0.1c0.5,0.2,0.6,0.1,1.1-0.1c0.2-0.1,0.8,0.1,1,0.2l-0.6,0.3&#10;&#9;&#9;c0.2,0.1,0.4,0.1,0.6,0c0,0.1,0,0.1,0,0.2c-0.6,0-1.2,0.2-1.8,0.2c0.1,0.4,1.1,0.2,1.4,0.2c-0.2,0.2-0.1,0.4,0.2,0.3v0.2h0.2&#10;&#9;&#9;c-0.1,0.4-0.9,0.3-0.7,0.8l1.4-0.2c0.1,0,0.2,0.3,0.4,0.4c0.2,0.1,0.4,0.1,0.6,0.1c0.4,0.1,0.8,0.1,1.1-0.1&#10;&#9;&#9;c0.2-0.1,0.1-0.3,0.4-0.3l0.7-0.1C241.7,202.5,242.3,201.9,242.6,202z"/>
	<path class="st4_network-1-19" d="M196.1,248.4c-0.2,0-0.3-0.4-0.4-0.4c-0.5,0-1-0.2-1.3-0.6l-0.1,0.1c-0.9-0.7-1.9-1.1-3-1.3&#10;&#9;&#9;c-0.6,0-1.2,0.1-1.8,0.2c-0.5,0.1-0.6,0.6-1,0.9c0.8,0.4,1.7-1.4,2.5-0.6c-0.1,0.1-0.3,0.1-0.4,0.1c0.1,0.2,0.4,0.3,0.6,0.2&#10;&#9;&#9;c0.2-0.1,0.3,0.1,0.5,0.1c0.4,0,0.9,0.3,1.3,0.4s0.4,0.6,0.9,0.8c0.1,0.1,0.6-0.1,0.6,0.3c0,0.1-0.4,0.4-0.5,0.5c0.6,0,1.2,0,1.8,0&#10;&#9;&#9;c0.3-0.1,0.6-0.2,0.9-0.3C196.7,248.6,196.4,248.5,196.1,248.4z"/>
	<path class="st4_network-1-19" d="M193.7,250.6c0.3,0.2,0.6,0.4,0.9,0.5c0.2,0,0.4-0.2,0.7-0.1c-0.1-0.1-0.1-0.2-0.2-0.3&#10;&#9;&#9;C194.7,250.5,194,250.1,193.7,250.6z"/>
	<path class="st4_network-1-19" d="M189.5,204.1c-0.2,0.2-0.3,0.2-0.2,0.4c0,0.1,0.1,0.4,0.2,0.4c0.7,0,1.3-0.5,1.5-1.1h-0.5&#10;&#9;&#9;C190.1,203.8,189.8,203.9,189.5,204.1z"/>
	<path class="st4_network-1-19" d="M193.8,187.9c-0.2-0.1-0.6,0.1-0.8,0l-0.9-0.3c-0.3,0-0.5,0.3-0.5,0.6c0,0.2,0.1,0.4,0.3,0.4&#10;&#9;&#9;c0.4,0.2,0.1,0.3,0.3,0.6s0.4,0.2,0.5,0.3s1.1-0.2,1.4-0.3c0.4,0,0.8,0,1.2,0.1C195,188.6,194.4,188.2,193.8,187.9z"/>
	<path class="st4_network-1-19" d="M197.5,197.1c0-0.3-0.3-0.5-0.6-0.5c-0.1,0-0.3,0.1-0.4,0.2C196.2,197.1,197.4,197.1,197.5,197.1z"/>
	<path class="st4_network-1-19" d="M191,202.4c0.6-0.6-0.9-1.3-1.1-1.4s-0.5-0.1-0.7-0.3s-0.4-0.4-0.6,0c-0.1-0.1-0.1-0.2-0.2-0.3&#10;&#9;&#9;c0.6-0.1,0.4-0.9-0.1-0.7s-0.5,0.6-0.6,1.2c-0.1,0.2-0.1,0.5-0.1,0.7c0,0.2,0.1,0.4,0.1,0.6s-0.6,0.6-0.8,0.8&#10;&#9;&#9;c0.4-0.1,0.8-0.2,1.1-0.2c0.1,0.1,0.2,1,0.4,0.9s0.6-0.7,0.8-0.8c0.4-0.2,0.4-0.5,0.9-0.7c-0.1,0.7,1.1,0.9,1.6,1l0.7-0.4&#10;&#9;&#9;C191.9,202.4,191.4,202.2,191,202.4z"/>
	<path class="st4_network-1-19" d="M196,197.7c0.3-0.5,0.1-0.7,0.2-1.2c-0.6-0.9-2.3,0.4-1.6,1C194.9,197.7,195.7,198.2,196,197.7z"/>
	<path class="st4_network-1-19" d="M192.7,204.5c-0.3-0.1-0.6,0.2-0.6,0.5s0.1,0.4,0.3,0.6C192.7,205.4,193.4,204.8,192.7,204.5z"/>
	<path class="st4_network-1-19" d="M206.6,220.6c-0.6-0.6-1.4-0.9-2.2-0.8C204.9,220.1,206,221.1,206.6,220.6z"/>
	<path class="st4_network-1-19" d="M204.7,222.8c-0.4,0.7,0.3,0.8,0.8,1s0.6-0.1,0.9-0.4l-1.5-0.1C204.9,223.2,204.8,223,204.7,222.8z"/>
	<path class="st4_network-1-19" d="M250.4,213c0,0.1,0,0.3,0.1,0.4C250.6,213.1,250.5,213,250.4,213z"/>
	<path class="st4_network-1-19" d="M335.7,268.7c0.4-0.4,0-0.4,0-0.6s-0.1-0.7-0.2-0.8s-0.6-0.1-0.6-0.3s0.2-0.4,0.2-0.7s-0.5-0.3-0.5-0.5&#10;&#9;&#9;c0-0.4-0.1-0.2-0.4-0.4s0-0.3-0.4-0.4c-0.3,0-0.5,0-0.6-0.3c-0.3-0.4-0.8-0.6-1.2-1c-0.4-0.3-0.8-0.6-1.1-1&#10;&#9;&#9;c-0.4-0.5-0.2-0.8-0.9-0.9c-0.2,0-1.2-0.4-1.3-0.3s0.6,1.3,0.8,1.4c0.3,0.3,1,0.4,1,1s0.8,0.5,0.9,1.1c0.1,0.4,0.2,0.7,0.3,1.1&#10;&#9;&#9;s0.3,0.1,0.5,0.3c0.3,0.6,0.6,1.2,0.8,1.8c0.2,0.4,0.5,0.8,0.9,1.1c0.6,0.6,1.2,1.3,1.9,1.9c0.4-0.9,0.7-1.8,1-2.7&#10;&#9;&#9;C336.3,268.4,335.9,268.4,335.7,268.7z"/>
	<path class="st4_network-1-19" d="M274.9,235.1c0-0.3-0.6-0.4-0.8-0.4c-0.4,0.1-0.8,0-1.1-0.3c-0.1,0.1-0.2,0.3-0.2,0.4&#10;&#9;&#9;C273.5,235,274.2,235.1,274.9,235.1z"/>
	<path class="st4_network-1-19" d="M281,235.2c-0.2-0.4,0.2-0.5,0.4-0.7c-0.2,0.1-0.6,0.4-0.9,0.4s-0.8-0.1-0.9,0.1&#10;&#9;&#9;C279.2,235.7,280.8,235.2,281,235.2z"/>
	<path class="st4_network-1-19" d="M336.6,267.9c-0.2-0.4-0.3,0-0.5,0.2c0.1,0.1,0.2,0.1,0.4,0.1c0,0,0.1,0,0.1,0.1c0.1-0.2,0.1-0.4,0.2-0.5&#10;&#9;&#9;c-0.1-0.1-0.1-0.1-0.2-0.1C336.6,267.7,336.6,267.8,336.6,267.9z"/>
	<path class="st4_network-1-19" d="M261.6,228.7c0.2-0.5,0.3-1,0.2-1.6c-0.2,0,0,0.2-0.2,0.4c-0.1,0.2-0.3,0.3-0.5,0.4&#10;&#9;&#9;C260.9,228.2,261.4,228.7,261.6,228.7z"/>
	<path class="st4_network-1-19" d="M271.6,210.3c0.2-0.4,0.7-0.5,1.1-0.7c-0.4-0.2-0.9-0.2-1.3,0C271.6,209.7,271.7,210,271.6,210.3z"/>
	<path class="st4_network-1-19" d="M262.6,213.3c-0.1-0.3-0.3-0.2-0.5-0.1c0,0.2,0.4,0.6,0.5,0.6c0.1,0,0.2-0.2,0.2-0.3&#10;&#9;&#9;C262.8,213.4,262.7,213.3,262.6,213.3z"/>
	<path class="st4_network-1-19" d="M269.2,194.3l0.5-0.1l0.7-0.3C270,193.6,269.5,194,269.2,194.3z"/>
	<path class="st4_network-1-19" d="M257.3,230.6c-0.3-0.5-0.5-0.3-0.9,0l0.5,0.4L257.3,230.6z"/>
	<path class="st4_network-1-19" d="M190.8,182.9c0.3,0.4,0.5-0.1,0.7,0.1s0.2,0.4,0.1,0.8l1.4-0.4c0.1-0.1,0.2-0.3,0.3-0.4s0.2,0.2,0.4,0.1&#10;&#9;&#9;s0.5-0.1,0.5-0.2s0-0.5-0.1-0.6s-0.3-0.3-0.6-0.1s-0.3,0.3-0.5,0s0.7-0.9,0.8-1c0.5-0.4-0.3-0.6,0-0.8s0.8,0.3,1.1,0.2&#10;&#9;&#9;c0.4-0.1,0.8-0.4,1.1-0.8l-0.8-0.4l1.4-0.2c0-0.6-1.2-0.6-1.6-0.7h1.6c0.1-0.6-1.2-0.5-1.7-0.5c-1.7,1.6-3.3,3.3-4.8,5.1&#10;&#9;&#9;C190.3,183.3,190.7,183.4,190.8,182.9z"/>
	<path class="st4_network-1-19" d="M187.4,186.2c0.2,0.4,0.9,0.5,1,0c0.1,0.5,0.9,0.2,1.2,0.1c0-0.2-0.1-0.4-0.1-0.6c0.5,0,0.2,0.5,0.6,0.7&#10;&#9;&#9;c0.3,0.1,0.6,0.2,0.9,0.2c0.2,0,1.1-0.1,1.1-0.2c0.1-0.4,0.3-0.4,0.7-0.6c-0.2-0.2-0.4-0.3-0.7-0.3l0.6-0.4c-0.7-0.7-1.7-1-2.6-0.8&#10;&#9;&#9;c-0.4,0.1-0.8-0.1-1.2,0.1h-0.1c-0.6,0.7-1.2,1.4-1.8,2.2h0.4C187.4,186.5,187.4,186.3,187.4,186.2z"/>
	<path class="st4_network-1-19" d="M203.6,307.2c0.2-0.5,0.5-1,0.7-1.6c0.1-0.3-0.4-0.8-0.4-1c0-0.4,0-0.9,0-1.3c0.8,0.4,1.2,0.6,2,0.1&#10;&#9;&#9;c0.2-0.1,0-0.6,0.1-0.9c0.2-0.5,0.1-0.7-0.1-1.1c0.6,0.2,1.3,0.2,1.9,0c0.8-0.2,1.4-0.2,1.9-0.9c0.2-0.2,0.6-0.7,0.7-1&#10;&#9;&#9;c0-0.4-0.1-0.9-0.3-1.3c-0.1-0.7-1.5-0.8-1.2-1.6c0.4,0.1,2.7,1.1,2.8,0.9l2.2-2.8c0.8-1,1.6-2.1,2.4-3.1c0.2-0.2,0.1-0.8,0.2-1.1&#10;&#9;&#9;s0-1.7,0.2-1.9l2.9-2c0.3-0.2,1.2-0.1,1.6-0.1s0.6-0.6,0.8-0.9c0.5-0.8,1.5-1.8,1.6-2.7c0.1-1.5,0.2-2.9,0.3-4.4&#10;&#9;&#9;c0-0.6,0.4-1,0.8-1.4l2.1-3c0.6-0.8,0.5-0.8,0.3-1.8c-0.1-0.5-0.2-0.9-0.3-1.4c0-0.1-1-0.1-1.2-0.1c-0.8-0.7-1.6-1.3-2.6-1.9&#10;&#9;&#9;l-3.2-1.1l-3.2-1.1c-0.2-0.1-0.4-0.6-0.6-0.7l-1.5-1.9c-0.5-0.6-1.1-1.9-1.9-2.1s-2.2-0.2-2.9-0.8l-3.1-3c-0.6-0.4-1.3-0.7-2-0.7&#10;&#9;&#9;l-4-0.9c-0.5-0.1-1.4-0.6-1.9-0.4l-1.7,0.6c-0.2,0.1-1,0.2-1.1,0.4c-0.4,0.7-1.4,1.8-1.4,2.6c-0.3-0.5-0.8-0.9-1.4-1.1&#10;&#9;&#9;c-0.7-0.2-1,0.1-1.7,0.3c-1.1,0.4-2.5-1.5-2.3-2.6c0-0.2,0.2-0.5,0.3-0.7c0.1-0.4,0.1-0.9,0.2-1.3c0.1-0.6-0.3-1.2-0.8-1.3&#10;&#9;&#9;c-0.3-0.1-0.7-0.1-1-0.1c-0.3,0-0.4,0.2-0.7,0.2c-0.6,0-1.3,0-1.9-0.2c0.2-0.2,0.7-0.7,0.5-1s0.4-1.2-0.1-1.2&#10;&#9;&#9;c0.1-0.1,0.1-0.3,0.2-0.4c0,0.2,0,0.4,0.2,0.6c0.1-0.3,0.2-0.7,0.3-1l-0.1,0.1v-0.1c0.1-0.1,0.2-0.2,0.2-0.2&#10;&#9;&#9;c-0.2,0-0.2-0.1-0.3-0.1c0.2,0,0.6-0.9,0.7-1.1c0.3-0.7-0.6-0.5-1-0.6c-0.4,0-0.9,0.1-1.3,0.3c-0.6,0.2-0.5,0.9-0.7,1.4&#10;&#9;&#9;c-0.1,0.3-0.2,0.5-0.5,0.6c-0.1,0.1,0.1,0.3,0,0.3c-0.1,0.1-0.2,0.1-0.4,0.2c-0.1,0.1-0.3-0.2-0.5-0.2c-0.3,0-0.5,0.1-0.8,0.2&#10;&#9;&#9;l-0.9,0.3c-0.1,0-0.3-0.3-0.5-0.4c-0.7-0.2-0.8-0.6-1.3-1.3c-0.6-1-1-2.1-0.9-3.3c0-0.5,0.2-1,0.4-1.5c0.1-0.2,0.2-0.4,0.2-0.7&#10;&#9;&#9;c0-0.3-0.4-0.6-0.4-0.8c0-0.9,1.5-2,2.1-2.3c0.4-0.2,1-0.6,1.4-0.5c0.2,0.1,0.5,0.3,0.7,0.2c0.4-0.1,0.5,0.1,0.9,0.4&#10;&#9;&#9;s0.4-0.2,0.6,0.2c0-0.1,0.1-0.2,0.1-0.4c0.2,0.1,0.6,0.2,0.5,0.5c0.1,0,0.3,0,0.3-0.2c0,0,0-0.1,0-0.1c0-0.1-0.4-0.2-0.5-0.3&#10;&#9;&#9;c0.8-0.4-0.3-0.5-0.6-0.5c0.4-0.3,1.8,0.1,1.9-0.5c0.1,0.7,0.8,0.2,1.3,0.3c0.3,0.1,0.5,0.3,0.8,0.5c0.2,0.2,0.5,0,0.8-0.1&#10;&#9;&#9;c0.5-0.2,0.7,0.4,1.1,0.7s0,1,0.2,1.5l0.2-0.1c-0.1,0.4,0.1,0.6,0.2,0.9c0.1,0.3,0.3,0.6,0.4,0.8c0,0,0.5,0.5,0.6,0.6&#10;&#9;&#9;c0.2,0.4,0.4,0.1,0.6-0.1s0.2-1.3,0.1-1.7c-0.2-0.7-0.5-1.4-0.8-2.1c-0.2-0.5-0.3-1-0.1-1.5c0.2-0.7,0.7-1.2,1.3-1.5&#10;&#9;&#9;c0.2-0.2,0.4-0.4,0.6-0.6c0.2-0.2,0.5-0.2,0.6-0.3s0.3-0.7,0.5-0.8s0.3,0.1,0.4,0.1l0.5-0.3c-0.2-0.1-0.4,0.2-0.6-0.2&#10;&#9;&#9;c0.2,0,0.2-0.1,0.4-0.1c-0.1-0.1-0.2-0.1-0.2-0.2c0.2,0,0.8,0,0.8-0.2c0.1-0.4-0.4-0.3-0.7-0.3c0.3-0.1,0.6-0.1,0.6-0.5&#10;&#9;&#9;s-0.3-0.3-0.4-0.6s0.2-0.6,0.1-0.8s-0.5-0.3-0.6-0.5c0.2,0.1,0.4,0.2,0.6,0.3c-0.2-0.7-0.3-1,0.3-1.4c0.2-0.2,0,0.3,0,0.4&#10;&#9;&#9;c-0.1,0.3-0.2,0.5-0.2,0.8c0.4-0.1,0.3,0.3,0.4,0.4c-0.1,0.2-0.2,0.5-0.2,0.8h0.1c0.2-0.4,0.4-0.8,0.6-1.2c0.2-0.4-0.3-0.9-0.4-1.3&#10;&#9;&#9;c0.1,0.3,0.6,0.5,0.4,0.8c0.3-0.2,1.2-1.5,0.6-1.6c0.2-0.3,0.7-0.2,0.9-0.2c0.3,0,0.6-0.2,0.9-0.3c-0.1,0-0.2,0-0.4,0l0.1-0.1&#10;&#9;&#9;c-0.4,0.1-0.8,0.3-1.3,0.3c0.5-0.3,1.1-0.5,1.7-0.5c0.2,0,0.2-0.5,0.3-0.4c0.3,0.1,0.7,0.3,1,0c-0.1-0.1-0.1-0.2-0.2-0.2&#10;&#9;&#9;c0,0.1,0,0.1,0.1,0.2c-1,0.1-0.3-1.2-0.1-1.6s0.1-0.5,0.4-0.6s0.6-0.2,0.8-0.6l0.1,0.2c0.2-0.3,1.5-0.1,1.2-0.8&#10;&#9;&#9;c0.2,0,0.4,0.1,0.5-0.1s0.2,0,0.4-0.1s0.8-0.7,1.1-0.6c-0.1,0.2-0.3,0.3-0.3,0.5c0.3-0.2,0.7-0.1,1-0.1c-0.2,0.2-0.4,0.5-0.7,0.3&#10;&#9;&#9;s0-0.4-0.3-0.1s-1.6,0.9-1.1,1.6c0.1,0,0.4,0.4,0.6,0.1s0.6-0.8,0.9-1.1c0.2-0.1,0.2,0.3,0.4,0.1c0.2-0.1,0.3-0.2,0.5-0.2l1.4-0.6&#10;&#9;&#9;c-0.1-0.1-0.1-0.2-0.2-0.3c0.4,0,0.8-0.1,1.1-0.3c0.3-0.1-0.2-0.6-0.5-0.4c0.1-0.4,0.4-0.8-0.1-0.9c-0.2,0.4-0.9,1-0.6,1.4&#10;&#9;&#9;c-0.1,0.1-0.2,0.1-0.3,0.1l-0.1-0.3c-0.5,0.4-1.1,0.1-1.6-0.1l0.1-0.1c-0.4-0.1-0.9-0.5-0.8-1c-0.1,0-0.3,0-0.4,0&#10;&#9;&#9;c0.2-0.2,0.4-0.4,0.4-0.7c-0.2-0.1-0.5-0.1-0.7,0c0,0-0.4-0.4-0.5-0.4c0.4-0.3,0.6,0.2,0.9,0s0.9-0.5,0.4-0.8&#10;&#9;&#9;c0.1,0,0.2,0.1,0.3,0.1c-0.5-1.2-2.3-0.2-3,0.1c-1,0.5-1.5,1.5-2.5,2c0.5-0.5,0.9-1,1.3-1.6c0.3-0.3,0.5-0.6,0.9-0.9&#10;&#9;&#9;c0.2-0.1,0.9-0.2,1-0.5c0.2-1,1-0.7,1.7-0.8c0.8-0.1,1.6-0.1,2.4,0c0.7,0.2,1.4-0.1,1.9-0.6c0.2-0.3,0.5-0.5,0.8-0.6&#10;&#9;&#9;c0.4-0.1,0.7,0,1-0.1c0.3-0.1,0.7-0.3,0.9-0.6c0.3-0.4-0.1-0.6,0-0.9c0.1-0.2,0.3-0.8,0-0.9s-0.8-0.4-1,0.1&#10;&#9;&#9;c-0.2-0.3,0.2-0.3,0.1-0.6s-0.6-0.3-0.8-0.3c0.1,0.1,0.2,0.2,0.4,0.2c-0.3,0-0.7,0.1-1,0.3c-0.1,0.1,0,0.2-0.2,0.2&#10;&#9;&#9;c-0.2,0-0.4,0.1-0.5,0.3c-0.2,0.2-0.3-0.4,0-0.5s0.9-0.1,1.1-0.5c-0.3,0.1-0.6,0.3-0.8,0.2c0.4-0.2,0.8-0.3,1.2-0.4&#10;&#9;&#9;c0.7-0.1,0.1-0.4-0.3-0.7c-0.4-0.3-0.9-0.4-1.3-0.4c-0.3,0-0.1-0.3-0.2-0.5s-0.5-0.4-0.6-0.5s-0.4-0.3-0.5-0.4s0.3-0.5,0.3-0.8&#10;&#9;&#9;c0-0.4-0.7-1.1-0.9-1.5c-0.4-0.6-0.9-2.2-1.7-2.3l0.1-0.5c-0.3-0.1-0.8,0.6-0.8,0.9s-0.2,0.9-0.4,1.3c-0.1-0.1-0.2-0.1-0.3-0.2&#10;&#9;&#9;c-0.4,2-2.2-1.2-2.7,0.2c-0.3-0.3,0.2-0.6,0.4-0.9c-0.1,0-0.2,0-0.3,0c0.1-0.4,0.1-0.7,0-1.1c-0.1-0.4,0-0.5,0.3-0.8&#10;&#9;&#9;c-0.3-0.2-0.6-0.3-1-0.3c-0.5,0.1-0.7-0.3-0.8-0.7s-0.7-0.6-0.9-0.7c-0.4-0.3-0.6-0.6-1.1-0.4c-0.8,0.4-1.5-0.3-2.3-0.2&#10;&#9;&#9;c-0.4,0.1-0.7,0.2-0.6,0.6c0.2,0.5,0.2,1,0,1.4c0,0.4,0,0.8,0.2,1.2c0.2,0.7,0.1,0.6-0.4,1.1s-0.3,0.4,0,0.9&#10;&#9;&#9;c0.3,0.3,0.6,0.7,0.9,0.9c0.4,0.7,0.4,1.6,0,2.4c-0.4,0.6-1.5,1-2.1,1.4c0.2,0.3,0.6,0.7,0.6,1c0.1,0.6,0.2,1.2,0.3,1.8&#10;&#9;&#9;s-1,1.8-1.5,1.1s-1.4-1.4-1.4-2.3c0-0.7,0-1.3,0.1-2c0-0.2-0.9-0.2-1.1-0.2l-1.4-0.2c-0.3,0-0.8-0.6-1.1-0.8&#10;&#9;&#9;c-0.8-0.5-1.6-1-2.5-1.3c-0.3-0.1-0.7-0.4-1-0.3c-0.6,0.1-0.8,0.4-1-0.3c-0.1-0.4-0.3-1.3-0.6-1.6s-1-0.2-1.3-0.3l0.5-2.4&#10;&#9;&#9;c0.3-0.7,0.6-1.4,1.1-2c0.1-0.1,0.3-0.7,0.5-0.6c0.4,0.1,0.8,0,1.1-0.2c0.4-0.2,0-0.5-0.2-0.7c-0.3-0.2-0.7-0.3-1-0.1&#10;&#9;&#9;c0.1-0.1,0.1-0.1,0.2-0.2l-0.9-0.4c0.5,0.1,0.9,0.2,1.4,0.4c0.8,0.2,0.8,0.2,1.4-0.3c0.2-0.2,0.5-0.1,0.7,0s0.4-0.2,0.6-0.3&#10;&#9;&#9;s0.6-1,0.8-1.4c-0.6,0-1.1-0.1-1.6-0.2l-1.8-0.9c0.8-0.1,1.6,0.1,2.3,0.4c0.5,0.3,0.7,0.5,1.1,0.2c0.3-0.2,0.6-0.6,0.7-0.9&#10;&#9;&#9;l-0.6-0.4c0.2-0.4,0.6-0.2,0.9-0.2c0.1,0,0,0.4,0.2,0.4s0.4,0.1,0.6,0.1c0-0.1-0.1-0.2-0.1-0.3l0.6,0.3l-0.4-0.9&#10;&#9;&#9;c0.3,0.2,0.5,0.7,0.9,0.5c0.4-0.2,0.9-0.4,1.2-0.8c0.4-0.5,0.2-0.8-0.1-1.1c-0.3-0.3-0.5-0.7-0.7-1.1c0.2,0,0.7,0.1,0.9-0.1&#10;&#9;&#9;s-0.1-0.6,0.1-1c-0.4-0.1-0.8-0.3-1-0.6c-0.2-0.2-1-0.2-1.3-0.2s-0.7-0.2-0.8,0.3s0.1,0.7,0.4,1.1c-0.7,0.3-0.7,0.3-0.7,1.1&#10;&#9;&#9;c0,0.2-0.3,0.4-0.4,0.5s-0.2,0.4-0.2,0.7c-0.1,1.1-2.3-0.9-1.3-1.5c0,0.1,0.1,0.2,0.1,0.3c0.5-0.1,0.2-0.6,0.1-1&#10;&#9;&#9;c-0.1-0.2-0.7-0.5-0.9-0.6s-0.4,0.5-0.5,0.6c0,0.4-0.2,0.7-0.4,1c-0.4-0.3-0.3-0.4-0.2-0.8s-0.1-0.5-0.4-0.8l0.5-0.4&#10;&#9;&#9;c-0.3-0.2-0.6-0.4-1-0.2s-0.6,0-1-0.1l1.1-0.7c-0.2-0.2-0.5-0.5-0.8-0.8c-0.4,0.6-0.7,1.1-1.1,1.7c0.2,0,0.3,0,0.3,0.3&#10;&#9;&#9;c-0.2,0-0.4,0.1-0.6,0.2c-0.1,0.2-0.2,0.3-0.3,0.5c0,0.1,0,0.1,0,0.2l0.7-0.3c0,0.3,0.2,0.5,0,0.7s-0.5,0.6-0.8,0.6&#10;&#9;&#9;c-0.9,0.1-0.6,0.8-0.4,1.5c-0.3-0.1-0.5-0.3-0.7-0.4c-7.1,12.8-10.8,27.2-10.8,41.9c0,0.9,0,1.9,0.1,2.8c0.1,0.1,0.2,0.3,0.3,0.4&#10;&#9;&#9;s0.4,0.4,0.3,0.5s-0.2,0.5-0.1,0.6l1.6,1.4c0.3,0.3,0.5,0.6,0.8,0.9c0.2,0.3,1,1.1,0.9,1.5c-0.2,0.6-0.4,0.9,0,1.3l1.4,1.4&#10;&#9;&#9;c0.2,0.2,0.6,0.3,0.8,0.4l2.2,0.9c0.9,0.4,1.9,1.1,2.8,0.8c0.4-0.1,0.9-0.5,1.3-0.1l1.6,1.6c0.6,0.6,1.9,0.7,2.7,0.9&#10;&#9;&#9;c1,0.3,1.4,1,2.1,1.8c0.3,0.3,0.2,0.9,0.4,1.2s1,0.8,1.4,1.1c0.2,0.1,0.4,0.3,0.6,0.4s0.2-0.1,0.4-0.1c0.3,0.1,0.9,0.7,1.1,0.3&#10;&#9;&#9;c0.3,0.7,0.2,0.6,0.9,0.3c-0.1-0.1-0.4-0.5-0.3-0.6c0.2-0.2,0.4-0.4,0.6-0.5c0.3-0.2,0.3-0.2,0.6,0s0.4,0.2,0.3,0.7&#10;&#9;&#9;s0.9,0.8,0.8,1.2c0,0.2,0.1,0.6,0,0.6c-0.2,0.2,0,0.4,0,0.7c0.2,1.4-0.5,2-1.2,3c-0.4,0.5-0.7,0.9-1,1.4c-0.2,0.5-0.3,1-0.4,1.5&#10;&#9;&#9;c-0.2,0.7-0.8,2-0.4,2.8l1.8,3.5l2.2,4.2c0.2,0.6,0.6,1.1,1.2,1.5l1.8,1.3c0.3,0.2,1,0.5,1.2,0.9c0.1,0.5,0.2,1.1,0.2,1.6&#10;&#9;&#9;c0.1,0.6,0.2,1.2,0.2,1.8c-0.1,0.7-0.2,1.4-0.4,2.1l-0.9,4.7c-0.5,2.6-1,5.2-1.5,7.7c-0.2,1-0.3,2.1-0.4,3.2&#10;&#9;&#9;c1.8,1.7,3.8,3.3,5.8,4.8c0.1,0,0.1-0.1,0.2-0.1C203.3,307.7,203.4,307.8,203.6,307.2z M193.2,227.3c-0.5,0.4-1,0.7-1.5,0.9&#10;&#9;&#9;c-0.6,0.2-0.9,0.6-1.6,0.5l0.1-0.2c-0.2-0.1-0.3-0.1-0.5-0.1c0.2-0.4,0.4-0.7,0.6-1c0.1,0.2,0.1,0.1,0.2,0.3&#10;&#9;&#9;c-0.2,0-0.4,0.2-0.5,0.4c0.3,0.2,0.5-0.1,0.8-0.3c0.2-0.3,0.6-0.4,0.9-0.3c0.3,0,1.4-0.2,1.4-0.6&#10;&#9;&#9;C193.2,227.1,193.2,227.2,193.2,227.3L193.2,227.3z M192.9,226.3c0.4-0.1,1-0.4,1.4-0.2c0.2,0.1,0.9-0.4,1.3-0.6l-0.5,0.4&#10;&#9;&#9;c0.6,0.2-0.6,1.2-1.1,0.7C193.6,226.4,192,227.5,192.9,226.3L192.9,226.3z M183.9,222.2l1-0.5c0.3-0.1,0.1-0.5,0.5-0.6&#10;&#9;&#9;c0,0.1-0.1,0.2-0.1,0.3c0.2-0.1,0.2-0.4,0.4-0.5c0,0.1-0.1,0.3-0.1,0.4c0.2-0.1,0.5-0.3,0.2-0.6c0.3,0,0.6,0.1,0.8,0.2&#10;&#9;&#9;c0.2,0.1,0.5-0.3,0.7,0.1c0.4,0.6,0.4,0.9,1.2,0.8c-0.2,0.5,0.1,0.3,0.2,0.7c0,0.1-0.2,0.2-0.1,0.4s0.2,0.2,0.1,0.4s1,0.5,1.2,0.5&#10;&#9;&#9;c0.5,0.1,1.1,0.1,1.6,0.2s0.6,0.9,1,1.3c-0.3-0.2-0.2,0.2-0.3,0.2c-0.2,0.1-0.6-0.2-0.7,0c0-0.1,0-0.1-0.1-0.1&#10;&#9;&#9;c0.1-0.1,0.1-0.1,0.1-0.2c-0.4,0-0.2-0.5-0.6-0.3c0.6,0.3,0.2,0.7,0,1.1c-0.1,0.2,0,0.5-0.1,0.7l-0.5,0.6c-0.1-0.2-0.1-1.1-0.4-1.1&#10;&#9;&#9;c-0.1,0-0.7,0.5-0.8,0.3s0.3-0.5,0.3-0.5c0.3-0.2,0.2-0.6,0.1-0.8c0,0,0.1,0,0.1,0c-0.1-0.4-0.4-0.3-0.7-0.6s-0.9-0.3-0.6,0.2&#10;&#9;&#9;c-0.4,0-0.3,0.4-0.5,0.7c0-0.1,0-0.3,0-0.4c-0.2,0.5-0.8,0.6-0.6,1.4c0.2,0.6,0.2,1.3-0.1,1.9c-0.6,1.3-1-0.4-1-1&#10;&#9;&#9;c0-0.4,0.1-0.9,0.3-1.3c0.1-0.3,0.4-0.7,0.3-1c-0.3,0.2-0.4,0.8-0.7,0.7c0.2-0.5,0.4-1,0.8-1.4v0.2c0.1-0.1,0.2-0.1,0.3-0.2&#10;&#9;&#9;l-0.1,0.2l0.1,0.1c0.3-0.5,0.8-0.6,1.3-0.4c0.1,0,0.1,0.1,0.1,0.1c0.1-0.3,0.4-0.2,0.7-0.1c-0.1-0.1-0.2-0.4-0.4-0.5&#10;&#9;&#9;s-0.5,0-0.4-0.4c-0.5,0.1-0.9,0.3-1.4,0.4c-0.3-0.1-0.4,0-0.6-0.3s-0.4-0.2-0.7-0.1c0.1-0.3,0.3-0.5,0.6-0.6&#10;&#9;&#9;c-0.6-0.4-1.7,1.1-2.5,0.7l0.2-0.2c-0.3,0.1-0.6,0.3-1,0.1C183.3,222.8,183.6,222.5,183.9,222.2L183.9,222.2z M178.3,217.4&#10;&#9;&#9;c-0.2-0.3-0.9-1.1-0.3-1.2c-0.6-0.1-0.7,0-0.5-0.7c0.1-0.4,0.6-0.2,0.9-0.1c-0.4-0.3-0.4-0.4-0.1-0.8c0,0,0.1,0.1,0.2,0.1&#10;&#9;&#9;c-0.2,0.1-0.3,0.2-0.3,0.4c0.2,0,0.2,0,0.3-0.1h0.1c-0.4,0.2,0.4,1.9,0.6,2.3c0.1,0.3,0.2,0.6,0.4,0.9c0.2,0.2-0.1,0.5,0.1,0.8&#10;&#9;&#9;c-0.1,0-0.1,0-0.2-0.1c0,0.2-0.2,0.6-0.3,0.2c-0.2-0.4-0.1-0.8,0.2-1c-0.1,0-0.2,0.1-0.3,0.1c0-0.1,0.2-0.5,0.1-0.5&#10;&#9;&#9;s-0.3,0.1-0.4,0.2c0-0.2,0.1-0.6-0.1-0.7c0,0.1,0,0.1-0.1,0.1c0-0.1,0-0.2,0-0.2c-0.2,0.1-0.2,0-0.2,0.3L178.3,217.4z"/>
	<path class="st4_network-1-19" d="M184.6,190.6c0,0.1,0.1,1,0.2,1c0.8,0.1,1.4,0,2,0.6l-1.8-0.2c0.3,0.5,0.7,0.8,1.1,1.1&#10;&#9;&#9;c0.4,0.2,0.5-0.1,0.8-0.1c0.6-0.1,0.2,0.1,0.5,0.4c0.3,0.1,0.6,0.2,0.9,0.2c0.6-0.1,1.3,0,1.9,0.1l0.6,0.2c0.1,0.1,0.2-0.2,0.3-0.2&#10;&#9;&#9;c0.3,0,0.4,0.4,0.7,0.3l-0.7-0.7c0.8,0.3,1.6,0.4,2.5,0.3c-0.2-0.4-0.2-0.6-0.6-0.7c0.5-0.5,0.4,0.3,0.8,0.4c0.1,0.1,0.4-0.1,0.5,0&#10;&#9;&#9;l0.1,0.6c0.4-0.4,1.2,0.5,1.5,0.8c-0.6,0.2-0.8,0.1-0.8,0.8l0.9-0.3c0.4-0.2,0.4-0.2,0.6,0.2s0.9,0.4,1.2,0.9l0.6,1.1&#10;&#9;&#9;c0.1,0.2-0.1,0.3-0.2,0.4l-1.4,1.5c0.1,0.1,0.8,0.4,0.7,0.7c-0.1,0.1-0.9,0.3-1.1,0.3c-0.6,0.1-1.2,0-1.8-0.1&#10;&#9;&#9;c0.1,0.4-0.4,0.5-0.6,0.8s0.3,0.7,0.5,0.7s0.9,0.1,1.2-0.2s0.7,0,1,0c0-0.1,0.1-0.3,0.1-0.4c0.2,0,0.4,0.1,0.4,0.4&#10;&#9;&#9;c0.6-0.4,0.6,0,1,0.6c0.2,0.3,0.6,0.3,1,0.5l-0.6,0.3c0.3,0.2,0.6,0.4,1,0.4l-0.1,0.2l1.2,0.3c0.2,0,0.1,0.4,0.4,0.5l2.4,0.6&#10;&#9;&#9;c0.1-0.4,0.2-0.5-0.1-0.7l-0.9-0.6c-0.2-0.1-0.6-0.1-0.7-0.3l-0.5-0.8l0.8,0.4c-0.1-0.1-0.1-0.3-0.1-0.4l1.4,0.9&#10;&#9;&#9;c0.3,0.2,0.7,0.8,0.9,0.7c-0.1-0.2-0.1-0.3-0.2-0.5c0.1,0.1,0.2,0,0.3,0.1c0.2-0.4-0.4-0.5-0.2-1l0.4,0.5c0-0.3,0-0.7-0.1-1&#10;&#9;&#9;c-0.2-0.3-0.5-0.1-0.6-0.5s0-0.6-0.4-0.7s-0.5-0.4-0.6,0.1c-0.1-0.3-0.2-0.6-0.3-1s-0.2-0.2-0.5-0.1c-0.1-0.2-0.1-0.4-0.2-0.7&#10;&#9;&#9;l0.7,0.1c0-0.4-0.5-0.4-0.2-0.8s0.4-0.2,0.7-0.1s0.5,0.6,0.8,0.7s0.6-0.2,0.8-0.3c0.1,0.5-0.3,0.5-0.6,0.7c0.4,0.5,0.9,0.9,1.5,1.2&#10;&#9;&#9;c0.1-0.4,0.1-0.9,0-1.4c0.6,0.4,0.8,0.1,1.4-0.2l-0.6-0.3c0.2-0.2,0.6-0.1,0.8,0c0.1-0.6,0.3-0.9-0.3-1.1c-0.4-0.1-0.9-0.1-1.3,0&#10;&#9;&#9;c0.1-0.2,0.2-0.4,0.3-0.5c-0.5-0.1-0.8-0.1-1.1-0.4c-0.2-0.3-0.5-0.5-0.9-0.6c-0.9-0.3-1.7-0.6-2.5-1l0.7-0.1&#10;&#9;&#9;c0-0.2-0.1-0.4-0.1-0.7l1,0.2c-0.2-0.5-0.2-0.5-0.7-0.4c-0.3,0-0.6-0.1-0.8-0.2c0.3-0.3,0.7-0.4,1.1-0.3c0-0.4-0.4-0.6-0.7-0.8&#10;&#9;&#9;c-0.1,0.4-0.5,0.5-0.8,0.7c0.1-0.4-0.2-0.4-0.5-0.4c0.4-0.1,1-0.1,1.1-0.6c-0.3-0.2-2-1.2-2.2-0.8s-0.7,0.8-0.9,0.3&#10;&#9;&#9;c-0.1-0.2,0.7-0.5,0.9-0.6c-0.2-0.7-1.1-0.6-1.6-0.4c-0.3,0.1-1-1-1.3-1.3c-0.4-0.4-1-0.6-1.6-0.6c-0.2,0-0.8,0-0.9,0.2&#10;&#9;&#9;s-0.5,0.6-0.7,0.6c-0.5-0.3-0.5-0.3-0.9,0.1c-0.2,0.2-0.6,0.2-0.4-0.2s0.3-0.5,0.1-1s-0.3-0.3-0.5-0.6s-0.1-0.7-0.4-0.7&#10;&#9;&#9;c-0.3-0.1-0.6-0.1-0.9,0c-0.6,0.3-1.2,0.5-1.8,0.6c0-0.2,0.1-0.4,0.2-0.7c-0.7-0.2-1.5-0.1-2.2,0.3c-0.2,0.1-0.4,0.2-0.5,0.3&#10;&#9;&#9;l-0.8,1v0.1C184.9,189.7,184.5,190.3,184.6,190.6z"/>
	<path class="st4_network-1-19" d="M270.2,207.7c0-0.1,0-0.2,0-0.3h0.1C270.2,206.9,269.5,207.3,270.2,207.7z"/>
	<path class="st4_network-1-19" d="M169.5,245.9c0-0.2-0.2-0.5-0.4-0.7c0,0.3,0,0.7,0.1,1C169.3,246.3,169.5,246.2,169.5,245.9z"/>
	<path class="st4_network-1-19" d="M191,224.3l-0.1,0.1l0.1,0.1c0.1-0.2,0.2-0.2,0.1-0.4c0,0-0.1,0.1-0.1,0.1c0-0.2-0.2-0.3-0.4-0.2&#10;&#9;&#9;c0,0-0.1,0-0.1,0c-0.3,0.1-0.4-0.1-0.6,0.1h0.2C190.3,224.2,190.7,224.5,191,224.3z"/>
	<path class="st4_network-1-19" d="M184,223l-0.1,0.2c0.8,0.4,1.9-1.2,2.5-0.7c-0.3,0.1-0.5,0.4-0.6,0.6c0.3-0.1,0.5-0.2,0.7,0.1s0.4,0.1,0.6,0.3&#10;&#9;&#9;c0.5-0.1,0.9-0.2,1.4-0.4c-0.1,0.3,0.2,0.2,0.4,0.4s0.2,0.4,0.4,0.5c-0.3,0-0.6-0.2-0.7,0.1c-0.4-0.3-1-0.3-1.3,0.1&#10;&#9;&#9;c0,0-0.1,0.1-0.1,0.1l-0.1-0.1l0.1-0.2c-0.1,0.1-0.2,0.1-0.3,0.2v-0.2c-0.4,0.4-0.6,0.9-0.8,1.4c0.3,0.1,0.5-0.5,0.7-0.7&#10;&#9;&#9;c0,0.3-0.2,0.7-0.3,1c-0.2,0.4-0.2,0.8-0.3,1.3c0.1,0.6,0.4,2.3,1,1c0.3-0.6,0.3-1.3,0.1-1.9c-0.1-0.8,0.4-0.9,0.6-1.4&#10;&#9;&#9;c0,0.1,0,0.3,0,0.4c0.2-0.2,0.1-0.6,0.5-0.7c-0.4-0.5,0.4-0.4,0.6-0.2s0.6,0.1,0.7,0.6c0,0-0.1,0-0.1,0c0.1,0.2,0.2,0.7-0.1,0.8&#10;&#9;&#9;c0,0-0.4,0.4-0.3,0.5s0.6-0.3,0.8-0.3c0.3,0,0.3,0.9,0.4,1.1l0.5-0.6c0.1-0.1,0-0.5,0.1-0.7c0.1-0.4,0.5-0.8,0-1.1&#10;&#9;&#9;c0.4-0.2,0.2,0.3,0.6,0.3c-0.1,0.1,0,0.1-0.1,0.2c0.1,0.1,0.1,0.1,0.1,0.1c0.2-0.2,0.5,0.1,0.7,0c0,0-0.1-0.4,0.3-0.2&#10;&#9;&#9;c-0.4-0.3-0.4-1.1-1-1.3s-1.1-0.1-1.6-0.2c-0.2,0-1.3-0.4-1.2-0.5s0-0.2-0.1-0.4s0.1-0.2,0.1-0.4c-0.1-0.4-0.4-0.2-0.2-0.7&#10;&#9;&#9;c-0.8,0.1-0.8-0.2-1.2-0.8c-0.2-0.3-0.5,0-0.7-0.1c-0.2-0.1-0.5-0.2-0.8-0.2c0.3,0.2,0,0.4-0.2,0.6c0.1-0.1,0.1-0.3,0.1-0.4&#10;&#9;&#9;c-0.2,0.1-0.2,0.4-0.4,0.5c0-0.1,0.1-0.2,0.1-0.3c-0.4,0.1-0.2,0.4-0.5,0.6l-1,0.5c-0.3,0.3-0.6,0.6-0.9,0.9&#10;&#9;&#9;C183.4,223.3,183.7,223.1,184,223z M190.5,224.1c0.2-0.1,0.4-0.1,0.5,0.1c0,0,0,0.1,0,0.1c0,0,0.1-0.1,0.1-0.1&#10;&#9;&#9;c0.1,0.2,0,0.2-0.1,0.4l-0.1-0.1l0.1-0.1c-0.3,0.2-0.6-0.1-0.9-0.2h-0.2C190.1,223.9,190.2,224.1,190.5,224.1L190.5,224.1z&#10;&#9;&#9; M189.8,224.1c0,0,0,0.1,0,0.1c-0.1,0-0.3,0-0.4-0.1l0.2-0.1L189.8,224.1z M189.4,223.8l-0.1,0.2l-0.2-0.2&#10;&#9;&#9;C189.2,223.8,189.2,223.6,189.4,223.8L189.4,223.8z"/>
	<path class="st4_network-1-19" d="M189.4,223.7c-0.2-0.1-0.2-0.1-0.2,0l0.2,0.2L189.4,223.7z"/>
	<path class="st4_network-1-19" d="M189.8,224.1c0,0,0-0.1,0-0.1l-0.2-0.1l-0.2,0.1C189.5,224.1,189.7,224.1,189.8,224.1z"/>
	<path class="st4_network-1-19" d="M261.2,229.8c0,0.1-0.2,0.3-0.2,0.5s0.2,0.2,0.2,0.2c-0.1,0.4-0.4,0.4-0.1,0.7s0.5,0.2,0.5-0.1&#10;&#9;&#9;c0-0.2,0.3,0,0.4-0.4l0.1-1.2c0.1-0.8-0.8-0.3-1-0.2c-0.1,0-0.2-0.1-0.2-0.1C260.7,229.7,261.1,229.5,261.2,229.8z"/>
	<path class="st4_network-1-19" d="M291.9,175.2l-1.1,0.8c0.6,0.2,1.2,0.3,1.8,0.3c0-0.2-0.1-0.4-0.2-0.6l2.2-0.5c-0.4-0.3-0.7-0.5-1.1-0.4&#10;&#9;&#9;c-0.4,0.2-0.9,0.3-1.4,0.2c-0.9-0.1-1.8,0-2.6,0.4l1,0.3L291.9,175.2z"/>
	<path class="st4_network-1-19" d="M295,191.7c0.4,0.5,1.1,0.8,1.7,0.9c0.6,0,1.9,0.4,2.4,0c-0.8-0.6-1.5-1.1-1.5-2.2c0-0.9,0.9-1.7,1.4-2.3&#10;&#9;&#9;c0.3-0.4,0.6-0.8,0.9-1.1c0.4-0.3,0.8-0.6,1.2-0.8c0.6-0.5,1.2-0.9,1.9-1.2c0.9-0.3,1.9-0.6,2.8-0.9c0.5-0.2,2.3-0.5,2.4-1.3&#10;&#9;&#9;c0.1-1-1.8-0.6-2.1-0.3c-0.8,0.5-1.6,0.8-2.5,1c-0.7,0-1.5,0.1-2.2,0.4c-0.7,0.2-1.4,0.5-2.1,0.9c-0.6,0.5-1.1,1-1.6,1.6l-1.1,1.2&#10;&#9;&#9;c-0.3,0.3-0.1,0.5,0,0.9c0,0.2-0.7,0.6-0.9,0.7c-0.5,0.4,0,0.4-0.3,0.9s-0.7,0.2-0.7,0.7C294.5,191.2,294.6,191.2,295,191.7z"/>
	<path class="st4_network-1-19" d="M296.7,175.8c-0.9-0.3-0.9-0.3-1.6,0.3l1,0.1L296.7,175.8z"/>
	<path class="st4_network-1-19" d="M299.5,174.8c-0.5-0.2-1-0.3-1.6-0.4c-0.8,0-1-0.1-1.6,0.5l1.5,0.4C298.5,175.3,299.1,175.1,299.5,174.8z"/>
	<path class="st4_network-1-19" d="M300,173.8l-0.6-0.5l1.2-0.3c-0.7-0.1-1-0.3-1.5,0.1s-0.9,0.6-1.4,0.9l1.3,0.2L300,173.8z"/>
	<path class="st4_network-1-19" d="M266.8,196.4c-0.1,0-0.2,0-0.3,0c0,0.1,0,0.3,0,0.4l0.7-0.8C267,196,266.9,196.1,266.8,196.4z"/>
	<path class="st4_network-1-19" d="M270.7,193.4c-0.1,0-0.2,0-0.4,0c0,0.1,0,0.2,0.1,0.2C270.6,193.8,270.7,193.7,270.7,193.4z"/>
	<path class="st4_network-1-19" d="M271.3,193.5c0.7-0.1,1.3-0.4,1.7-0.9c-0.3,0-0.4,0.3-0.6,0.4c-0.3,0.1-0.6,0.1-0.9,0.1&#10;&#9;&#9;C271.6,193.3,271.5,193.4,271.3,193.5z"/>
	<path class="st4_network-1-19" d="M272.3,192.9c0.2-0.2,0.4-0.2,0.4-0.5c-0.3,0.1-0.2,0.3-0.5,0.2c-0.2-0.1-0.4-0.1-0.6,0&#10;&#9;&#9;C271.6,193.1,272,193,272.3,192.9z"/>
	<path class="st4_network-1-19" d="M300.4,193l-0.4,0.3c0.1,0.3,1.1,1.1,1.5,0.8S300.5,193.1,300.4,193z"/>
	<path class="st4_network-1-19" d="M309.2,188.2c-0.5,0.1-0.4,0.3-0.4,0.8l1.3-0.2C310,188.3,309.6,188.1,309.2,188.2z"/>
	<path class="st4_network-1-19" d="M292.3,195.5c0.2,0.2,1-0.4,1.2-0.6c-0.3-0.3-0.6-0.4-1-0.5C292,194.7,291.8,195,292.3,195.5z"/>
	<path class="st4_network-1-19" d="M269.2,211c-0.2-0.3,0-0.5,0.2-0.7c-0.8-0.2-0.9,0.6-0.8,1.2C268.7,211.3,268.9,211.1,269.2,211z"/>
	<path class="st4_network-1-19" d="M263.4,213.7c0.3,0,0.3,0.3,0.3,0.6c0-0.4,0-0.8,0.4-0.8c-0.1-0.1-0.1-0.2-0.2-0.2c1.1-0.2-0.7-1.2-0.1-0.2&#10;&#9;&#9;c-0.2,0-0.3-0.1-0.2-0.3c-0.1,0-0.2,0-0.3,0c0.1,0.2,0,0.3-0.2,0.4C263.1,213.3,263.1,213.7,263.4,213.7z"/>
	<path class="st4_network-1-19" d="M301,176.5c-0.2-0.4-0.5-0.1-0.8-0.1c0.1,0.1,0.2,0.2,0.4,0.3L301,176.5z"/>
	<path class="st4_network-1-19" d="M299.9,175.5c-0.2,0-2.2,0.1-2,0.6s1.5,0.1,2,0.1c-0.1-0.1-0.1-0.2-0.2-0.3l0.7-0.1L299.9,175.5z"/>
	<path class="st4_network-1-19" d="M300.8,175.6c0.3,0,0.4-0.1,0.6,0.1c0.3,0.4,1.1-0.2,1.4-0.5s-0.4-0.9-0.8-0.8c-0.6,0.1-1.1,0.3-1.6,0.6&#10;&#9;&#9;C300.5,175.3,300.5,175.6,300.8,175.6z"/>
	<path class="st4_network-1-19" d="M303.5,175.2l1.5-0.3c0.5-0.1,0.3-0.3,0.3-0.8c-0.2,0-0.6-0.1-0.8,0.1s-0.1,0.5-0.3,0.6&#10;&#9;&#9;c-0.4,0.2-0.8-0.4-1.1,0.2C303.2,175,303.4,175.1,303.5,175.2z"/>
	<path class="st5_network-1-19" d="M278.1,302.2c-34.7-6.7-59-36.5-67.9-69.5c-6.9-25.7-3.9-53.7,13-73.5c-44.3,17.4-66.1,67.5-48.7,111.9&#10;&#9;&#9;s67.5,66.1,111.9,48.7c11-4.3,21-10.9,29.4-19.3C303.5,304,290.6,304.5,278.1,302.2z"/>
</g>
<g id="Box_network-1-19">
	<polyline class="st6_network-1-19" points="304.6,107.7 304.6,136.3 327,149.1 352.3,134.2 352.3,105.5 &#9;"/>
	<polyline class="st7_network-1-19" points="304.6,107.7 304.6,136.3 327,149.1 352.3,134.2 352.3,105.5 &#9;"/>
	<polygon class="st6_network-1-19" points="304.6,107.7 330.6,92.9 352.3,105.5 327,120.5 &#9;"/>
	<polygon class="st8_network-1-19" points="304.6,107.7 330.6,92.9 352.3,105.5 327,120.5 &#9;"/>
	<polygon class="st6_network-1-19" points="327,120.5 327,149.1 352.3,134.2 352.3,105.5 &#9;"/>
</g>
<g id="Box-2_network-1-19">
	<polygon class="st9_network-1-19 targetColor" points="141.5,260.1 106.3,280.1 106.3,363.5 136.6,380.9 170.8,360.6 170.8,277.3 &#9;" style="fill: rgb(104, 225, 253);"/>
	<polygon class="st8_network-1-19" points="106.3,280.1 141.5,260.1 170.8,277.3 136.6,297.5 &#9;"/>
	<polygon class="st7_network-1-19" points="136.6,297.5 136.6,380.9 170.8,360.6 170.8,277.3 &#9;"/>
</g>
<g id="Lines_network-1-19">
	<path d="M418.6,193.8L418.6,193.8c-5.5-17.4-28-28.2-63.4-30.5c-16.6-1.1-35.2-0.1-54.9,2.6l0.6,0.5c0.4,0.3,0.7,0.6,1,0.9l0.1,0.1&#10;&#9;&#9;c13-1.8,26-2.7,39.1-2.8c4.8,0,9.4,0.1,13.9,0.4c34.7,2.2,56.6,12.6,61.9,29.4l0,0c5.3,16.8-6.7,37.9-33.8,59.6&#10;&#9;&#9;c-27.3,21.9-66.6,41.6-110.6,55.5s-87.5,20.3-122.4,18.1c-34.7-2.2-56.7-12.6-61.9-29.4s6.7-37.9,33.8-59.6&#10;&#9;&#9;c14.9-11.9,33.3-23.2,54.1-33.2c0.1-0.5,0.3-1,0.5-1.5c0.1-0.2,0.2-0.5,0.4-0.7c-21.6,10.3-40.6,21.9-56,34.1&#10;&#9;&#9;c-27.7,22.2-39.8,43.9-34.3,61.3s28,28.2,63.4,30.5c4.5,0.3,9.2,0.4,14,0.4c32.4,0,70.5-6.5,109-18.6c44.2-14,83.7-33.8,111.1-55.8&#10;&#9;&#9;C411.9,233,424.1,211.2,418.6,193.8z"/>
	<path d="M369.6,205.7c-15.1-8.3-30.9-15.2-47.2-20.6c0.2,0.2,0.3,0.5,0.4,0.7l0.5,0.6c0.3,0.3,0.6,0.6,0.8,0.9&#10;&#9;&#9;c15.5,5.2,30.5,11.8,44.7,19.7c30.2,17.1,45.4,36.1,42.9,53.5s-22.6,31.1-56.5,38.8c-34.1,7.7-78.1,8.3-123.7,1.5&#10;&#9;&#9;c-94-13.9-166.2-54.6-160.9-90.7c4.1-27.9,53.2-45,118.6-45c6.9,0,14.1,0.2,21.3,0.6c0.7-0.5,1.5-1,2.2-1.4l0,0&#10;&#9;&#9;c-77.6-4.6-139,13.7-143.7,45.6c-5.5,37,67.3,78.5,162.2,92.5c20.5,3.1,41.2,4.6,61.9,4.7c22.8,0,44-2.1,62.4-6.3&#10;&#9;&#9;c34.5-7.8,55-22.1,57.7-40.1S400.5,223.2,369.6,205.7z"/>
</g>
<g id="Smartphone_Horizontal_network-1-19">
	<path class="st10_network-1-19" d="M148.9,167.9v-3.8l-1.9,0.6C147,164.6,148.3,167.8,148.9,167.9z"/>
	<path class="st10_network-1-19" d="M26.9,184.8l75.2-43.1c1.6-0.9,3.6-0.9,5.3,0l40.1,23.5c1.5,0.9,2,2.8,1.1,4.2c-0.3,0.5-0.7,0.8-1.1,1.1&#10;&#9;&#9;l-74.4,43c-2.2,1.2-4.8,1.2-7-0.1l-39.2-23.3c-1.5-0.9-2-2.8-1.1-4.2C26,185.4,26.4,185,26.9,184.8z"/>
	<path class="st11_network-1-19" d="M26.9,181.4l75.2-43.1c1.6-0.9,3.6-0.9,5.3,0l40.1,23.5c1.5,0.9,2,2.8,1.1,4.2c-0.3,0.5-0.7,0.8-1.1,1.1&#10;&#9;&#9;L73,210.1c-2.2,1.3-4.8,1.3-7,0l-39.2-23.4c-1.5-0.9-2-2.8-1.1-4.2C26,182,26.4,181.6,26.9,181.4z"/>
	<path class="st12_network-1-19" d="M100.2,143.6c0.4,0.1,38.4,22.3,38.4,22.3l-63.4,37.1l-38.3-22.1L100.2,143.6z"/>
	<path class="st10_network-1-19" d="M58.8,199.5c0.5-0.3,0.6-0.9,0.3-1.4c0,0,0,0,0,0c-0.5-0.6-1.2-1-1.8-1.4c-0.7-0.4-1.3-0.8-2-1.1l-5.1-3&#10;&#9;&#9;l-4.1-2.4c-0.6-0.3-1.2-0.4-1.9-0.2c-0.4,0.2-0.8,0.4-1.1,0.8c-0.3,0.4-0.1,1,0.3,1.2c0,0,0.1,0,0.1,0.1l7.7,4.5l3.3,1.9l1.9,1.1&#10;&#9;&#9;c0.6,0.4,1.3,0.4,2,0.2C58.6,199.7,58.7,199.6,58.8,199.5z"/>
	<ellipse class="st10_network-1-19" cx="39.7" cy="188" rx="1.3" ry="1.1"/>
</g>
<g id="Smartphone_Vertical_network-1-19">
	<polyline class="st10_network-1-19" points="425.4,194.5 430.2,196.6 425.6,198.7 424.4,196.3 &#9;"/>
	<path class="st10_network-1-19" d="M380.9,338l40.6-23.6c3.3-1.9,5.4-5.5,5.4-9.4l1.3-107.4c0-2.8-4.4-4.2-6.8-2.8l-42,24.8&#10;&#9;&#9;c-2.1,1.3-3.4,3.5-3.4,6v109.5c0,1.8,1.4,3.3,3.2,3.3C379.8,338.5,380.4,338.3,380.9,338z"/>
	<polyline class="st10_network-1-19" points="377.6,338 382.9,340.8 382.3,337.1 378.6,336.4 &#9;"/>
	<path class="st12_network-1-19" d="M386,340.6l40.5-23.6c3.3-1.9,5.4-5.5,5.4-9.4V199.2c0-1.6-1.3-2.9-2.9-2.9c-0.5,0-1,0.1-1.4,0.4l-43.1,25.5&#10;&#9;&#9;c-2.1,1.3-3.4,3.5-3.4,6v109.6c0,1.8,1.4,3.3,3.3,3.3C384.9,341.1,385.5,341,386,340.6z"/>
	<polygon class="st9_network-1-19 targetColor" points="383.6,234.9 429.8,208.4 429.8,303.2 383.6,329.9 &#9;" style="fill: rgb(104, 225, 253);"/>
	<ellipse transform="matrix(0.2323 -0.9727 0.9727 0.2323 3.807 645.8786)" class="st13_network-1-19" cx="411" cy="320.5" rx="2.9" ry="2.1"/>
	<path class="st13_network-1-19" d="M412.7,212.9L412.7,212.9c0,0.4-0.2,0.7-0.5,0.9l-8.9,5.1c-0.5,0.3-1.1,0.2-1.4-0.3c-0.1-0.2-0.2-0.4-0.2-0.6&#10;&#9;&#9;v-0.2c0-0.4,0.2-0.7,0.5-0.9l8.9-4.9c0.5-0.3,1.1-0.2,1.4,0.3C412.7,212.5,412.8,212.7,412.7,212.9z"/>
	<ellipse transform="matrix(0.3471 -0.9378 0.9378 0.3471 75.0267 528.1865)" class="st13_network-1-19" cx="416.9" cy="210.2" rx="1.4" ry="1"/>
	<ellipse transform="matrix(0.3029 -0.953 0.953 0.3029 -19.8114 592.335)" class="st12_network-1-19" cx="395" cy="309.7" rx="6" ry="4.5"/>
	
		<ellipse transform="matrix(0.2125 -0.9772 0.9772 0.2125 10.0488 628.9307)" class="st13_network-1-19" cx="395.2" cy="308.2" rx="2.3" ry="1.6"/>
	<path class="st13_network-1-19" d="M392.1,314.9c0,0,1-4.2,3.4-4.8s3,2.6,3,2.6c-0.7,1.3-1.8,2.3-3.2,2.7C392.9,316.2,392.1,314.9,392.1,314.9z"/>
	<ellipse transform="matrix(0.3029 -0.953 0.953 0.3029 -1.9168 600.1678)" class="st10_network-1-19" cx="409.3" cy="301.4" rx="6.5" ry="4.8"/>
	<path class="st12_network-1-19" d="M407.2,298.4c0.1,0,1.5,0.8,1.5,1.1s-0.7,1.3-0.6,1.4s1.5,1.9,2.2,2c0.5-0.3,1-0.7,1.5-1.1&#10;&#9;&#9;c0.5,0.2,0.9,0.6,1,1.2c-0.5,0.7-1.2,1.3-2,1.6c-1,0.4-4.1-3.1-4.5-4S407.2,298.4,407.2,298.4z"/>
	<path class="st11_network-1-19" d="M418.8,292.9v6c0,0.7,0.6,1.2,1.3,1.2c0.2,0,0.4-0.1,0.6-0.1l5.5-3c0.4-0.2,0.7-0.6,0.6-1.1v-6.1&#10;&#9;&#9;c0-0.7-0.5-1.2-1.2-1.2c-0.2,0-0.4,0.1-0.6,0.2l-5.5,3.2C419.1,292.1,418.8,292.5,418.8,292.9z"/>
	
		<ellipse transform="matrix(0.3951 -0.9187 0.9187 0.3951 -14.7181 567.0657)" class="st12_network-1-19" cx="423.2" cy="294.7" rx="2.4" ry="1.7"/>
</g>
</svg>